G75*
%MOIN*%
%OFA0B0*%
%FSLAX25Y25*%
%IPPOS*%
%LPD*%
%AMOC8*
5,1,8,0,0,1.08239X$1,22.5*
%
%ADD10C,0.00600*%
%ADD11C,0.00900*%
%ADD12C,0.00591*%
%ADD13C,0.00700*%
%ADD14C,0.00500*%
%ADD15C,0.01000*%
D10*
X0008274Y0059898D02*
X0008274Y0122890D01*
X0087014Y0122890D01*
X0087014Y0059898D01*
X0008274Y0059898D01*
X0031049Y0088894D02*
X0041049Y0093894D01*
X0043549Y0091394D02*
X0069549Y0091394D01*
X0072049Y0093894D02*
X0072049Y0106094D01*
X0072049Y0088894D02*
X0072049Y0076594D01*
X0036049Y0067894D02*
X0033549Y0067894D01*
X0036049Y0067894D02*
X0036049Y0088894D01*
X0036049Y0093894D02*
X0036049Y0114894D01*
X0033549Y0114894D01*
X0034691Y0130444D02*
X0034691Y0131578D01*
X0034691Y0131011D02*
X0038094Y0131011D01*
X0038094Y0130444D02*
X0038094Y0131578D01*
X0038094Y0132899D02*
X0034691Y0132899D01*
X0038094Y0135168D01*
X0034691Y0135168D01*
X0034691Y0136582D02*
X0036959Y0136582D01*
X0038094Y0137717D01*
X0036959Y0138851D01*
X0034691Y0138851D01*
X0023094Y0137717D02*
X0021959Y0136582D01*
X0019691Y0136582D01*
X0019691Y0135168D02*
X0023094Y0135168D01*
X0019691Y0132899D01*
X0023094Y0132899D01*
X0023094Y0131578D02*
X0023094Y0130444D01*
X0023094Y0131011D02*
X0019691Y0131011D01*
X0019691Y0130444D02*
X0019691Y0131578D01*
X0023094Y0137717D02*
X0021959Y0138851D01*
X0019691Y0138851D01*
X0038055Y0167944D02*
X0039523Y0167944D01*
X0038789Y0167944D02*
X0038789Y0172347D01*
X0038055Y0172347D02*
X0039523Y0172347D01*
X0041124Y0171613D02*
X0041124Y0168678D01*
X0041858Y0167944D01*
X0043326Y0167944D01*
X0044060Y0168678D01*
X0045728Y0167944D02*
X0048664Y0167944D01*
X0047196Y0167944D02*
X0047196Y0172347D01*
X0045728Y0170880D01*
X0044060Y0171613D02*
X0043326Y0172347D01*
X0041858Y0172347D01*
X0041124Y0171613D01*
X0049691Y0138851D02*
X0051959Y0138851D01*
X0053094Y0137717D01*
X0051959Y0136582D01*
X0049691Y0136582D01*
X0049691Y0135168D02*
X0053094Y0135168D01*
X0049691Y0132899D01*
X0053094Y0132899D01*
X0053094Y0131578D02*
X0053094Y0130444D01*
X0053094Y0131011D02*
X0049691Y0131011D01*
X0049691Y0130444D02*
X0049691Y0131578D01*
X0031049Y0093894D02*
X0031049Y0088894D01*
X0028549Y0091394D02*
X0024549Y0091394D01*
X0034691Y0220444D02*
X0038094Y0222712D01*
X0034691Y0222712D01*
X0034691Y0224127D02*
X0034691Y0225828D01*
X0035258Y0226395D01*
X0036392Y0226395D01*
X0036959Y0225828D01*
X0036959Y0224127D01*
X0038094Y0224127D02*
X0034691Y0224127D01*
X0034691Y0227810D02*
X0038094Y0230079D01*
X0034691Y0230079D01*
X0034691Y0227810D02*
X0038094Y0227810D01*
X0042191Y0227810D02*
X0042191Y0229511D01*
X0042758Y0230079D01*
X0043892Y0230079D01*
X0044459Y0229511D01*
X0044459Y0227810D01*
X0045594Y0227810D02*
X0042191Y0227810D01*
X0042191Y0226395D02*
X0045594Y0226395D01*
X0042191Y0224127D01*
X0045594Y0224127D01*
X0043892Y0222712D02*
X0044459Y0222145D01*
X0044459Y0220444D01*
X0045594Y0220444D02*
X0042191Y0220444D01*
X0042191Y0222145D01*
X0042758Y0222712D01*
X0043892Y0222712D01*
X0049691Y0222712D02*
X0053094Y0222712D01*
X0049691Y0220444D01*
X0053094Y0220444D01*
X0053094Y0224127D02*
X0049691Y0224127D01*
X0049691Y0225828D01*
X0050258Y0226395D01*
X0051392Y0226395D01*
X0051959Y0225828D01*
X0051959Y0224127D01*
X0053094Y0227810D02*
X0049691Y0227810D01*
X0053094Y0230079D01*
X0049691Y0230079D01*
X0057191Y0229511D02*
X0057758Y0230079D01*
X0058892Y0230079D01*
X0059459Y0229511D01*
X0059459Y0227810D01*
X0060594Y0227810D02*
X0057191Y0227810D01*
X0057191Y0229511D01*
X0057191Y0226395D02*
X0060594Y0226395D01*
X0057191Y0224127D01*
X0060594Y0224127D01*
X0058892Y0222712D02*
X0057758Y0222712D01*
X0057191Y0222145D01*
X0057191Y0220444D01*
X0060594Y0220444D01*
X0059459Y0220444D02*
X0059459Y0222145D01*
X0058892Y0222712D01*
X0064691Y0222712D02*
X0068094Y0222712D01*
X0064691Y0220444D01*
X0068094Y0220444D01*
X0068094Y0224127D02*
X0064691Y0224127D01*
X0064691Y0225828D01*
X0065258Y0226395D01*
X0066392Y0226395D01*
X0066959Y0225828D01*
X0066959Y0224127D01*
X0068094Y0227810D02*
X0064691Y0227810D01*
X0068094Y0230079D01*
X0064691Y0230079D01*
X0072191Y0229511D02*
X0072758Y0230079D01*
X0073892Y0230079D01*
X0074459Y0229511D01*
X0074459Y0227810D01*
X0075594Y0227810D02*
X0072191Y0227810D01*
X0072191Y0229511D01*
X0072191Y0226395D02*
X0075594Y0226395D01*
X0072191Y0224127D01*
X0075594Y0224127D01*
X0073892Y0222712D02*
X0072758Y0222712D01*
X0072191Y0222145D01*
X0072191Y0220444D01*
X0075594Y0220444D01*
X0074459Y0220444D02*
X0074459Y0222145D01*
X0073892Y0222712D01*
X0038094Y0220444D02*
X0034691Y0220444D01*
X0158294Y0082937D02*
X0161403Y0082937D01*
X0192940Y0083664D02*
X0192940Y0080728D01*
X0195142Y0080728D01*
X0194408Y0082196D01*
X0194408Y0082930D01*
X0195142Y0083664D01*
X0196610Y0083664D01*
X0197344Y0082930D01*
X0197344Y0081462D01*
X0196610Y0080728D01*
X0196610Y0079060D02*
X0197344Y0078326D01*
X0197344Y0076858D01*
X0196610Y0076124D01*
X0193674Y0076124D01*
X0192940Y0076858D01*
X0192940Y0078326D01*
X0193674Y0079060D01*
X0192940Y0074523D02*
X0192940Y0073055D01*
X0192940Y0073789D02*
X0197344Y0073789D01*
X0197344Y0073055D02*
X0197344Y0074523D01*
X0199712Y0108779D02*
X0200279Y0109347D01*
X0199712Y0108779D02*
X0198578Y0109914D01*
X0198011Y0109347D01*
X0198011Y0114694D02*
X0198011Y0118097D01*
X0200279Y0114694D01*
X0200279Y0118097D01*
X0196596Y0117529D02*
X0196596Y0116395D01*
X0196029Y0115828D01*
X0194327Y0115828D01*
X0194327Y0114694D02*
X0194327Y0118097D01*
X0196029Y0118097D01*
X0196596Y0117529D01*
X0196596Y0122194D02*
X0196596Y0125597D01*
X0198011Y0125597D02*
X0199712Y0125597D01*
X0200279Y0125029D01*
X0200279Y0123895D01*
X0199712Y0123328D01*
X0198011Y0123328D01*
X0198011Y0122194D02*
X0198011Y0125597D01*
X0194327Y0125597D02*
X0194327Y0122194D01*
X0192913Y0123895D02*
X0192346Y0123328D01*
X0190644Y0123328D01*
X0190644Y0122194D02*
X0190644Y0125597D01*
X0192346Y0125597D01*
X0192913Y0125029D01*
X0192913Y0123895D01*
X0194327Y0125597D02*
X0196596Y0122194D01*
X0192913Y0118097D02*
X0192913Y0114694D01*
X0190644Y0118097D01*
X0190644Y0114694D01*
D11*
X0224821Y0152215D02*
X0225838Y0152215D01*
X0227874Y0152215D02*
X0231944Y0152215D01*
X0231944Y0151198D02*
X0231944Y0153233D01*
X0231944Y0157530D02*
X0227874Y0159565D01*
X0228891Y0161940D02*
X0227874Y0162958D01*
X0227874Y0164993D01*
X0228891Y0166011D01*
X0229909Y0166011D01*
X0229909Y0161940D01*
X0230926Y0161940D02*
X0228891Y0161940D01*
X0230926Y0161940D02*
X0231944Y0162958D01*
X0231944Y0164993D01*
X0231944Y0168386D02*
X0227874Y0168386D01*
X0229909Y0168386D02*
X0227874Y0170421D01*
X0227874Y0171438D01*
X0228891Y0173757D02*
X0227874Y0174775D01*
X0227874Y0177827D01*
X0229909Y0176810D02*
X0229909Y0174775D01*
X0228891Y0173757D01*
X0231944Y0173757D02*
X0231944Y0176810D01*
X0230926Y0177827D01*
X0229909Y0176810D01*
X0230926Y0180203D02*
X0229909Y0181220D01*
X0229909Y0184273D01*
X0228891Y0184273D02*
X0231944Y0184273D01*
X0231944Y0181220D01*
X0230926Y0180203D01*
X0227874Y0181220D02*
X0227874Y0183255D01*
X0228891Y0184273D01*
X0225838Y0186648D02*
X0225838Y0187666D01*
X0231944Y0187666D01*
X0231944Y0188683D02*
X0231944Y0186648D01*
X0231944Y0197391D02*
X0231944Y0199426D01*
X0231944Y0198408D02*
X0225838Y0198408D01*
X0225838Y0197391D02*
X0225838Y0199426D01*
X0227874Y0201688D02*
X0227874Y0204740D01*
X0228891Y0205758D01*
X0231944Y0205758D01*
X0230926Y0209151D02*
X0231944Y0210168D01*
X0230926Y0209151D02*
X0226856Y0209151D01*
X0227874Y0210168D02*
X0227874Y0208133D01*
X0228891Y0212430D02*
X0227874Y0213448D01*
X0227874Y0215483D01*
X0228891Y0216500D01*
X0229909Y0216500D01*
X0229909Y0212430D01*
X0230926Y0212430D02*
X0228891Y0212430D01*
X0230926Y0212430D02*
X0231944Y0213448D01*
X0231944Y0215483D01*
X0231944Y0218876D02*
X0227874Y0218876D01*
X0229909Y0218876D02*
X0227874Y0220911D01*
X0227874Y0221928D01*
X0228891Y0224247D02*
X0228891Y0226282D01*
X0226856Y0225264D02*
X0225838Y0226282D01*
X0226856Y0225264D02*
X0231944Y0225264D01*
X0230926Y0228544D02*
X0229909Y0229561D01*
X0229909Y0232614D01*
X0228891Y0232614D02*
X0231944Y0232614D01*
X0231944Y0229561D01*
X0230926Y0228544D01*
X0227874Y0229561D02*
X0227874Y0231596D01*
X0228891Y0232614D01*
X0228891Y0234989D02*
X0227874Y0236007D01*
X0227874Y0239059D01*
X0228891Y0241435D02*
X0227874Y0242452D01*
X0227874Y0244487D01*
X0228891Y0245505D01*
X0229909Y0245505D01*
X0229909Y0241435D01*
X0230926Y0241435D02*
X0228891Y0241435D01*
X0230926Y0241435D02*
X0231944Y0242452D01*
X0231944Y0244487D01*
X0231944Y0239059D02*
X0231944Y0236007D01*
X0230926Y0234989D01*
X0228891Y0234989D01*
X0227874Y0201688D02*
X0231944Y0201688D01*
X0231944Y0157530D02*
X0227874Y0155495D01*
X0227874Y0152215D02*
X0227874Y0151198D01*
X0228891Y0148823D02*
X0227874Y0147805D01*
X0227874Y0144752D01*
X0231944Y0144752D01*
X0230926Y0142377D02*
X0225838Y0142377D01*
X0225838Y0138307D02*
X0230926Y0138307D01*
X0231944Y0139324D01*
X0231944Y0141359D01*
X0230926Y0142377D01*
X0231944Y0148823D02*
X0228891Y0148823D01*
X0015005Y0170367D02*
X0015005Y0173420D01*
X0013987Y0174437D01*
X0012970Y0173420D01*
X0012970Y0171384D01*
X0011952Y0170367D01*
X0010935Y0171384D01*
X0010935Y0174437D01*
X0011952Y0176812D02*
X0010935Y0177830D01*
X0010935Y0179865D01*
X0011952Y0180883D01*
X0013987Y0180883D01*
X0015005Y0179865D01*
X0015005Y0177830D01*
X0013987Y0176812D01*
X0011952Y0176812D01*
X0008900Y0183258D02*
X0008900Y0184275D01*
X0015005Y0184275D01*
X0015005Y0183258D02*
X0015005Y0185293D01*
X0013987Y0187555D02*
X0015005Y0188572D01*
X0015005Y0191625D01*
X0008900Y0191625D01*
X0010935Y0191625D02*
X0010935Y0188572D01*
X0011952Y0187555D01*
X0013987Y0187555D01*
X0013987Y0194000D02*
X0011952Y0194000D01*
X0010935Y0195018D01*
X0010935Y0197053D01*
X0011952Y0198071D01*
X0012970Y0198071D01*
X0012970Y0194000D01*
X0013987Y0194000D02*
X0015005Y0195018D01*
X0015005Y0197053D01*
X0015005Y0200446D02*
X0010935Y0200446D01*
X0012970Y0200446D02*
X0010935Y0202481D01*
X0010935Y0203499D01*
X0010935Y0205817D02*
X0010935Y0208870D01*
X0011952Y0209887D01*
X0015005Y0209887D01*
X0013987Y0212263D02*
X0015005Y0213280D01*
X0015005Y0215315D01*
X0012970Y0216333D02*
X0012970Y0212263D01*
X0013987Y0212263D02*
X0011952Y0212263D01*
X0010935Y0213280D01*
X0010935Y0215315D01*
X0011952Y0216333D01*
X0012970Y0216333D01*
X0012970Y0218708D02*
X0010935Y0220743D01*
X0010935Y0221761D01*
X0011952Y0224079D02*
X0010935Y0225097D01*
X0010935Y0228150D01*
X0008900Y0228150D02*
X0015005Y0228150D01*
X0015005Y0225097D01*
X0013987Y0224079D01*
X0011952Y0224079D01*
X0010935Y0218708D02*
X0015005Y0218708D01*
X0015005Y0205817D02*
X0010935Y0205817D01*
X0013987Y0230525D02*
X0013987Y0231542D01*
X0015005Y0231542D01*
X0015005Y0230525D01*
X0013987Y0230525D01*
X0013987Y0233748D02*
X0015005Y0234765D01*
X0015005Y0237818D01*
X0013987Y0240193D02*
X0015005Y0241211D01*
X0015005Y0243246D01*
X0013987Y0244263D01*
X0011952Y0244263D01*
X0010935Y0243246D01*
X0010935Y0241211D01*
X0011952Y0240193D01*
X0013987Y0240193D01*
X0010935Y0237818D02*
X0010935Y0234765D01*
X0011952Y0233748D01*
X0013987Y0233748D01*
X0015005Y0246639D02*
X0010935Y0246639D01*
X0010935Y0247656D01*
X0011952Y0248674D01*
X0010935Y0249691D01*
X0011952Y0250709D01*
X0015005Y0250709D01*
X0015005Y0248674D02*
X0011952Y0248674D01*
D12*
X0048894Y0034179D02*
X0048894Y0002683D01*
X0188894Y0002683D01*
X0188894Y0034179D01*
X0048894Y0034179D01*
X0048894Y0033894D02*
X0048894Y0043894D01*
X0068894Y0043894D01*
X0068894Y0033894D01*
X0068894Y0043894D02*
X0088894Y0043894D01*
X0088894Y0033894D01*
X0088894Y0043894D02*
X0128894Y0043894D01*
X0128894Y0053894D01*
X0108894Y0053894D01*
X0108894Y0033894D01*
X0108894Y0053894D02*
X0048894Y0053894D01*
X0048894Y0043894D01*
X0092565Y0083057D02*
X0092565Y0097230D01*
X0132722Y0097230D01*
X0132722Y0083057D01*
X0092565Y0083057D01*
X0105547Y0068746D02*
X0105547Y0056541D01*
X0112240Y0056541D01*
X0112240Y0068746D01*
X0105547Y0068746D01*
X0128894Y0053894D02*
X0188894Y0053894D01*
X0188894Y0043894D01*
X0168894Y0043894D01*
X0168894Y0033894D01*
X0168894Y0043894D02*
X0148894Y0043894D01*
X0148894Y0033894D01*
X0148894Y0043894D02*
X0128894Y0043894D01*
X0128894Y0033894D01*
X0131541Y0059297D02*
X0131541Y0065990D01*
X0143746Y0065990D01*
X0143746Y0059297D01*
X0131541Y0059297D01*
X0146482Y0059494D02*
X0146482Y0065793D01*
X0153569Y0065793D01*
X0153569Y0062644D01*
X0156719Y0065793D01*
X0156719Y0059494D01*
X0153569Y0062644D01*
X0153569Y0059494D01*
X0146482Y0059494D01*
X0146482Y0066994D02*
X0146482Y0073293D01*
X0153569Y0073293D01*
X0153569Y0066994D01*
X0156719Y0070144D01*
X0153569Y0073293D01*
X0156719Y0073293D01*
X0156719Y0070144D01*
X0156719Y0066994D01*
X0153569Y0066994D01*
X0146482Y0066994D01*
X0153569Y0065793D02*
X0156719Y0065793D01*
X0163805Y0065793D01*
X0163805Y0059494D01*
X0156719Y0059494D01*
X0153569Y0059494D01*
X0156719Y0066994D02*
X0163805Y0066994D01*
X0163805Y0073293D01*
X0156719Y0073293D01*
X0153746Y0076797D02*
X0153746Y0083490D01*
X0141541Y0083490D01*
X0141541Y0076797D01*
X0153746Y0076797D01*
X0157988Y0082781D02*
X0157988Y0091837D01*
X0162319Y0091837D01*
X0162319Y0087506D01*
X0165469Y0087506D01*
X0165469Y0091837D01*
X0169799Y0091837D01*
X0169799Y0082781D01*
X0166256Y0082781D01*
X0166256Y0078451D01*
X0161531Y0078451D01*
X0161531Y0082781D01*
X0157988Y0082781D01*
X0155990Y0086541D02*
X0155990Y0098746D01*
X0149297Y0098746D01*
X0149297Y0086541D01*
X0155990Y0086541D01*
X0148490Y0086541D02*
X0148490Y0098746D01*
X0141797Y0098746D01*
X0141797Y0086541D01*
X0148490Y0086541D01*
X0128199Y0094474D02*
X0128201Y0094557D01*
X0128207Y0094641D01*
X0128217Y0094724D01*
X0128230Y0094806D01*
X0128248Y0094888D01*
X0128270Y0094968D01*
X0128295Y0095048D01*
X0128324Y0095126D01*
X0128356Y0095203D01*
X0128393Y0095279D01*
X0128432Y0095352D01*
X0128476Y0095423D01*
X0128522Y0095493D01*
X0128572Y0095560D01*
X0128625Y0095625D01*
X0128680Y0095687D01*
X0128739Y0095746D01*
X0128801Y0095803D01*
X0128865Y0095856D01*
X0128931Y0095907D01*
X0129000Y0095954D01*
X0129071Y0095998D01*
X0129144Y0096039D01*
X0129219Y0096076D01*
X0129295Y0096109D01*
X0129373Y0096139D01*
X0129453Y0096165D01*
X0129533Y0096188D01*
X0129614Y0096206D01*
X0129697Y0096221D01*
X0129779Y0096232D01*
X0129863Y0096239D01*
X0129946Y0096242D01*
X0130030Y0096241D01*
X0130113Y0096236D01*
X0130196Y0096227D01*
X0130279Y0096214D01*
X0130360Y0096198D01*
X0130441Y0096177D01*
X0130521Y0096153D01*
X0130600Y0096125D01*
X0130677Y0096093D01*
X0130753Y0096058D01*
X0130827Y0096019D01*
X0130899Y0095977D01*
X0130969Y0095931D01*
X0131036Y0095882D01*
X0131102Y0095830D01*
X0131164Y0095775D01*
X0131225Y0095717D01*
X0131282Y0095656D01*
X0131336Y0095593D01*
X0131387Y0095527D01*
X0131436Y0095458D01*
X0131480Y0095388D01*
X0131522Y0095315D01*
X0131560Y0095241D01*
X0131594Y0095165D01*
X0131625Y0095087D01*
X0131652Y0095008D01*
X0131676Y0094928D01*
X0131695Y0094847D01*
X0131711Y0094765D01*
X0131723Y0094682D01*
X0131731Y0094599D01*
X0131735Y0094516D01*
X0131735Y0094432D01*
X0131731Y0094349D01*
X0131723Y0094266D01*
X0131711Y0094183D01*
X0131695Y0094101D01*
X0131676Y0094020D01*
X0131652Y0093940D01*
X0131625Y0093861D01*
X0131594Y0093783D01*
X0131560Y0093707D01*
X0131522Y0093633D01*
X0131480Y0093560D01*
X0131436Y0093490D01*
X0131387Y0093421D01*
X0131336Y0093355D01*
X0131282Y0093292D01*
X0131225Y0093231D01*
X0131164Y0093173D01*
X0131102Y0093118D01*
X0131036Y0093066D01*
X0130969Y0093017D01*
X0130899Y0092971D01*
X0130827Y0092929D01*
X0130753Y0092890D01*
X0130677Y0092855D01*
X0130600Y0092823D01*
X0130521Y0092795D01*
X0130441Y0092771D01*
X0130360Y0092750D01*
X0130279Y0092734D01*
X0130196Y0092721D01*
X0130113Y0092712D01*
X0130030Y0092707D01*
X0129946Y0092706D01*
X0129863Y0092709D01*
X0129779Y0092716D01*
X0129697Y0092727D01*
X0129614Y0092742D01*
X0129533Y0092760D01*
X0129453Y0092783D01*
X0129373Y0092809D01*
X0129295Y0092839D01*
X0129219Y0092872D01*
X0129144Y0092909D01*
X0129071Y0092950D01*
X0129000Y0092994D01*
X0128931Y0093041D01*
X0128865Y0093092D01*
X0128801Y0093145D01*
X0128739Y0093202D01*
X0128680Y0093261D01*
X0128625Y0093323D01*
X0128572Y0093388D01*
X0128522Y0093455D01*
X0128476Y0093525D01*
X0128432Y0093596D01*
X0128393Y0093669D01*
X0128356Y0093745D01*
X0128324Y0093822D01*
X0128295Y0093900D01*
X0128270Y0093980D01*
X0128248Y0094060D01*
X0128230Y0094142D01*
X0128217Y0094224D01*
X0128207Y0094307D01*
X0128201Y0094391D01*
X0128199Y0094474D01*
X0126797Y0107791D02*
X0133490Y0107791D01*
X0133490Y0119996D01*
X0126797Y0119996D01*
X0126797Y0107791D01*
X0125990Y0107791D02*
X0119297Y0107791D01*
X0119297Y0119996D01*
X0125990Y0119996D01*
X0125990Y0107791D01*
X0123894Y0128894D02*
X0116394Y0128894D01*
X0116394Y0175144D01*
X0108894Y0175144D01*
X0108894Y0128894D01*
X0116394Y0128894D01*
X0108894Y0128894D02*
X0101394Y0128894D01*
X0101394Y0175144D01*
X0093894Y0175144D01*
X0093894Y0128894D01*
X0101394Y0128894D01*
X0093894Y0128894D02*
X0086394Y0128894D01*
X0086394Y0175144D01*
X0076394Y0175144D01*
X0076394Y0158894D01*
X0146394Y0158894D01*
X0146394Y0175144D01*
X0138894Y0175144D01*
X0138894Y0128894D01*
X0146394Y0128894D01*
X0146394Y0145144D01*
X0076394Y0145144D01*
X0076394Y0128894D01*
X0086394Y0128894D01*
X0076394Y0145144D02*
X0076394Y0158894D01*
X0069740Y0155291D02*
X0069740Y0167496D01*
X0063047Y0167496D01*
X0063047Y0155291D01*
X0069740Y0155291D01*
X0062240Y0152496D02*
X0055547Y0152496D01*
X0055547Y0140291D01*
X0062240Y0140291D01*
X0062240Y0152496D01*
X0054740Y0152496D02*
X0048047Y0152496D01*
X0048047Y0140291D01*
X0054740Y0140291D01*
X0054740Y0152496D01*
X0047240Y0152496D02*
X0040547Y0152496D01*
X0040547Y0140291D01*
X0047240Y0140291D01*
X0047240Y0152496D01*
X0039740Y0152496D02*
X0033047Y0152496D01*
X0033047Y0140291D01*
X0039740Y0140291D01*
X0039740Y0152496D01*
X0032240Y0152496D02*
X0025547Y0152496D01*
X0025547Y0140291D01*
X0032240Y0140291D01*
X0032240Y0152496D01*
X0024740Y0152496D02*
X0018047Y0152496D01*
X0018047Y0140291D01*
X0024740Y0140291D01*
X0024740Y0152496D01*
X0026669Y0163648D02*
X0026669Y0176640D01*
X0061118Y0176640D01*
X0061118Y0163648D01*
X0026669Y0163648D01*
X0025547Y0186541D02*
X0032240Y0186541D01*
X0032240Y0198746D01*
X0025547Y0198746D01*
X0025547Y0186541D01*
X0033047Y0186541D02*
X0033047Y0198746D01*
X0039740Y0198746D01*
X0039740Y0186541D01*
X0033047Y0186541D01*
X0040547Y0186541D02*
X0047240Y0186541D01*
X0047240Y0198746D01*
X0040547Y0198746D01*
X0040547Y0186541D01*
X0048047Y0186541D02*
X0048047Y0198746D01*
X0054740Y0198746D01*
X0054740Y0186541D01*
X0048047Y0186541D01*
X0055547Y0186541D02*
X0062240Y0186541D01*
X0062240Y0198746D01*
X0055547Y0198746D01*
X0055547Y0186541D01*
X0063047Y0186541D02*
X0063047Y0198746D01*
X0069740Y0198746D01*
X0069740Y0186541D01*
X0063047Y0186541D01*
X0056501Y0174258D02*
X0056503Y0174341D01*
X0056509Y0174425D01*
X0056519Y0174508D01*
X0056532Y0174590D01*
X0056550Y0174672D01*
X0056572Y0174752D01*
X0056597Y0174832D01*
X0056626Y0174910D01*
X0056658Y0174987D01*
X0056695Y0175063D01*
X0056734Y0175136D01*
X0056778Y0175207D01*
X0056824Y0175277D01*
X0056874Y0175344D01*
X0056927Y0175409D01*
X0056982Y0175471D01*
X0057041Y0175530D01*
X0057103Y0175587D01*
X0057167Y0175640D01*
X0057233Y0175691D01*
X0057302Y0175738D01*
X0057373Y0175782D01*
X0057446Y0175823D01*
X0057521Y0175860D01*
X0057597Y0175893D01*
X0057675Y0175923D01*
X0057755Y0175949D01*
X0057835Y0175972D01*
X0057916Y0175990D01*
X0057999Y0176005D01*
X0058081Y0176016D01*
X0058165Y0176023D01*
X0058248Y0176026D01*
X0058332Y0176025D01*
X0058415Y0176020D01*
X0058498Y0176011D01*
X0058581Y0175998D01*
X0058662Y0175982D01*
X0058743Y0175961D01*
X0058823Y0175937D01*
X0058902Y0175909D01*
X0058979Y0175877D01*
X0059055Y0175842D01*
X0059129Y0175803D01*
X0059201Y0175761D01*
X0059271Y0175715D01*
X0059338Y0175666D01*
X0059404Y0175614D01*
X0059466Y0175559D01*
X0059527Y0175501D01*
X0059584Y0175440D01*
X0059638Y0175377D01*
X0059689Y0175311D01*
X0059738Y0175242D01*
X0059782Y0175172D01*
X0059824Y0175099D01*
X0059862Y0175025D01*
X0059896Y0174949D01*
X0059927Y0174871D01*
X0059954Y0174792D01*
X0059978Y0174712D01*
X0059997Y0174631D01*
X0060013Y0174549D01*
X0060025Y0174466D01*
X0060033Y0174383D01*
X0060037Y0174300D01*
X0060037Y0174216D01*
X0060033Y0174133D01*
X0060025Y0174050D01*
X0060013Y0173967D01*
X0059997Y0173885D01*
X0059978Y0173804D01*
X0059954Y0173724D01*
X0059927Y0173645D01*
X0059896Y0173567D01*
X0059862Y0173491D01*
X0059824Y0173417D01*
X0059782Y0173344D01*
X0059738Y0173274D01*
X0059689Y0173205D01*
X0059638Y0173139D01*
X0059584Y0173076D01*
X0059527Y0173015D01*
X0059466Y0172957D01*
X0059404Y0172902D01*
X0059338Y0172850D01*
X0059271Y0172801D01*
X0059201Y0172755D01*
X0059129Y0172713D01*
X0059055Y0172674D01*
X0058979Y0172639D01*
X0058902Y0172607D01*
X0058823Y0172579D01*
X0058743Y0172555D01*
X0058662Y0172534D01*
X0058581Y0172518D01*
X0058498Y0172505D01*
X0058415Y0172496D01*
X0058332Y0172491D01*
X0058248Y0172490D01*
X0058165Y0172493D01*
X0058081Y0172500D01*
X0057999Y0172511D01*
X0057916Y0172526D01*
X0057835Y0172544D01*
X0057755Y0172567D01*
X0057675Y0172593D01*
X0057597Y0172623D01*
X0057521Y0172656D01*
X0057446Y0172693D01*
X0057373Y0172734D01*
X0057302Y0172778D01*
X0057233Y0172825D01*
X0057167Y0172876D01*
X0057103Y0172929D01*
X0057041Y0172986D01*
X0056982Y0173045D01*
X0056927Y0173107D01*
X0056874Y0173172D01*
X0056824Y0173239D01*
X0056778Y0173309D01*
X0056734Y0173380D01*
X0056695Y0173453D01*
X0056658Y0173529D01*
X0056626Y0173606D01*
X0056597Y0173684D01*
X0056572Y0173764D01*
X0056550Y0173844D01*
X0056532Y0173926D01*
X0056519Y0174008D01*
X0056509Y0174091D01*
X0056503Y0174175D01*
X0056501Y0174258D01*
X0086394Y0175144D02*
X0093894Y0175144D01*
X0099996Y0179297D02*
X0099996Y0185990D01*
X0087791Y0185990D01*
X0087791Y0179297D01*
X0099996Y0179297D01*
X0101394Y0175144D02*
X0108894Y0175144D01*
X0109307Y0178815D02*
X0123480Y0178815D01*
X0123480Y0218972D01*
X0109307Y0218972D01*
X0109307Y0178815D01*
X0116394Y0175144D02*
X0123894Y0175144D01*
X0123894Y0128894D01*
X0131394Y0128894D01*
X0131394Y0175144D01*
X0123894Y0175144D01*
X0118956Y0181571D02*
X0118958Y0181654D01*
X0118964Y0181738D01*
X0118974Y0181821D01*
X0118987Y0181903D01*
X0119005Y0181985D01*
X0119027Y0182065D01*
X0119052Y0182145D01*
X0119081Y0182223D01*
X0119113Y0182300D01*
X0119150Y0182376D01*
X0119189Y0182449D01*
X0119233Y0182520D01*
X0119279Y0182590D01*
X0119329Y0182657D01*
X0119382Y0182722D01*
X0119437Y0182784D01*
X0119496Y0182843D01*
X0119558Y0182900D01*
X0119622Y0182953D01*
X0119688Y0183004D01*
X0119757Y0183051D01*
X0119828Y0183095D01*
X0119901Y0183136D01*
X0119976Y0183173D01*
X0120052Y0183206D01*
X0120130Y0183236D01*
X0120210Y0183262D01*
X0120290Y0183285D01*
X0120371Y0183303D01*
X0120454Y0183318D01*
X0120536Y0183329D01*
X0120620Y0183336D01*
X0120703Y0183339D01*
X0120787Y0183338D01*
X0120870Y0183333D01*
X0120953Y0183324D01*
X0121036Y0183311D01*
X0121117Y0183295D01*
X0121198Y0183274D01*
X0121278Y0183250D01*
X0121357Y0183222D01*
X0121434Y0183190D01*
X0121510Y0183155D01*
X0121584Y0183116D01*
X0121656Y0183074D01*
X0121726Y0183028D01*
X0121793Y0182979D01*
X0121859Y0182927D01*
X0121921Y0182872D01*
X0121982Y0182814D01*
X0122039Y0182753D01*
X0122093Y0182690D01*
X0122144Y0182624D01*
X0122193Y0182555D01*
X0122237Y0182485D01*
X0122279Y0182412D01*
X0122317Y0182338D01*
X0122351Y0182262D01*
X0122382Y0182184D01*
X0122409Y0182105D01*
X0122433Y0182025D01*
X0122452Y0181944D01*
X0122468Y0181862D01*
X0122480Y0181779D01*
X0122488Y0181696D01*
X0122492Y0181613D01*
X0122492Y0181529D01*
X0122488Y0181446D01*
X0122480Y0181363D01*
X0122468Y0181280D01*
X0122452Y0181198D01*
X0122433Y0181117D01*
X0122409Y0181037D01*
X0122382Y0180958D01*
X0122351Y0180880D01*
X0122317Y0180804D01*
X0122279Y0180730D01*
X0122237Y0180657D01*
X0122193Y0180587D01*
X0122144Y0180518D01*
X0122093Y0180452D01*
X0122039Y0180389D01*
X0121982Y0180328D01*
X0121921Y0180270D01*
X0121859Y0180215D01*
X0121793Y0180163D01*
X0121726Y0180114D01*
X0121656Y0180068D01*
X0121584Y0180026D01*
X0121510Y0179987D01*
X0121434Y0179952D01*
X0121357Y0179920D01*
X0121278Y0179892D01*
X0121198Y0179868D01*
X0121117Y0179847D01*
X0121036Y0179831D01*
X0120953Y0179818D01*
X0120870Y0179809D01*
X0120787Y0179804D01*
X0120703Y0179803D01*
X0120620Y0179806D01*
X0120536Y0179813D01*
X0120454Y0179824D01*
X0120371Y0179839D01*
X0120290Y0179857D01*
X0120210Y0179880D01*
X0120130Y0179906D01*
X0120052Y0179936D01*
X0119976Y0179969D01*
X0119901Y0180006D01*
X0119828Y0180047D01*
X0119757Y0180091D01*
X0119688Y0180138D01*
X0119622Y0180189D01*
X0119558Y0180242D01*
X0119496Y0180299D01*
X0119437Y0180358D01*
X0119382Y0180420D01*
X0119329Y0180485D01*
X0119279Y0180552D01*
X0119233Y0180622D01*
X0119189Y0180693D01*
X0119150Y0180766D01*
X0119113Y0180842D01*
X0119081Y0180919D01*
X0119052Y0180997D01*
X0119027Y0181077D01*
X0119005Y0181157D01*
X0118987Y0181239D01*
X0118974Y0181321D01*
X0118964Y0181404D01*
X0118958Y0181488D01*
X0118956Y0181571D01*
X0131394Y0175144D02*
X0138894Y0175144D01*
X0146394Y0158894D02*
X0146394Y0145144D01*
X0138894Y0128894D02*
X0131394Y0128894D01*
X0173283Y0192791D02*
X0173283Y0211689D01*
X0181945Y0211689D01*
X0181945Y0192791D01*
X0173283Y0192791D01*
X0173520Y0196945D02*
X0166827Y0196945D01*
X0166827Y0209150D01*
X0173520Y0209150D01*
X0173520Y0196945D01*
X0182033Y0192791D02*
X0182033Y0211689D01*
X0190695Y0211689D01*
X0190695Y0192791D01*
X0182033Y0192791D01*
X0192762Y0194337D02*
X0192762Y0187644D01*
X0204967Y0187644D01*
X0204967Y0194337D01*
X0192762Y0194337D01*
X0192959Y0202122D02*
X0204770Y0202122D01*
X0204770Y0212358D01*
X0192959Y0212358D01*
X0192959Y0202122D01*
X0189976Y0213510D02*
X0185252Y0213510D01*
X0185252Y0218628D01*
X0189976Y0218628D01*
X0189976Y0213510D01*
X0189976Y0218628D02*
X0189976Y0221778D01*
X0187614Y0218628D01*
X0185252Y0221778D01*
X0189976Y0221778D01*
X0189976Y0228470D01*
X0185252Y0228470D01*
X0185252Y0221778D01*
X0185252Y0218628D01*
X0191768Y0221138D02*
X0198461Y0221138D01*
X0198461Y0233343D01*
X0191768Y0233343D01*
X0191768Y0221138D01*
X0199268Y0221138D02*
X0205961Y0221138D01*
X0205961Y0233343D01*
X0199268Y0233343D01*
X0199268Y0221138D01*
X0201694Y0210665D02*
X0201696Y0210740D01*
X0201702Y0210814D01*
X0201712Y0210888D01*
X0201725Y0210961D01*
X0201743Y0211034D01*
X0201764Y0211105D01*
X0201789Y0211176D01*
X0201818Y0211245D01*
X0201851Y0211312D01*
X0201887Y0211377D01*
X0201926Y0211441D01*
X0201968Y0211502D01*
X0202014Y0211561D01*
X0202063Y0211618D01*
X0202115Y0211671D01*
X0202169Y0211722D01*
X0202226Y0211771D01*
X0202286Y0211815D01*
X0202348Y0211857D01*
X0202412Y0211896D01*
X0202478Y0211931D01*
X0202545Y0211962D01*
X0202615Y0211990D01*
X0202685Y0212014D01*
X0202757Y0212035D01*
X0202830Y0212051D01*
X0202903Y0212064D01*
X0202978Y0212073D01*
X0203052Y0212078D01*
X0203127Y0212079D01*
X0203201Y0212076D01*
X0203276Y0212069D01*
X0203349Y0212058D01*
X0203423Y0212044D01*
X0203495Y0212025D01*
X0203566Y0212003D01*
X0203636Y0211977D01*
X0203705Y0211947D01*
X0203771Y0211914D01*
X0203836Y0211877D01*
X0203899Y0211837D01*
X0203960Y0211793D01*
X0204018Y0211747D01*
X0204074Y0211697D01*
X0204127Y0211645D01*
X0204178Y0211590D01*
X0204225Y0211532D01*
X0204269Y0211472D01*
X0204310Y0211409D01*
X0204348Y0211345D01*
X0204382Y0211279D01*
X0204413Y0211210D01*
X0204440Y0211141D01*
X0204463Y0211070D01*
X0204482Y0210998D01*
X0204498Y0210925D01*
X0204510Y0210851D01*
X0204518Y0210777D01*
X0204522Y0210702D01*
X0204522Y0210628D01*
X0204518Y0210553D01*
X0204510Y0210479D01*
X0204498Y0210405D01*
X0204482Y0210332D01*
X0204463Y0210260D01*
X0204440Y0210189D01*
X0204413Y0210120D01*
X0204382Y0210051D01*
X0204348Y0209985D01*
X0204310Y0209921D01*
X0204269Y0209858D01*
X0204225Y0209798D01*
X0204178Y0209740D01*
X0204127Y0209685D01*
X0204074Y0209633D01*
X0204018Y0209583D01*
X0203960Y0209537D01*
X0203899Y0209493D01*
X0203836Y0209453D01*
X0203771Y0209416D01*
X0203705Y0209383D01*
X0203636Y0209353D01*
X0203566Y0209327D01*
X0203495Y0209305D01*
X0203423Y0209286D01*
X0203349Y0209272D01*
X0203276Y0209261D01*
X0203201Y0209254D01*
X0203127Y0209251D01*
X0203052Y0209252D01*
X0202978Y0209257D01*
X0202903Y0209266D01*
X0202830Y0209279D01*
X0202757Y0209295D01*
X0202685Y0209316D01*
X0202615Y0209340D01*
X0202545Y0209368D01*
X0202478Y0209399D01*
X0202412Y0209434D01*
X0202348Y0209473D01*
X0202286Y0209515D01*
X0202226Y0209559D01*
X0202169Y0209608D01*
X0202115Y0209659D01*
X0202063Y0209712D01*
X0202014Y0209769D01*
X0201968Y0209828D01*
X0201926Y0209889D01*
X0201887Y0209953D01*
X0201851Y0210018D01*
X0201818Y0210085D01*
X0201789Y0210154D01*
X0201764Y0210225D01*
X0201743Y0210296D01*
X0201725Y0210369D01*
X0201712Y0210442D01*
X0201702Y0210516D01*
X0201696Y0210590D01*
X0201694Y0210665D01*
X0206512Y0210587D02*
X0206512Y0203894D01*
X0218717Y0203894D01*
X0218717Y0210587D01*
X0206512Y0210587D01*
X0206512Y0203087D02*
X0206512Y0196394D01*
X0218717Y0196394D01*
X0218717Y0203087D01*
X0206512Y0203087D01*
X0206512Y0195587D02*
X0206512Y0188894D01*
X0218717Y0188894D01*
X0218717Y0195587D01*
X0206512Y0195587D01*
X0209041Y0183490D02*
X0209041Y0176797D01*
X0221246Y0176797D01*
X0221246Y0183490D01*
X0209041Y0183490D01*
X0209041Y0175990D02*
X0209041Y0169297D01*
X0221246Y0169297D01*
X0221246Y0175990D01*
X0209041Y0175990D01*
X0209041Y0168490D02*
X0209041Y0161797D01*
X0221246Y0161797D01*
X0221246Y0168490D01*
X0209041Y0168490D01*
X0207319Y0150512D02*
X0207319Y0147512D01*
X0205819Y0149012D02*
X0208819Y0149012D01*
X0178146Y0148894D02*
X0178151Y0149280D01*
X0178165Y0149667D01*
X0178189Y0150052D01*
X0178222Y0150438D01*
X0178264Y0150822D01*
X0178316Y0151205D01*
X0178378Y0151586D01*
X0178449Y0151966D01*
X0178529Y0152344D01*
X0178618Y0152720D01*
X0178716Y0153094D01*
X0178824Y0153465D01*
X0178941Y0153834D01*
X0179067Y0154199D01*
X0179201Y0154562D01*
X0179345Y0154920D01*
X0179497Y0155276D01*
X0179658Y0155627D01*
X0179828Y0155974D01*
X0180006Y0156318D01*
X0180192Y0156656D01*
X0180386Y0156990D01*
X0180589Y0157319D01*
X0180800Y0157643D01*
X0181019Y0157962D01*
X0181245Y0158275D01*
X0181479Y0158583D01*
X0181721Y0158884D01*
X0181969Y0159180D01*
X0182226Y0159470D01*
X0182489Y0159753D01*
X0182758Y0160030D01*
X0183035Y0160299D01*
X0183318Y0160562D01*
X0183608Y0160819D01*
X0183904Y0161067D01*
X0184205Y0161309D01*
X0184513Y0161543D01*
X0184826Y0161769D01*
X0185145Y0161988D01*
X0185469Y0162199D01*
X0185798Y0162402D01*
X0186132Y0162596D01*
X0186470Y0162782D01*
X0186814Y0162960D01*
X0187161Y0163130D01*
X0187512Y0163291D01*
X0187868Y0163443D01*
X0188226Y0163587D01*
X0188589Y0163721D01*
X0188954Y0163847D01*
X0189323Y0163964D01*
X0189694Y0164072D01*
X0190068Y0164170D01*
X0190444Y0164259D01*
X0190822Y0164339D01*
X0191202Y0164410D01*
X0191583Y0164472D01*
X0191966Y0164524D01*
X0192350Y0164566D01*
X0192736Y0164599D01*
X0193121Y0164623D01*
X0193508Y0164637D01*
X0193894Y0164642D01*
X0194280Y0164637D01*
X0194667Y0164623D01*
X0195052Y0164599D01*
X0195438Y0164566D01*
X0195822Y0164524D01*
X0196205Y0164472D01*
X0196586Y0164410D01*
X0196966Y0164339D01*
X0197344Y0164259D01*
X0197720Y0164170D01*
X0198094Y0164072D01*
X0198465Y0163964D01*
X0198834Y0163847D01*
X0199199Y0163721D01*
X0199562Y0163587D01*
X0199920Y0163443D01*
X0200276Y0163291D01*
X0200627Y0163130D01*
X0200974Y0162960D01*
X0201318Y0162782D01*
X0201656Y0162596D01*
X0201990Y0162402D01*
X0202319Y0162199D01*
X0202643Y0161988D01*
X0202962Y0161769D01*
X0203275Y0161543D01*
X0203583Y0161309D01*
X0203884Y0161067D01*
X0204180Y0160819D01*
X0204470Y0160562D01*
X0204753Y0160299D01*
X0205030Y0160030D01*
X0205299Y0159753D01*
X0205562Y0159470D01*
X0205819Y0159180D01*
X0206067Y0158884D01*
X0206309Y0158583D01*
X0206543Y0158275D01*
X0206769Y0157962D01*
X0206988Y0157643D01*
X0207199Y0157319D01*
X0207402Y0156990D01*
X0207596Y0156656D01*
X0207782Y0156318D01*
X0207960Y0155974D01*
X0208130Y0155627D01*
X0208291Y0155276D01*
X0208443Y0154920D01*
X0208587Y0154562D01*
X0208721Y0154199D01*
X0208847Y0153834D01*
X0208964Y0153465D01*
X0209072Y0153094D01*
X0209170Y0152720D01*
X0209259Y0152344D01*
X0209339Y0151966D01*
X0209410Y0151586D01*
X0209472Y0151205D01*
X0209524Y0150822D01*
X0209566Y0150438D01*
X0209599Y0150052D01*
X0209623Y0149667D01*
X0209637Y0149280D01*
X0209642Y0148894D01*
X0209637Y0148508D01*
X0209623Y0148121D01*
X0209599Y0147736D01*
X0209566Y0147350D01*
X0209524Y0146966D01*
X0209472Y0146583D01*
X0209410Y0146202D01*
X0209339Y0145822D01*
X0209259Y0145444D01*
X0209170Y0145068D01*
X0209072Y0144694D01*
X0208964Y0144323D01*
X0208847Y0143954D01*
X0208721Y0143589D01*
X0208587Y0143226D01*
X0208443Y0142868D01*
X0208291Y0142512D01*
X0208130Y0142161D01*
X0207960Y0141814D01*
X0207782Y0141470D01*
X0207596Y0141132D01*
X0207402Y0140798D01*
X0207199Y0140469D01*
X0206988Y0140145D01*
X0206769Y0139826D01*
X0206543Y0139513D01*
X0206309Y0139205D01*
X0206067Y0138904D01*
X0205819Y0138608D01*
X0205562Y0138318D01*
X0205299Y0138035D01*
X0205030Y0137758D01*
X0204753Y0137489D01*
X0204470Y0137226D01*
X0204180Y0136969D01*
X0203884Y0136721D01*
X0203583Y0136479D01*
X0203275Y0136245D01*
X0202962Y0136019D01*
X0202643Y0135800D01*
X0202319Y0135589D01*
X0201990Y0135386D01*
X0201656Y0135192D01*
X0201318Y0135006D01*
X0200974Y0134828D01*
X0200627Y0134658D01*
X0200276Y0134497D01*
X0199920Y0134345D01*
X0199562Y0134201D01*
X0199199Y0134067D01*
X0198834Y0133941D01*
X0198465Y0133824D01*
X0198094Y0133716D01*
X0197720Y0133618D01*
X0197344Y0133529D01*
X0196966Y0133449D01*
X0196586Y0133378D01*
X0196205Y0133316D01*
X0195822Y0133264D01*
X0195438Y0133222D01*
X0195052Y0133189D01*
X0194667Y0133165D01*
X0194280Y0133151D01*
X0193894Y0133146D01*
X0193508Y0133151D01*
X0193121Y0133165D01*
X0192736Y0133189D01*
X0192350Y0133222D01*
X0191966Y0133264D01*
X0191583Y0133316D01*
X0191202Y0133378D01*
X0190822Y0133449D01*
X0190444Y0133529D01*
X0190068Y0133618D01*
X0189694Y0133716D01*
X0189323Y0133824D01*
X0188954Y0133941D01*
X0188589Y0134067D01*
X0188226Y0134201D01*
X0187868Y0134345D01*
X0187512Y0134497D01*
X0187161Y0134658D01*
X0186814Y0134828D01*
X0186470Y0135006D01*
X0186132Y0135192D01*
X0185798Y0135386D01*
X0185469Y0135589D01*
X0185145Y0135800D01*
X0184826Y0136019D01*
X0184513Y0136245D01*
X0184205Y0136479D01*
X0183904Y0136721D01*
X0183608Y0136969D01*
X0183318Y0137226D01*
X0183035Y0137489D01*
X0182758Y0137758D01*
X0182489Y0138035D01*
X0182226Y0138318D01*
X0181969Y0138608D01*
X0181721Y0138904D01*
X0181479Y0139205D01*
X0181245Y0139513D01*
X0181019Y0139826D01*
X0180800Y0140145D01*
X0180589Y0140469D01*
X0180386Y0140798D01*
X0180192Y0141132D01*
X0180006Y0141470D01*
X0179828Y0141814D01*
X0179658Y0142161D01*
X0179497Y0142512D01*
X0179345Y0142868D01*
X0179201Y0143226D01*
X0179067Y0143589D01*
X0178941Y0143954D01*
X0178824Y0144323D01*
X0178716Y0144694D01*
X0178618Y0145068D01*
X0178529Y0145444D01*
X0178449Y0145822D01*
X0178378Y0146202D01*
X0178316Y0146583D01*
X0178264Y0146966D01*
X0178222Y0147350D01*
X0178189Y0147736D01*
X0178165Y0148121D01*
X0178151Y0148508D01*
X0178146Y0148894D01*
X0202791Y0127240D02*
X0202791Y0120547D01*
X0214996Y0120547D01*
X0214996Y0127240D01*
X0202791Y0127240D01*
X0202791Y0119740D02*
X0202791Y0113047D01*
X0214996Y0113047D01*
X0214996Y0119740D01*
X0202791Y0119740D01*
X0202791Y0112240D02*
X0202791Y0105547D01*
X0214996Y0105547D01*
X0214996Y0112240D01*
X0202791Y0112240D01*
X0202673Y0104711D02*
X0202673Y0098018D01*
X0214878Y0098018D01*
X0214878Y0104711D01*
X0202673Y0104711D01*
X0201640Y0096118D02*
X0201640Y0061669D01*
X0188648Y0061669D01*
X0188648Y0096118D01*
X0201640Y0096118D01*
X0189262Y0093269D02*
X0189264Y0093352D01*
X0189270Y0093436D01*
X0189280Y0093519D01*
X0189293Y0093601D01*
X0189311Y0093683D01*
X0189333Y0093763D01*
X0189358Y0093843D01*
X0189387Y0093921D01*
X0189419Y0093998D01*
X0189456Y0094074D01*
X0189495Y0094147D01*
X0189539Y0094218D01*
X0189585Y0094288D01*
X0189635Y0094355D01*
X0189688Y0094420D01*
X0189743Y0094482D01*
X0189802Y0094541D01*
X0189864Y0094598D01*
X0189928Y0094651D01*
X0189994Y0094702D01*
X0190063Y0094749D01*
X0190134Y0094793D01*
X0190207Y0094834D01*
X0190282Y0094871D01*
X0190358Y0094904D01*
X0190436Y0094934D01*
X0190516Y0094960D01*
X0190596Y0094983D01*
X0190677Y0095001D01*
X0190760Y0095016D01*
X0190842Y0095027D01*
X0190926Y0095034D01*
X0191009Y0095037D01*
X0191093Y0095036D01*
X0191176Y0095031D01*
X0191259Y0095022D01*
X0191342Y0095009D01*
X0191423Y0094993D01*
X0191504Y0094972D01*
X0191584Y0094948D01*
X0191663Y0094920D01*
X0191740Y0094888D01*
X0191816Y0094853D01*
X0191890Y0094814D01*
X0191962Y0094772D01*
X0192032Y0094726D01*
X0192099Y0094677D01*
X0192165Y0094625D01*
X0192227Y0094570D01*
X0192288Y0094512D01*
X0192345Y0094451D01*
X0192399Y0094388D01*
X0192450Y0094322D01*
X0192499Y0094253D01*
X0192543Y0094183D01*
X0192585Y0094110D01*
X0192623Y0094036D01*
X0192657Y0093960D01*
X0192688Y0093882D01*
X0192715Y0093803D01*
X0192739Y0093723D01*
X0192758Y0093642D01*
X0192774Y0093560D01*
X0192786Y0093477D01*
X0192794Y0093394D01*
X0192798Y0093311D01*
X0192798Y0093227D01*
X0192794Y0093144D01*
X0192786Y0093061D01*
X0192774Y0092978D01*
X0192758Y0092896D01*
X0192739Y0092815D01*
X0192715Y0092735D01*
X0192688Y0092656D01*
X0192657Y0092578D01*
X0192623Y0092502D01*
X0192585Y0092428D01*
X0192543Y0092355D01*
X0192499Y0092285D01*
X0192450Y0092216D01*
X0192399Y0092150D01*
X0192345Y0092087D01*
X0192288Y0092026D01*
X0192227Y0091968D01*
X0192165Y0091913D01*
X0192099Y0091861D01*
X0192032Y0091812D01*
X0191962Y0091766D01*
X0191890Y0091724D01*
X0191816Y0091685D01*
X0191740Y0091650D01*
X0191663Y0091618D01*
X0191584Y0091590D01*
X0191504Y0091566D01*
X0191423Y0091545D01*
X0191342Y0091529D01*
X0191259Y0091516D01*
X0191176Y0091507D01*
X0191093Y0091502D01*
X0191009Y0091501D01*
X0190926Y0091504D01*
X0190842Y0091511D01*
X0190760Y0091522D01*
X0190677Y0091537D01*
X0190596Y0091555D01*
X0190516Y0091578D01*
X0190436Y0091604D01*
X0190358Y0091634D01*
X0190282Y0091667D01*
X0190207Y0091704D01*
X0190134Y0091745D01*
X0190063Y0091789D01*
X0189994Y0091836D01*
X0189928Y0091887D01*
X0189864Y0091940D01*
X0189802Y0091997D01*
X0189743Y0092056D01*
X0189688Y0092118D01*
X0189635Y0092183D01*
X0189585Y0092250D01*
X0189539Y0092320D01*
X0189495Y0092391D01*
X0189456Y0092464D01*
X0189419Y0092540D01*
X0189387Y0092617D01*
X0189358Y0092695D01*
X0189333Y0092775D01*
X0189311Y0092855D01*
X0189293Y0092937D01*
X0189280Y0093019D01*
X0189270Y0093102D01*
X0189264Y0093186D01*
X0189262Y0093269D01*
X0211541Y0080990D02*
X0211541Y0074297D01*
X0223746Y0074297D01*
X0223746Y0080990D01*
X0211541Y0080990D01*
X0216541Y0081797D02*
X0228746Y0081797D01*
X0228746Y0088490D01*
X0216541Y0088490D01*
X0216541Y0081797D01*
X0216541Y0098047D02*
X0216541Y0104740D01*
X0228746Y0104740D01*
X0228746Y0098047D01*
X0216541Y0098047D01*
X0216541Y0113047D02*
X0228746Y0113047D01*
X0228746Y0119740D01*
X0216541Y0119740D01*
X0216541Y0113047D01*
X0188894Y0043894D02*
X0188894Y0033894D01*
X0062644Y0130144D02*
X0062644Y0138894D01*
X0047644Y0138894D02*
X0047644Y0130144D01*
X0032644Y0130144D02*
X0032644Y0138894D01*
X0017644Y0138894D02*
X0017644Y0130144D01*
X0033047Y0206541D02*
X0039740Y0206541D01*
X0039740Y0218746D01*
X0033047Y0218746D01*
X0033047Y0206541D01*
X0040547Y0206541D02*
X0047240Y0206541D01*
X0047240Y0218746D01*
X0040547Y0218746D01*
X0040547Y0206541D01*
X0048047Y0206541D02*
X0048047Y0218746D01*
X0054740Y0218746D01*
X0054740Y0206541D01*
X0048047Y0206541D01*
X0055547Y0206541D02*
X0062240Y0206541D01*
X0062240Y0218746D01*
X0055547Y0218746D01*
X0055547Y0206541D01*
X0063047Y0206541D02*
X0063047Y0218746D01*
X0069740Y0218746D01*
X0069740Y0206541D01*
X0063047Y0206541D01*
X0070547Y0206541D02*
X0070547Y0218746D01*
X0077240Y0218746D01*
X0077240Y0206541D01*
X0070547Y0206541D01*
X0077644Y0220144D02*
X0077644Y0230144D01*
X0074041Y0238047D02*
X0074041Y0244740D01*
X0086246Y0244740D01*
X0086246Y0238047D01*
X0074041Y0238047D01*
X0070144Y0246394D02*
X0070144Y0263894D01*
X0070144Y0246394D02*
X0090144Y0246394D01*
X0090144Y0263894D01*
X0090144Y0246394D02*
X0110144Y0246394D01*
X0110144Y0263894D01*
X0110144Y0246394D02*
X0130144Y0246394D01*
X0130144Y0263894D01*
X0130144Y0246394D02*
X0150144Y0246394D01*
X0150144Y0263894D01*
X0150144Y0246394D02*
X0170144Y0246394D01*
X0170144Y0263894D01*
X0170144Y0263608D02*
X0050144Y0263608D01*
X0050144Y0295104D01*
X0170144Y0295104D01*
X0170144Y0263608D01*
X0175341Y0271295D02*
X0181640Y0271295D01*
X0181640Y0278382D01*
X0178490Y0278382D01*
X0175341Y0281531D01*
X0181640Y0281531D01*
X0178490Y0278382D01*
X0175341Y0278382D01*
X0175341Y0281531D01*
X0175341Y0288618D01*
X0181640Y0288618D01*
X0181640Y0281531D01*
X0181640Y0278382D01*
X0175341Y0278382D02*
X0175341Y0271295D01*
X0180469Y0254026D02*
X0180469Y0251026D01*
X0181969Y0252526D02*
X0178969Y0252526D01*
X0166246Y0244740D02*
X0166246Y0238047D01*
X0154041Y0238047D01*
X0154041Y0244740D01*
X0166246Y0244740D01*
X0146246Y0244740D02*
X0146246Y0238047D01*
X0134041Y0238047D01*
X0134041Y0244740D01*
X0146246Y0244740D01*
X0130990Y0234996D02*
X0124297Y0234996D01*
X0124297Y0222791D01*
X0130990Y0222791D01*
X0130990Y0234996D01*
X0126246Y0238047D02*
X0126246Y0244740D01*
X0114041Y0244740D01*
X0114041Y0238047D01*
X0126246Y0238047D01*
X0123490Y0234996D02*
X0116797Y0234996D01*
X0116797Y0222791D01*
X0123490Y0222791D01*
X0123490Y0234996D01*
X0115990Y0234996D02*
X0115990Y0222791D01*
X0109297Y0222791D01*
X0109297Y0234996D01*
X0115990Y0234996D01*
X0108539Y0235114D02*
X0101846Y0235114D01*
X0101846Y0222909D01*
X0108539Y0222909D01*
X0108539Y0235114D01*
X0106246Y0238047D02*
X0106246Y0244740D01*
X0094041Y0244740D01*
X0094041Y0238047D01*
X0106246Y0238047D01*
X0070144Y0246394D02*
X0050144Y0246394D01*
X0050144Y0263894D01*
X0054041Y0244740D02*
X0054041Y0238047D01*
X0066246Y0238047D01*
X0066246Y0244740D01*
X0054041Y0244740D01*
X0047644Y0230144D02*
X0047644Y0220144D01*
X0062644Y0220144D02*
X0062644Y0230144D01*
X0032644Y0230144D02*
X0032644Y0220144D01*
X0178146Y0252644D02*
X0178151Y0253030D01*
X0178165Y0253417D01*
X0178189Y0253802D01*
X0178222Y0254188D01*
X0178264Y0254572D01*
X0178316Y0254955D01*
X0178378Y0255336D01*
X0178449Y0255716D01*
X0178529Y0256094D01*
X0178618Y0256470D01*
X0178716Y0256844D01*
X0178824Y0257215D01*
X0178941Y0257584D01*
X0179067Y0257949D01*
X0179201Y0258312D01*
X0179345Y0258670D01*
X0179497Y0259026D01*
X0179658Y0259377D01*
X0179828Y0259724D01*
X0180006Y0260068D01*
X0180192Y0260406D01*
X0180386Y0260740D01*
X0180589Y0261069D01*
X0180800Y0261393D01*
X0181019Y0261712D01*
X0181245Y0262025D01*
X0181479Y0262333D01*
X0181721Y0262634D01*
X0181969Y0262930D01*
X0182226Y0263220D01*
X0182489Y0263503D01*
X0182758Y0263780D01*
X0183035Y0264049D01*
X0183318Y0264312D01*
X0183608Y0264569D01*
X0183904Y0264817D01*
X0184205Y0265059D01*
X0184513Y0265293D01*
X0184826Y0265519D01*
X0185145Y0265738D01*
X0185469Y0265949D01*
X0185798Y0266152D01*
X0186132Y0266346D01*
X0186470Y0266532D01*
X0186814Y0266710D01*
X0187161Y0266880D01*
X0187512Y0267041D01*
X0187868Y0267193D01*
X0188226Y0267337D01*
X0188589Y0267471D01*
X0188954Y0267597D01*
X0189323Y0267714D01*
X0189694Y0267822D01*
X0190068Y0267920D01*
X0190444Y0268009D01*
X0190822Y0268089D01*
X0191202Y0268160D01*
X0191583Y0268222D01*
X0191966Y0268274D01*
X0192350Y0268316D01*
X0192736Y0268349D01*
X0193121Y0268373D01*
X0193508Y0268387D01*
X0193894Y0268392D01*
X0194280Y0268387D01*
X0194667Y0268373D01*
X0195052Y0268349D01*
X0195438Y0268316D01*
X0195822Y0268274D01*
X0196205Y0268222D01*
X0196586Y0268160D01*
X0196966Y0268089D01*
X0197344Y0268009D01*
X0197720Y0267920D01*
X0198094Y0267822D01*
X0198465Y0267714D01*
X0198834Y0267597D01*
X0199199Y0267471D01*
X0199562Y0267337D01*
X0199920Y0267193D01*
X0200276Y0267041D01*
X0200627Y0266880D01*
X0200974Y0266710D01*
X0201318Y0266532D01*
X0201656Y0266346D01*
X0201990Y0266152D01*
X0202319Y0265949D01*
X0202643Y0265738D01*
X0202962Y0265519D01*
X0203275Y0265293D01*
X0203583Y0265059D01*
X0203884Y0264817D01*
X0204180Y0264569D01*
X0204470Y0264312D01*
X0204753Y0264049D01*
X0205030Y0263780D01*
X0205299Y0263503D01*
X0205562Y0263220D01*
X0205819Y0262930D01*
X0206067Y0262634D01*
X0206309Y0262333D01*
X0206543Y0262025D01*
X0206769Y0261712D01*
X0206988Y0261393D01*
X0207199Y0261069D01*
X0207402Y0260740D01*
X0207596Y0260406D01*
X0207782Y0260068D01*
X0207960Y0259724D01*
X0208130Y0259377D01*
X0208291Y0259026D01*
X0208443Y0258670D01*
X0208587Y0258312D01*
X0208721Y0257949D01*
X0208847Y0257584D01*
X0208964Y0257215D01*
X0209072Y0256844D01*
X0209170Y0256470D01*
X0209259Y0256094D01*
X0209339Y0255716D01*
X0209410Y0255336D01*
X0209472Y0254955D01*
X0209524Y0254572D01*
X0209566Y0254188D01*
X0209599Y0253802D01*
X0209623Y0253417D01*
X0209637Y0253030D01*
X0209642Y0252644D01*
X0209637Y0252258D01*
X0209623Y0251871D01*
X0209599Y0251486D01*
X0209566Y0251100D01*
X0209524Y0250716D01*
X0209472Y0250333D01*
X0209410Y0249952D01*
X0209339Y0249572D01*
X0209259Y0249194D01*
X0209170Y0248818D01*
X0209072Y0248444D01*
X0208964Y0248073D01*
X0208847Y0247704D01*
X0208721Y0247339D01*
X0208587Y0246976D01*
X0208443Y0246618D01*
X0208291Y0246262D01*
X0208130Y0245911D01*
X0207960Y0245564D01*
X0207782Y0245220D01*
X0207596Y0244882D01*
X0207402Y0244548D01*
X0207199Y0244219D01*
X0206988Y0243895D01*
X0206769Y0243576D01*
X0206543Y0243263D01*
X0206309Y0242955D01*
X0206067Y0242654D01*
X0205819Y0242358D01*
X0205562Y0242068D01*
X0205299Y0241785D01*
X0205030Y0241508D01*
X0204753Y0241239D01*
X0204470Y0240976D01*
X0204180Y0240719D01*
X0203884Y0240471D01*
X0203583Y0240229D01*
X0203275Y0239995D01*
X0202962Y0239769D01*
X0202643Y0239550D01*
X0202319Y0239339D01*
X0201990Y0239136D01*
X0201656Y0238942D01*
X0201318Y0238756D01*
X0200974Y0238578D01*
X0200627Y0238408D01*
X0200276Y0238247D01*
X0199920Y0238095D01*
X0199562Y0237951D01*
X0199199Y0237817D01*
X0198834Y0237691D01*
X0198465Y0237574D01*
X0198094Y0237466D01*
X0197720Y0237368D01*
X0197344Y0237279D01*
X0196966Y0237199D01*
X0196586Y0237128D01*
X0196205Y0237066D01*
X0195822Y0237014D01*
X0195438Y0236972D01*
X0195052Y0236939D01*
X0194667Y0236915D01*
X0194280Y0236901D01*
X0193894Y0236896D01*
X0193508Y0236901D01*
X0193121Y0236915D01*
X0192736Y0236939D01*
X0192350Y0236972D01*
X0191966Y0237014D01*
X0191583Y0237066D01*
X0191202Y0237128D01*
X0190822Y0237199D01*
X0190444Y0237279D01*
X0190068Y0237368D01*
X0189694Y0237466D01*
X0189323Y0237574D01*
X0188954Y0237691D01*
X0188589Y0237817D01*
X0188226Y0237951D01*
X0187868Y0238095D01*
X0187512Y0238247D01*
X0187161Y0238408D01*
X0186814Y0238578D01*
X0186470Y0238756D01*
X0186132Y0238942D01*
X0185798Y0239136D01*
X0185469Y0239339D01*
X0185145Y0239550D01*
X0184826Y0239769D01*
X0184513Y0239995D01*
X0184205Y0240229D01*
X0183904Y0240471D01*
X0183608Y0240719D01*
X0183318Y0240976D01*
X0183035Y0241239D01*
X0182758Y0241508D01*
X0182489Y0241785D01*
X0182226Y0242068D01*
X0181969Y0242358D01*
X0181721Y0242654D01*
X0181479Y0242955D01*
X0181245Y0243263D01*
X0181019Y0243576D01*
X0180800Y0243895D01*
X0180589Y0244219D01*
X0180386Y0244548D01*
X0180192Y0244882D01*
X0180006Y0245220D01*
X0179828Y0245564D01*
X0179658Y0245911D01*
X0179497Y0246262D01*
X0179345Y0246618D01*
X0179201Y0246976D01*
X0179067Y0247339D01*
X0178941Y0247704D01*
X0178824Y0248073D01*
X0178716Y0248444D01*
X0178618Y0248818D01*
X0178529Y0249194D01*
X0178449Y0249572D01*
X0178378Y0249952D01*
X0178316Y0250333D01*
X0178264Y0250716D01*
X0178222Y0251100D01*
X0178189Y0251486D01*
X0178165Y0251871D01*
X0178151Y0252258D01*
X0178146Y0252644D01*
D13*
X0165665Y0257461D02*
X0164947Y0256744D01*
X0162796Y0256744D01*
X0162796Y0261047D01*
X0164947Y0261047D01*
X0165665Y0260330D01*
X0165665Y0257461D01*
X0161061Y0256744D02*
X0161061Y0261047D01*
X0158192Y0261047D02*
X0161061Y0256744D01*
X0158192Y0256744D02*
X0158192Y0261047D01*
X0156457Y0260330D02*
X0155740Y0261047D01*
X0154305Y0261047D01*
X0153588Y0260330D01*
X0153588Y0257461D01*
X0154305Y0256744D01*
X0155740Y0256744D01*
X0156457Y0257461D01*
X0156457Y0258896D01*
X0155022Y0258896D01*
X0145665Y0258178D02*
X0144230Y0256744D01*
X0142796Y0258178D01*
X0142796Y0261047D01*
X0140344Y0261047D02*
X0138192Y0258896D01*
X0141061Y0258896D01*
X0140344Y0261047D02*
X0140344Y0256744D01*
X0136457Y0256744D02*
X0133588Y0256744D01*
X0136457Y0259613D01*
X0136457Y0260330D01*
X0135740Y0261047D01*
X0134305Y0261047D01*
X0133588Y0260330D01*
X0123363Y0261047D02*
X0123363Y0256744D01*
X0120494Y0261047D01*
X0120494Y0256744D01*
X0118759Y0256744D02*
X0115890Y0256744D01*
X0115890Y0261047D01*
X0118759Y0261047D01*
X0117324Y0258896D02*
X0115890Y0258896D01*
X0101061Y0260330D02*
X0100344Y0261047D01*
X0098909Y0261047D01*
X0098192Y0260330D01*
X0098192Y0257461D01*
X0098909Y0256744D01*
X0100344Y0256744D01*
X0101061Y0257461D01*
X0081061Y0257461D02*
X0080344Y0256744D01*
X0078192Y0256744D01*
X0078192Y0261047D01*
X0080344Y0261047D01*
X0081061Y0260330D01*
X0081061Y0259613D01*
X0080344Y0258896D01*
X0078192Y0258896D01*
X0080344Y0258896D02*
X0081061Y0258178D01*
X0081061Y0257461D01*
X0061061Y0256744D02*
X0061061Y0259613D01*
X0059626Y0261047D01*
X0058192Y0259613D01*
X0058192Y0256744D01*
X0058192Y0258896D02*
X0061061Y0258896D01*
X0103192Y0221047D02*
X0103909Y0221765D01*
X0105344Y0220330D01*
X0106061Y0221047D01*
X0118192Y0221047D02*
X0118909Y0221765D01*
X0120344Y0220330D01*
X0121061Y0221047D01*
X0116392Y0203647D02*
X0116392Y0200778D01*
X0114240Y0202930D01*
X0118544Y0202930D01*
X0117826Y0199044D02*
X0118544Y0198326D01*
X0118544Y0196892D01*
X0117826Y0196174D01*
X0114957Y0196174D01*
X0114240Y0196892D01*
X0114240Y0198326D01*
X0114957Y0199044D01*
X0114240Y0194540D02*
X0114240Y0193105D01*
X0114240Y0193822D02*
X0118544Y0193822D01*
X0118544Y0193105D02*
X0118544Y0194540D01*
X0122294Y0173165D02*
X0122294Y0170296D01*
X0122294Y0171730D02*
X0117990Y0171730D01*
X0119425Y0170296D01*
X0122294Y0168561D02*
X0122294Y0165692D01*
X0122294Y0167126D02*
X0117990Y0167126D01*
X0119425Y0165692D01*
X0118707Y0163957D02*
X0121576Y0161088D01*
X0122294Y0161805D01*
X0122294Y0163240D01*
X0121576Y0163957D01*
X0118707Y0163957D01*
X0117990Y0163240D01*
X0117990Y0161805D01*
X0118707Y0161088D01*
X0121576Y0161088D01*
X0125490Y0161805D02*
X0125490Y0163240D01*
X0126207Y0163957D01*
X0129076Y0161088D01*
X0129794Y0161805D01*
X0129794Y0163240D01*
X0129076Y0163957D01*
X0126207Y0163957D01*
X0126925Y0165692D02*
X0125490Y0167126D01*
X0129794Y0167126D01*
X0129794Y0165692D02*
X0129794Y0168561D01*
X0129076Y0170296D02*
X0126207Y0173165D01*
X0129076Y0173165D01*
X0129794Y0172447D01*
X0129794Y0171013D01*
X0129076Y0170296D01*
X0126207Y0170296D01*
X0125490Y0171013D01*
X0125490Y0172447D01*
X0126207Y0173165D01*
X0132990Y0171730D02*
X0134425Y0170296D01*
X0133707Y0168561D02*
X0136576Y0165692D01*
X0137294Y0166409D01*
X0137294Y0167844D01*
X0136576Y0168561D01*
X0133707Y0168561D01*
X0132990Y0167844D01*
X0132990Y0166409D01*
X0133707Y0165692D01*
X0136576Y0165692D01*
X0136576Y0163957D02*
X0133707Y0163957D01*
X0136576Y0161088D01*
X0137294Y0161805D01*
X0137294Y0163240D01*
X0136576Y0163957D01*
X0133707Y0163957D02*
X0132990Y0163240D01*
X0132990Y0161805D01*
X0133707Y0161088D01*
X0136576Y0161088D01*
X0140490Y0161805D02*
X0140490Y0163240D01*
X0141207Y0163957D01*
X0144076Y0161088D01*
X0144794Y0161805D01*
X0144794Y0163240D01*
X0144076Y0163957D01*
X0141207Y0163957D01*
X0141207Y0165692D02*
X0140490Y0166409D01*
X0140490Y0167844D01*
X0141207Y0168561D01*
X0144076Y0165692D01*
X0144794Y0166409D01*
X0144794Y0167844D01*
X0144076Y0168561D01*
X0141207Y0168561D01*
X0141207Y0170296D02*
X0140490Y0171013D01*
X0140490Y0172447D01*
X0141207Y0173165D01*
X0144076Y0170296D01*
X0144794Y0171013D01*
X0144794Y0172447D01*
X0144076Y0173165D01*
X0141207Y0173165D01*
X0141207Y0170296D02*
X0144076Y0170296D01*
X0144076Y0165692D02*
X0141207Y0165692D01*
X0140490Y0161805D02*
X0141207Y0161088D01*
X0144076Y0161088D01*
X0137294Y0170296D02*
X0137294Y0173165D01*
X0137294Y0171730D02*
X0132990Y0171730D01*
X0125490Y0161805D02*
X0126207Y0161088D01*
X0129076Y0161088D01*
X0114794Y0161088D02*
X0114794Y0163957D01*
X0114794Y0162522D02*
X0110490Y0162522D01*
X0111925Y0161088D01*
X0107294Y0161088D02*
X0107294Y0163957D01*
X0107294Y0162522D02*
X0102990Y0162522D01*
X0104425Y0161088D01*
X0099794Y0161088D02*
X0099794Y0163957D01*
X0099794Y0162522D02*
X0095490Y0162522D01*
X0096925Y0161088D01*
X0096925Y0165692D02*
X0095490Y0167126D01*
X0099794Y0167126D01*
X0099794Y0165692D02*
X0099794Y0168561D01*
X0099076Y0170296D02*
X0099794Y0171013D01*
X0099794Y0172447D01*
X0099076Y0173165D01*
X0096207Y0173165D01*
X0099076Y0170296D01*
X0096207Y0170296D01*
X0095490Y0171013D01*
X0095490Y0172447D01*
X0096207Y0173165D01*
X0092294Y0173165D02*
X0092294Y0170296D01*
X0092294Y0171730D02*
X0087990Y0171730D01*
X0089425Y0170296D01*
X0092294Y0168561D02*
X0092294Y0165692D01*
X0092294Y0167126D02*
X0087990Y0167126D01*
X0089425Y0165692D01*
X0092294Y0163957D02*
X0092294Y0161088D01*
X0092294Y0162522D02*
X0087990Y0162522D01*
X0089425Y0161088D01*
X0083544Y0161088D02*
X0080675Y0161088D01*
X0079240Y0162522D01*
X0080675Y0163957D01*
X0083544Y0163957D01*
X0083544Y0165692D02*
X0079240Y0165692D01*
X0079240Y0167844D01*
X0079957Y0168561D01*
X0080675Y0168561D01*
X0081392Y0167844D01*
X0081392Y0165692D01*
X0081392Y0163957D02*
X0081392Y0161088D01*
X0083544Y0155863D02*
X0079240Y0155863D01*
X0079240Y0152994D02*
X0083544Y0155863D01*
X0083544Y0152994D02*
X0079240Y0152994D01*
X0079957Y0151259D02*
X0079240Y0150542D01*
X0079240Y0149107D01*
X0079957Y0148390D01*
X0082826Y0148390D01*
X0083544Y0149107D01*
X0083544Y0150542D01*
X0082826Y0151259D01*
X0079957Y0151259D01*
X0079240Y0143165D02*
X0079240Y0140296D01*
X0083544Y0140296D01*
X0081392Y0140296D02*
X0081392Y0141730D01*
X0079240Y0138561D02*
X0079240Y0135692D01*
X0083544Y0135692D01*
X0082826Y0133957D02*
X0079957Y0133957D01*
X0079240Y0133240D01*
X0079240Y0131805D01*
X0079957Y0131088D01*
X0082826Y0131088D01*
X0083544Y0131805D01*
X0083544Y0133240D01*
X0082826Y0133957D01*
X0081392Y0135692D02*
X0081392Y0137126D01*
X0083544Y0165692D02*
X0083544Y0167844D01*
X0082826Y0168561D01*
X0082109Y0168561D01*
X0081392Y0167844D01*
X0082826Y0170296D02*
X0079957Y0170296D01*
X0079240Y0171013D01*
X0079240Y0172447D01*
X0079957Y0173165D01*
X0082826Y0173165D02*
X0083544Y0172447D01*
X0083544Y0171013D01*
X0082826Y0170296D01*
X0102990Y0171730D02*
X0104425Y0170296D01*
X0103707Y0168561D02*
X0106576Y0165692D01*
X0107294Y0166409D01*
X0107294Y0167844D01*
X0106576Y0168561D01*
X0103707Y0168561D01*
X0102990Y0167844D01*
X0102990Y0166409D01*
X0103707Y0165692D01*
X0106576Y0165692D01*
X0110490Y0166409D02*
X0110490Y0167844D01*
X0111207Y0168561D01*
X0114076Y0165692D01*
X0114794Y0166409D01*
X0114794Y0167844D01*
X0114076Y0168561D01*
X0111207Y0168561D01*
X0111207Y0170296D02*
X0110490Y0171013D01*
X0110490Y0172447D01*
X0111207Y0173165D01*
X0114076Y0170296D01*
X0114794Y0171013D01*
X0114794Y0172447D01*
X0114076Y0173165D01*
X0111207Y0173165D01*
X0111207Y0170296D02*
X0114076Y0170296D01*
X0114076Y0165692D02*
X0111207Y0165692D01*
X0110490Y0166409D01*
X0107294Y0170296D02*
X0107294Y0173165D01*
X0107294Y0171730D02*
X0102990Y0171730D01*
X0106855Y0092297D02*
X0108290Y0092297D01*
X0107572Y0092297D02*
X0107572Y0087994D01*
X0106855Y0087994D02*
X0108290Y0087994D01*
X0109924Y0088711D02*
X0109924Y0091580D01*
X0110642Y0092297D01*
X0112076Y0092297D01*
X0112794Y0091580D01*
X0114528Y0091580D02*
X0115246Y0092297D01*
X0116680Y0092297D01*
X0117397Y0091580D01*
X0117397Y0090863D01*
X0116680Y0090146D01*
X0117397Y0089428D01*
X0117397Y0088711D01*
X0116680Y0087994D01*
X0115246Y0087994D01*
X0114528Y0088711D01*
X0112794Y0088711D02*
X0112076Y0087994D01*
X0110642Y0087994D01*
X0109924Y0088711D01*
X0115963Y0090146D02*
X0116680Y0090146D01*
X0135490Y0082646D02*
X0135490Y0080494D01*
X0139794Y0080494D01*
X0138359Y0080494D02*
X0138359Y0082646D01*
X0137642Y0083363D01*
X0136207Y0083363D01*
X0135490Y0082646D01*
X0136207Y0078759D02*
X0137642Y0078759D01*
X0138359Y0078042D01*
X0138359Y0075890D01*
X0139794Y0075890D02*
X0135490Y0075890D01*
X0135490Y0078042D01*
X0136207Y0078759D01*
X0129076Y0067113D02*
X0126207Y0067113D01*
X0125490Y0066396D01*
X0125490Y0064244D01*
X0129794Y0064244D01*
X0129794Y0066396D01*
X0129076Y0067113D01*
X0127642Y0062509D02*
X0128359Y0061792D01*
X0128359Y0059640D01*
X0129794Y0059640D02*
X0125490Y0059640D01*
X0125490Y0061792D01*
X0126207Y0062509D01*
X0127642Y0062509D01*
X0145915Y0050330D02*
X0145915Y0047461D01*
X0146632Y0046744D01*
X0148066Y0046744D01*
X0148784Y0047461D01*
X0148784Y0050330D01*
X0148066Y0051047D01*
X0146632Y0051047D01*
X0145915Y0050330D01*
X0150519Y0049613D02*
X0150519Y0047461D01*
X0151236Y0046744D01*
X0153388Y0046744D01*
X0153388Y0049613D01*
X0155122Y0049613D02*
X0156557Y0049613D01*
X0155840Y0050330D02*
X0155840Y0047461D01*
X0156557Y0046744D01*
X0158192Y0046744D02*
X0160344Y0046744D01*
X0161061Y0047461D01*
X0161061Y0048896D01*
X0160344Y0049613D01*
X0158192Y0049613D01*
X0158192Y0045309D01*
X0160344Y0041047D02*
X0158192Y0038896D01*
X0161061Y0038896D01*
X0162796Y0038178D02*
X0164230Y0036744D01*
X0165665Y0038178D01*
X0165665Y0041047D01*
X0162796Y0041047D02*
X0162796Y0038178D01*
X0160344Y0036744D02*
X0160344Y0041047D01*
X0156457Y0040330D02*
X0155740Y0041047D01*
X0154305Y0041047D01*
X0153588Y0040330D01*
X0156457Y0040330D02*
X0156457Y0039613D01*
X0153588Y0036744D01*
X0156457Y0036744D01*
X0163513Y0046744D02*
X0165665Y0046744D01*
X0165665Y0049613D01*
X0167400Y0049613D02*
X0168834Y0049613D01*
X0168117Y0050330D02*
X0168117Y0047461D01*
X0168834Y0046744D01*
X0170469Y0046744D02*
X0172621Y0046744D01*
X0173338Y0047461D01*
X0172621Y0048178D01*
X0171186Y0048178D01*
X0170469Y0048896D01*
X0171186Y0049613D01*
X0173338Y0049613D01*
X0174640Y0041047D02*
X0174640Y0038896D01*
X0176074Y0039613D01*
X0176792Y0039613D01*
X0177509Y0038896D01*
X0177509Y0037461D01*
X0176792Y0036744D01*
X0175357Y0036744D01*
X0174640Y0037461D01*
X0174640Y0041047D02*
X0177509Y0041047D01*
X0179244Y0041047D02*
X0179244Y0038178D01*
X0180678Y0036744D01*
X0182113Y0038178D01*
X0182113Y0041047D01*
X0163513Y0046744D02*
X0162796Y0047461D01*
X0162796Y0049613D01*
X0142113Y0040330D02*
X0141396Y0041047D01*
X0139961Y0041047D01*
X0139244Y0040330D01*
X0139244Y0037461D01*
X0139961Y0036744D01*
X0141396Y0036744D01*
X0142113Y0037461D01*
X0137509Y0037461D02*
X0137509Y0040330D01*
X0136792Y0041047D01*
X0135357Y0041047D01*
X0134640Y0040330D01*
X0134640Y0037461D01*
X0135357Y0036744D01*
X0136792Y0036744D01*
X0137509Y0037461D01*
X0124415Y0037461D02*
X0124415Y0040330D01*
X0123697Y0041047D01*
X0121546Y0041047D01*
X0121546Y0036744D01*
X0123697Y0036744D01*
X0124415Y0037461D01*
X0119811Y0036744D02*
X0119811Y0041047D01*
X0116942Y0041047D02*
X0116942Y0036744D01*
X0115207Y0037461D02*
X0115207Y0038896D01*
X0113772Y0038896D01*
X0112338Y0040330D02*
X0112338Y0037461D01*
X0113055Y0036744D01*
X0114490Y0036744D01*
X0115207Y0037461D01*
X0115207Y0040330D02*
X0114490Y0041047D01*
X0113055Y0041047D01*
X0112338Y0040330D01*
X0116942Y0041047D02*
X0119811Y0036744D01*
X0104415Y0041047D02*
X0101546Y0041047D01*
X0101546Y0036744D01*
X0101546Y0038896D02*
X0102980Y0038896D01*
X0099811Y0041047D02*
X0096942Y0041047D01*
X0096942Y0036744D01*
X0095207Y0037461D02*
X0095207Y0040330D01*
X0094490Y0041047D01*
X0093055Y0041047D01*
X0092338Y0040330D01*
X0092338Y0037461D01*
X0093055Y0036744D01*
X0094490Y0036744D01*
X0095207Y0037461D01*
X0096942Y0038896D02*
X0098376Y0038896D01*
X0088251Y0046026D02*
X0088251Y0049613D01*
X0085382Y0049613D02*
X0085382Y0047461D01*
X0086100Y0046744D01*
X0088251Y0046744D01*
X0088251Y0046026D02*
X0087534Y0045309D01*
X0086817Y0045309D01*
X0083647Y0046744D02*
X0083647Y0048896D01*
X0082930Y0049613D01*
X0081496Y0049613D01*
X0081496Y0048178D02*
X0083647Y0048178D01*
X0083647Y0046744D02*
X0081496Y0046744D01*
X0080778Y0047461D01*
X0081496Y0048178D01*
X0079144Y0046744D02*
X0077709Y0046744D01*
X0078426Y0046744D02*
X0078426Y0051047D01*
X0077709Y0051047D01*
X0075974Y0048896D02*
X0075974Y0048178D01*
X0073105Y0048178D01*
X0073105Y0047461D02*
X0073105Y0048896D01*
X0073822Y0049613D01*
X0075257Y0049613D01*
X0075974Y0048896D01*
X0075257Y0046744D02*
X0073822Y0046744D01*
X0073105Y0047461D01*
X0071370Y0046744D02*
X0069936Y0048178D01*
X0070653Y0048178D02*
X0068501Y0048178D01*
X0068501Y0046744D02*
X0068501Y0051047D01*
X0070653Y0051047D01*
X0071370Y0050330D01*
X0071370Y0048896D01*
X0070653Y0048178D01*
X0073055Y0041047D02*
X0072338Y0040330D01*
X0072338Y0037461D01*
X0073055Y0036744D01*
X0074490Y0036744D01*
X0075207Y0037461D01*
X0076942Y0037461D02*
X0076942Y0040330D01*
X0077659Y0041047D01*
X0079094Y0041047D01*
X0079811Y0040330D01*
X0079811Y0037461D01*
X0079094Y0036744D01*
X0077659Y0036744D01*
X0076942Y0037461D01*
X0075207Y0040330D02*
X0074490Y0041047D01*
X0073055Y0041047D01*
X0081546Y0041047D02*
X0081546Y0036744D01*
X0084415Y0036744D02*
X0084415Y0041047D01*
X0082980Y0039613D01*
X0081546Y0041047D01*
X0062113Y0041047D02*
X0062113Y0036744D01*
X0059244Y0041047D01*
X0059244Y0036744D01*
X0057509Y0037461D02*
X0057509Y0040330D01*
X0056792Y0041047D01*
X0055357Y0041047D01*
X0054640Y0040330D01*
X0054640Y0037461D01*
X0055357Y0036744D01*
X0056792Y0036744D01*
X0057509Y0037461D01*
X0191740Y0143055D02*
X0192457Y0142338D01*
X0195326Y0142338D01*
X0196044Y0143055D01*
X0196044Y0144490D01*
X0195326Y0145207D01*
X0196044Y0146942D02*
X0196044Y0149811D01*
X0196044Y0148376D02*
X0191740Y0148376D01*
X0193175Y0146942D01*
X0192457Y0145207D02*
X0191740Y0144490D01*
X0191740Y0143055D01*
X0192457Y0151546D02*
X0191740Y0152263D01*
X0191740Y0153697D01*
X0192457Y0154415D01*
X0193175Y0154415D01*
X0193892Y0153697D01*
X0194609Y0154415D01*
X0195326Y0154415D01*
X0196044Y0153697D01*
X0196044Y0152263D01*
X0195326Y0151546D01*
X0193892Y0152980D02*
X0193892Y0153697D01*
X0218175Y0070529D02*
X0216740Y0069094D01*
X0218175Y0067659D01*
X0221044Y0067659D01*
X0218892Y0067659D02*
X0218892Y0070529D01*
X0218175Y0070529D02*
X0221044Y0070529D01*
X0224957Y0065925D02*
X0224240Y0065207D01*
X0224240Y0063773D01*
X0224957Y0063055D01*
X0225675Y0063055D01*
X0226392Y0063773D01*
X0226392Y0065925D01*
X0227826Y0065925D02*
X0224957Y0065925D01*
X0227826Y0065925D02*
X0228544Y0065207D01*
X0228544Y0063773D01*
X0227826Y0063055D01*
X0228544Y0061321D02*
X0228544Y0058452D01*
X0228544Y0059886D02*
X0224240Y0059886D01*
X0225675Y0058452D01*
X0224957Y0056717D02*
X0227826Y0053848D01*
X0228544Y0054565D01*
X0228544Y0055999D01*
X0227826Y0056717D01*
X0224957Y0056717D01*
X0224240Y0055999D01*
X0224240Y0054565D01*
X0224957Y0053848D01*
X0227826Y0053848D01*
X0228544Y0052113D02*
X0228544Y0049244D01*
X0225675Y0052113D01*
X0224957Y0052113D01*
X0224240Y0051396D01*
X0224240Y0049961D01*
X0224957Y0049244D01*
X0221044Y0049244D02*
X0216740Y0049244D01*
X0216740Y0051396D01*
X0217457Y0052113D01*
X0218892Y0052113D01*
X0219609Y0051396D01*
X0219609Y0049244D01*
X0219609Y0050678D02*
X0221044Y0052113D01*
X0220326Y0053848D02*
X0218892Y0053848D01*
X0218175Y0054565D01*
X0218175Y0055999D01*
X0218892Y0056717D01*
X0219609Y0056717D01*
X0219609Y0053848D01*
X0220326Y0053848D02*
X0221044Y0054565D01*
X0221044Y0055999D01*
X0218175Y0058452D02*
X0221044Y0059886D01*
X0218175Y0061321D01*
X0195326Y0248390D02*
X0192457Y0248390D01*
X0191740Y0249107D01*
X0191740Y0250542D01*
X0192457Y0251259D01*
X0191740Y0252994D02*
X0191740Y0255863D01*
X0192457Y0255863D01*
X0195326Y0252994D01*
X0196044Y0252994D01*
X0195326Y0251259D02*
X0196044Y0250542D01*
X0196044Y0249107D01*
X0195326Y0248390D01*
X0145665Y0258178D02*
X0145665Y0261047D01*
D14*
X0192102Y0183864D02*
X0203126Y0183864D01*
X0205488Y0181502D01*
X0205488Y0170478D01*
X0203126Y0168116D01*
X0192102Y0168116D01*
X0189740Y0170478D01*
X0189740Y0181502D01*
X0192102Y0183864D01*
D15*
X0073349Y0095094D02*
X0072049Y0093894D01*
X0069549Y0091394D01*
X0041049Y0088894D02*
X0041049Y0093894D01*
X0036049Y0093894D01*
X0031049Y0093894D01*
X0031049Y0088894D02*
X0036049Y0088894D01*
X0041049Y0088894D01*
M02*
