G75*
%MOIN*%
%OFA0B0*%
%FSLAX25Y25*%
%IPPOS*%
%LPD*%
%AMOC8*
5,1,8,0,0,1.08239X$1,22.5*
%
%ADD10C,0.00400*%
%ADD11C,0.08661*%
%ADD12OC8,0.08661*%
%ADD13C,0.07677*%
%ADD14C,0.00787*%
%ADD15C,0.28346*%
%ADD16C,0.03562*%
%ADD17C,0.02775*%
%ADD18C,0.02400*%
%ADD19C,0.01200*%
%ADD20C,0.07000*%
D10*
X0001394Y0009268D02*
X0001394Y0288795D01*
X0001396Y0288985D01*
X0001403Y0289175D01*
X0001415Y0289365D01*
X0001431Y0289555D01*
X0001451Y0289744D01*
X0001477Y0289933D01*
X0001506Y0290121D01*
X0001541Y0290308D01*
X0001580Y0290494D01*
X0001623Y0290679D01*
X0001671Y0290864D01*
X0001723Y0291047D01*
X0001779Y0291228D01*
X0001840Y0291408D01*
X0001906Y0291587D01*
X0001975Y0291764D01*
X0002049Y0291940D01*
X0002127Y0292113D01*
X0002210Y0292285D01*
X0002296Y0292454D01*
X0002386Y0292622D01*
X0002481Y0292787D01*
X0002579Y0292950D01*
X0002682Y0293110D01*
X0002788Y0293268D01*
X0002898Y0293423D01*
X0003011Y0293576D01*
X0003129Y0293726D01*
X0003250Y0293872D01*
X0003374Y0294016D01*
X0003502Y0294157D01*
X0003633Y0294295D01*
X0003768Y0294430D01*
X0003906Y0294561D01*
X0004047Y0294689D01*
X0004191Y0294813D01*
X0004337Y0294934D01*
X0004487Y0295052D01*
X0004640Y0295165D01*
X0004795Y0295275D01*
X0004953Y0295381D01*
X0005113Y0295484D01*
X0005276Y0295582D01*
X0005441Y0295677D01*
X0005609Y0295767D01*
X0005778Y0295853D01*
X0005950Y0295936D01*
X0006123Y0296014D01*
X0006299Y0296088D01*
X0006476Y0296157D01*
X0006655Y0296223D01*
X0006835Y0296284D01*
X0007016Y0296340D01*
X0007199Y0296392D01*
X0007384Y0296440D01*
X0007569Y0296483D01*
X0007755Y0296522D01*
X0007942Y0296557D01*
X0008130Y0296586D01*
X0008319Y0296612D01*
X0008508Y0296632D01*
X0008698Y0296648D01*
X0008888Y0296660D01*
X0009078Y0296667D01*
X0009268Y0296669D01*
X0229740Y0296669D01*
X0229930Y0296667D01*
X0230120Y0296660D01*
X0230310Y0296648D01*
X0230500Y0296632D01*
X0230689Y0296612D01*
X0230878Y0296586D01*
X0231066Y0296557D01*
X0231253Y0296522D01*
X0231439Y0296483D01*
X0231624Y0296440D01*
X0231809Y0296392D01*
X0231992Y0296340D01*
X0232173Y0296284D01*
X0232353Y0296223D01*
X0232532Y0296157D01*
X0232709Y0296088D01*
X0232885Y0296014D01*
X0233058Y0295936D01*
X0233230Y0295853D01*
X0233399Y0295767D01*
X0233567Y0295677D01*
X0233732Y0295582D01*
X0233895Y0295484D01*
X0234055Y0295381D01*
X0234213Y0295275D01*
X0234368Y0295165D01*
X0234521Y0295052D01*
X0234671Y0294934D01*
X0234817Y0294813D01*
X0234961Y0294689D01*
X0235102Y0294561D01*
X0235240Y0294430D01*
X0235375Y0294295D01*
X0235506Y0294157D01*
X0235634Y0294016D01*
X0235758Y0293872D01*
X0235879Y0293726D01*
X0235997Y0293576D01*
X0236110Y0293423D01*
X0236220Y0293268D01*
X0236326Y0293110D01*
X0236429Y0292950D01*
X0236527Y0292787D01*
X0236622Y0292622D01*
X0236712Y0292454D01*
X0236798Y0292285D01*
X0236881Y0292113D01*
X0236959Y0291940D01*
X0237033Y0291764D01*
X0237102Y0291587D01*
X0237168Y0291408D01*
X0237229Y0291228D01*
X0237285Y0291047D01*
X0237337Y0290864D01*
X0237385Y0290679D01*
X0237428Y0290494D01*
X0237467Y0290308D01*
X0237502Y0290121D01*
X0237531Y0289933D01*
X0237557Y0289744D01*
X0237577Y0289555D01*
X0237593Y0289365D01*
X0237605Y0289175D01*
X0237612Y0288985D01*
X0237614Y0288795D01*
X0237614Y0009268D01*
X0237612Y0009078D01*
X0237605Y0008888D01*
X0237593Y0008698D01*
X0237577Y0008508D01*
X0237557Y0008319D01*
X0237531Y0008130D01*
X0237502Y0007942D01*
X0237467Y0007755D01*
X0237428Y0007569D01*
X0237385Y0007384D01*
X0237337Y0007199D01*
X0237285Y0007016D01*
X0237229Y0006835D01*
X0237168Y0006655D01*
X0237102Y0006476D01*
X0237033Y0006299D01*
X0236959Y0006123D01*
X0236881Y0005950D01*
X0236798Y0005778D01*
X0236712Y0005609D01*
X0236622Y0005441D01*
X0236527Y0005276D01*
X0236429Y0005113D01*
X0236326Y0004953D01*
X0236220Y0004795D01*
X0236110Y0004640D01*
X0235997Y0004487D01*
X0235879Y0004337D01*
X0235758Y0004191D01*
X0235634Y0004047D01*
X0235506Y0003906D01*
X0235375Y0003768D01*
X0235240Y0003633D01*
X0235102Y0003502D01*
X0234961Y0003374D01*
X0234817Y0003250D01*
X0234671Y0003129D01*
X0234521Y0003011D01*
X0234368Y0002898D01*
X0234213Y0002788D01*
X0234055Y0002682D01*
X0233895Y0002579D01*
X0233732Y0002481D01*
X0233567Y0002386D01*
X0233399Y0002296D01*
X0233230Y0002210D01*
X0233058Y0002127D01*
X0232885Y0002049D01*
X0232709Y0001975D01*
X0232532Y0001906D01*
X0232353Y0001840D01*
X0232173Y0001779D01*
X0231992Y0001723D01*
X0231809Y0001671D01*
X0231624Y0001623D01*
X0231439Y0001580D01*
X0231253Y0001541D01*
X0231066Y0001506D01*
X0230878Y0001477D01*
X0230689Y0001451D01*
X0230500Y0001431D01*
X0230310Y0001415D01*
X0230120Y0001403D01*
X0229930Y0001396D01*
X0229740Y0001394D01*
X0009268Y0001394D01*
X0009078Y0001396D01*
X0008888Y0001403D01*
X0008698Y0001415D01*
X0008508Y0001431D01*
X0008319Y0001451D01*
X0008130Y0001477D01*
X0007942Y0001506D01*
X0007755Y0001541D01*
X0007569Y0001580D01*
X0007384Y0001623D01*
X0007199Y0001671D01*
X0007016Y0001723D01*
X0006835Y0001779D01*
X0006655Y0001840D01*
X0006476Y0001906D01*
X0006299Y0001975D01*
X0006123Y0002049D01*
X0005950Y0002127D01*
X0005778Y0002210D01*
X0005609Y0002296D01*
X0005441Y0002386D01*
X0005276Y0002481D01*
X0005113Y0002579D01*
X0004953Y0002682D01*
X0004795Y0002788D01*
X0004640Y0002898D01*
X0004487Y0003011D01*
X0004337Y0003129D01*
X0004191Y0003250D01*
X0004047Y0003374D01*
X0003906Y0003502D01*
X0003768Y0003633D01*
X0003633Y0003768D01*
X0003502Y0003906D01*
X0003374Y0004047D01*
X0003250Y0004191D01*
X0003129Y0004337D01*
X0003011Y0004487D01*
X0002898Y0004640D01*
X0002788Y0004795D01*
X0002682Y0004953D01*
X0002579Y0005113D01*
X0002481Y0005276D01*
X0002386Y0005441D01*
X0002296Y0005609D01*
X0002210Y0005778D01*
X0002127Y0005950D01*
X0002049Y0006123D01*
X0001975Y0006299D01*
X0001906Y0006476D01*
X0001840Y0006655D01*
X0001779Y0006835D01*
X0001723Y0007016D01*
X0001671Y0007199D01*
X0001623Y0007384D01*
X0001580Y0007569D01*
X0001541Y0007755D01*
X0001506Y0007942D01*
X0001477Y0008130D01*
X0001451Y0008319D01*
X0001431Y0008508D01*
X0001415Y0008698D01*
X0001403Y0008888D01*
X0001396Y0009078D01*
X0001394Y0009268D01*
D11*
X0200783Y0148894D03*
X0187004Y0252644D03*
D12*
X0200783Y0252644D03*
X0187004Y0148894D03*
D13*
X0178894Y0021482D02*
X0178894Y0013805D01*
X0158894Y0013805D02*
X0158894Y0021482D01*
X0138894Y0021482D02*
X0138894Y0013805D01*
X0118894Y0013805D02*
X0118894Y0021482D01*
X0098894Y0021482D02*
X0098894Y0013805D01*
X0078894Y0013805D02*
X0078894Y0021482D01*
X0058894Y0021482D02*
X0058894Y0013805D01*
X0067821Y0067772D02*
X0075498Y0067772D01*
X0075498Y0115016D02*
X0067821Y0115016D01*
X0027467Y0115016D02*
X0019789Y0115016D01*
X0019593Y0091394D02*
X0011915Y0091394D01*
X0019789Y0067772D02*
X0027467Y0067772D01*
X0060144Y0276305D02*
X0060144Y0283982D01*
X0080144Y0283982D02*
X0080144Y0276305D01*
X0100144Y0276305D02*
X0100144Y0283982D01*
X0120144Y0283982D02*
X0120144Y0276305D01*
X0140144Y0276305D02*
X0140144Y0283982D01*
X0160144Y0283982D02*
X0160144Y0276305D01*
D14*
X0003850Y0006507D02*
X0004968Y0004968D01*
X0006507Y0003850D01*
X0008317Y0003262D01*
X0009268Y0003187D01*
X0229740Y0003187D01*
X0230691Y0003262D01*
X0232501Y0003850D01*
X0234040Y0004968D01*
X0235158Y0006507D01*
X0235746Y0008317D01*
X0235820Y0009268D01*
X0235820Y0288795D01*
X0235746Y0289746D01*
X0235158Y0291556D01*
X0234040Y0293095D01*
X0232501Y0294213D01*
X0230691Y0294801D01*
X0229740Y0294876D01*
X0009268Y0294876D01*
X0008317Y0294801D01*
X0006507Y0294213D01*
X0004968Y0293095D01*
X0003850Y0291556D01*
X0003262Y0289746D01*
X0003187Y0288795D01*
X0003187Y0009268D01*
X0003262Y0008317D01*
X0003850Y0006507D01*
X0003724Y0006895D02*
X0054251Y0006895D01*
X0054266Y0006880D02*
X0057269Y0005636D01*
X0060519Y0005636D01*
X0063521Y0006880D01*
X0065819Y0009178D01*
X0067063Y0012180D01*
X0067063Y0023107D01*
X0066724Y0023925D01*
X0066724Y0059400D01*
X0066927Y0059602D01*
X0077123Y0059602D01*
X0080126Y0060846D01*
X0082424Y0063144D01*
X0083667Y0066147D01*
X0083667Y0069397D01*
X0082424Y0072399D01*
X0080126Y0074697D01*
X0077123Y0075941D01*
X0069341Y0075941D01*
X0069768Y0076972D01*
X0069768Y0078315D01*
X0069255Y0079555D01*
X0068305Y0080505D01*
X0067065Y0081018D01*
X0065722Y0081018D01*
X0064482Y0080505D01*
X0064415Y0080437D01*
X0047088Y0080437D01*
X0046061Y0080012D01*
X0036487Y0070437D01*
X0032242Y0070437D01*
X0032072Y0070849D01*
X0030544Y0072377D01*
X0028547Y0073204D01*
X0018709Y0073204D01*
X0016712Y0072377D01*
X0015184Y0070849D01*
X0014357Y0068852D01*
X0014357Y0066691D01*
X0015184Y0064695D01*
X0016712Y0063166D01*
X0018709Y0062339D01*
X0028547Y0062339D01*
X0030544Y0063166D01*
X0032072Y0064695D01*
X0032136Y0064850D01*
X0038199Y0064850D01*
X0039226Y0065275D01*
X0040012Y0066061D01*
X0040012Y0066061D01*
X0048801Y0074850D01*
X0060648Y0074850D01*
X0059586Y0074410D01*
X0054458Y0069282D01*
X0052255Y0067079D01*
X0051063Y0064201D01*
X0051063Y0023925D01*
X0050724Y0023107D01*
X0050724Y0012180D01*
X0051968Y0009178D01*
X0054266Y0006880D01*
X0053465Y0007681D02*
X0003469Y0007681D01*
X0003250Y0008467D02*
X0052679Y0008467D01*
X0051937Y0009253D02*
X0003189Y0009253D01*
X0003187Y0010039D02*
X0051611Y0010039D01*
X0051286Y0010825D02*
X0003187Y0010825D01*
X0003187Y0011611D02*
X0050960Y0011611D01*
X0050724Y0012396D02*
X0003187Y0012396D01*
X0003187Y0013182D02*
X0050724Y0013182D01*
X0050724Y0013968D02*
X0003187Y0013968D01*
X0003187Y0014754D02*
X0050724Y0014754D01*
X0050724Y0015540D02*
X0003187Y0015540D01*
X0003187Y0016326D02*
X0050724Y0016326D01*
X0050724Y0017112D02*
X0003187Y0017112D01*
X0003187Y0017898D02*
X0050724Y0017898D01*
X0050724Y0018684D02*
X0003187Y0018684D01*
X0003187Y0019470D02*
X0050724Y0019470D01*
X0050724Y0020256D02*
X0003187Y0020256D01*
X0003187Y0021042D02*
X0050724Y0021042D01*
X0050724Y0021827D02*
X0003187Y0021827D01*
X0003187Y0022613D02*
X0050724Y0022613D01*
X0050845Y0023399D02*
X0003187Y0023399D01*
X0003187Y0024185D02*
X0051063Y0024185D01*
X0051063Y0024971D02*
X0003187Y0024971D01*
X0003187Y0025757D02*
X0051063Y0025757D01*
X0051063Y0026543D02*
X0003187Y0026543D01*
X0003187Y0027329D02*
X0051063Y0027329D01*
X0051063Y0028115D02*
X0003187Y0028115D01*
X0003187Y0028901D02*
X0051063Y0028901D01*
X0051063Y0029687D02*
X0003187Y0029687D01*
X0003187Y0030472D02*
X0051063Y0030472D01*
X0051063Y0031258D02*
X0003187Y0031258D01*
X0003187Y0032044D02*
X0051063Y0032044D01*
X0051063Y0032830D02*
X0003187Y0032830D01*
X0003187Y0033616D02*
X0051063Y0033616D01*
X0051063Y0034402D02*
X0003187Y0034402D01*
X0003187Y0035188D02*
X0051063Y0035188D01*
X0051063Y0035974D02*
X0003187Y0035974D01*
X0003187Y0036760D02*
X0051063Y0036760D01*
X0051063Y0037546D02*
X0003187Y0037546D01*
X0003187Y0038332D02*
X0051063Y0038332D01*
X0051063Y0039118D02*
X0003187Y0039118D01*
X0003187Y0039903D02*
X0051063Y0039903D01*
X0051063Y0040689D02*
X0003187Y0040689D01*
X0003187Y0041475D02*
X0051063Y0041475D01*
X0051063Y0042261D02*
X0003187Y0042261D01*
X0003187Y0043047D02*
X0051063Y0043047D01*
X0051063Y0043833D02*
X0003187Y0043833D01*
X0003187Y0044619D02*
X0051063Y0044619D01*
X0051063Y0045405D02*
X0003187Y0045405D01*
X0003187Y0046191D02*
X0051063Y0046191D01*
X0051063Y0046977D02*
X0003187Y0046977D01*
X0003187Y0047763D02*
X0051063Y0047763D01*
X0051063Y0048548D02*
X0003187Y0048548D01*
X0003187Y0049334D02*
X0051063Y0049334D01*
X0051063Y0050120D02*
X0003187Y0050120D01*
X0003187Y0050906D02*
X0051063Y0050906D01*
X0051063Y0051692D02*
X0003187Y0051692D01*
X0003187Y0052478D02*
X0051063Y0052478D01*
X0051063Y0053264D02*
X0003187Y0053264D01*
X0003187Y0054050D02*
X0051063Y0054050D01*
X0051063Y0054836D02*
X0003187Y0054836D01*
X0003187Y0055622D02*
X0051063Y0055622D01*
X0051063Y0056408D02*
X0003187Y0056408D01*
X0003187Y0057194D02*
X0051063Y0057194D01*
X0051063Y0057979D02*
X0003187Y0057979D01*
X0003187Y0058765D02*
X0051063Y0058765D01*
X0051063Y0059551D02*
X0003187Y0059551D01*
X0003187Y0060337D02*
X0051063Y0060337D01*
X0051063Y0061123D02*
X0003187Y0061123D01*
X0003187Y0061909D02*
X0051063Y0061909D01*
X0051063Y0062695D02*
X0029405Y0062695D01*
X0030858Y0063481D02*
X0051063Y0063481D01*
X0051090Y0064267D02*
X0031644Y0064267D01*
X0032194Y0070554D02*
X0036603Y0070554D01*
X0037389Y0071340D02*
X0031581Y0071340D01*
X0030795Y0072126D02*
X0038175Y0072126D01*
X0038961Y0072912D02*
X0029252Y0072912D01*
X0018004Y0072912D02*
X0003187Y0072912D01*
X0003187Y0073698D02*
X0039747Y0073698D01*
X0040533Y0074484D02*
X0003187Y0074484D01*
X0003187Y0075270D02*
X0041319Y0075270D01*
X0042105Y0076055D02*
X0003187Y0076055D01*
X0003187Y0076841D02*
X0042890Y0076841D01*
X0043676Y0077627D02*
X0003187Y0077627D01*
X0003187Y0078413D02*
X0044462Y0078413D01*
X0045248Y0079199D02*
X0003187Y0079199D01*
X0003187Y0079985D02*
X0046034Y0079985D01*
X0048434Y0074484D02*
X0059763Y0074484D01*
X0058873Y0073698D02*
X0047649Y0073698D01*
X0046863Y0072912D02*
X0058087Y0072912D01*
X0057302Y0072126D02*
X0046077Y0072126D01*
X0045291Y0071340D02*
X0056516Y0071340D01*
X0055730Y0070554D02*
X0044505Y0070554D01*
X0043719Y0069768D02*
X0054944Y0069768D01*
X0054158Y0068982D02*
X0042933Y0068982D01*
X0042147Y0068196D02*
X0053372Y0068196D01*
X0052586Y0067410D02*
X0041361Y0067410D01*
X0040575Y0066624D02*
X0052067Y0066624D01*
X0051741Y0065839D02*
X0039789Y0065839D01*
X0038689Y0065053D02*
X0051416Y0065053D01*
X0066876Y0059551D02*
X0235820Y0059551D01*
X0235820Y0058765D02*
X0066724Y0058765D01*
X0066724Y0057979D02*
X0235820Y0057979D01*
X0235820Y0057194D02*
X0066724Y0057194D01*
X0066724Y0056408D02*
X0235820Y0056408D01*
X0235820Y0055622D02*
X0066724Y0055622D01*
X0066724Y0054836D02*
X0235820Y0054836D01*
X0235820Y0054050D02*
X0066724Y0054050D01*
X0066724Y0053264D02*
X0235820Y0053264D01*
X0235820Y0052478D02*
X0066724Y0052478D01*
X0066724Y0051692D02*
X0235820Y0051692D01*
X0235820Y0050906D02*
X0066724Y0050906D01*
X0066724Y0050120D02*
X0235820Y0050120D01*
X0235820Y0049334D02*
X0066724Y0049334D01*
X0066724Y0048548D02*
X0235820Y0048548D01*
X0235820Y0047763D02*
X0066724Y0047763D01*
X0066724Y0046977D02*
X0235820Y0046977D01*
X0235820Y0046191D02*
X0066724Y0046191D01*
X0066724Y0045405D02*
X0235820Y0045405D01*
X0235820Y0044619D02*
X0066724Y0044619D01*
X0066724Y0043833D02*
X0235820Y0043833D01*
X0235820Y0043047D02*
X0066724Y0043047D01*
X0066724Y0042261D02*
X0235820Y0042261D01*
X0235820Y0041475D02*
X0066724Y0041475D01*
X0066724Y0040689D02*
X0235820Y0040689D01*
X0235820Y0039903D02*
X0066724Y0039903D01*
X0066724Y0039118D02*
X0235820Y0039118D01*
X0235820Y0038332D02*
X0066724Y0038332D01*
X0066724Y0037546D02*
X0235820Y0037546D01*
X0235820Y0036760D02*
X0066724Y0036760D01*
X0066724Y0035974D02*
X0235820Y0035974D01*
X0235820Y0035188D02*
X0066724Y0035188D01*
X0066724Y0034402D02*
X0235820Y0034402D01*
X0235820Y0033616D02*
X0066724Y0033616D01*
X0066724Y0032830D02*
X0235820Y0032830D01*
X0235820Y0032044D02*
X0066724Y0032044D01*
X0066724Y0031258D02*
X0235820Y0031258D01*
X0235820Y0030472D02*
X0066724Y0030472D01*
X0066724Y0029687D02*
X0235820Y0029687D01*
X0235820Y0028901D02*
X0102332Y0028901D01*
X0103521Y0028408D02*
X0100519Y0029652D01*
X0097269Y0029652D01*
X0094266Y0028408D01*
X0091968Y0026110D01*
X0090724Y0023107D01*
X0090724Y0012180D01*
X0091968Y0009178D01*
X0094266Y0006880D01*
X0097269Y0005636D01*
X0100519Y0005636D01*
X0103521Y0006880D01*
X0105819Y0009178D01*
X0107063Y0012180D01*
X0107063Y0023107D01*
X0105819Y0026110D01*
X0103521Y0028408D01*
X0103814Y0028115D02*
X0235820Y0028115D01*
X0235820Y0027329D02*
X0104600Y0027329D01*
X0105386Y0026543D02*
X0136916Y0026543D01*
X0137813Y0026915D02*
X0135817Y0026088D01*
X0134288Y0024559D01*
X0133461Y0022563D01*
X0133461Y0012725D01*
X0134288Y0010728D01*
X0135817Y0009200D01*
X0137813Y0008373D01*
X0139974Y0008373D01*
X0141971Y0009200D01*
X0143499Y0010728D01*
X0144326Y0012725D01*
X0144326Y0022563D01*
X0143499Y0024559D01*
X0141971Y0026088D01*
X0139974Y0026915D01*
X0137813Y0026915D01*
X0135486Y0025757D02*
X0105965Y0025757D01*
X0106291Y0024971D02*
X0134700Y0024971D01*
X0134133Y0024185D02*
X0106616Y0024185D01*
X0106942Y0023399D02*
X0133808Y0023399D01*
X0133482Y0022613D02*
X0107063Y0022613D01*
X0107063Y0021827D02*
X0133461Y0021827D01*
X0133461Y0021042D02*
X0107063Y0021042D01*
X0107063Y0020256D02*
X0133461Y0020256D01*
X0133461Y0019470D02*
X0107063Y0019470D01*
X0107063Y0018684D02*
X0133461Y0018684D01*
X0133461Y0017898D02*
X0107063Y0017898D01*
X0107063Y0017112D02*
X0133461Y0017112D01*
X0133461Y0016326D02*
X0107063Y0016326D01*
X0107063Y0015540D02*
X0133461Y0015540D01*
X0133461Y0014754D02*
X0107063Y0014754D01*
X0107063Y0013968D02*
X0133461Y0013968D01*
X0133461Y0013182D02*
X0107063Y0013182D01*
X0107063Y0012396D02*
X0133597Y0012396D01*
X0133923Y0011611D02*
X0106827Y0011611D01*
X0106502Y0010825D02*
X0134248Y0010825D01*
X0134978Y0010039D02*
X0106176Y0010039D01*
X0105850Y0009253D02*
X0135764Y0009253D01*
X0137586Y0008467D02*
X0105109Y0008467D01*
X0104323Y0007681D02*
X0235539Y0007681D01*
X0235757Y0008467D02*
X0180201Y0008467D01*
X0179974Y0008373D02*
X0181971Y0009200D01*
X0183499Y0010728D01*
X0184326Y0012725D01*
X0184326Y0022563D01*
X0183499Y0024559D01*
X0181971Y0026088D01*
X0179974Y0026915D01*
X0177813Y0026915D01*
X0175817Y0026088D01*
X0174288Y0024559D01*
X0173461Y0022563D01*
X0173461Y0012725D01*
X0174288Y0010728D01*
X0175817Y0009200D01*
X0177813Y0008373D01*
X0179974Y0008373D01*
X0182024Y0009253D02*
X0235819Y0009253D01*
X0235820Y0010039D02*
X0182810Y0010039D01*
X0183539Y0010825D02*
X0235820Y0010825D01*
X0235820Y0011611D02*
X0183865Y0011611D01*
X0184190Y0012396D02*
X0235820Y0012396D01*
X0235820Y0013182D02*
X0184326Y0013182D01*
X0184326Y0013968D02*
X0235820Y0013968D01*
X0235820Y0014754D02*
X0184326Y0014754D01*
X0184326Y0015540D02*
X0235820Y0015540D01*
X0235820Y0016326D02*
X0184326Y0016326D01*
X0184326Y0017112D02*
X0235820Y0017112D01*
X0235820Y0017898D02*
X0184326Y0017898D01*
X0184326Y0018684D02*
X0235820Y0018684D01*
X0235820Y0019470D02*
X0184326Y0019470D01*
X0184326Y0020256D02*
X0235820Y0020256D01*
X0235820Y0021042D02*
X0184326Y0021042D01*
X0184326Y0021827D02*
X0235820Y0021827D01*
X0235820Y0022613D02*
X0184305Y0022613D01*
X0183980Y0023399D02*
X0235820Y0023399D01*
X0235820Y0024185D02*
X0183654Y0024185D01*
X0183087Y0024971D02*
X0235820Y0024971D01*
X0235820Y0025757D02*
X0182301Y0025757D01*
X0180871Y0026543D02*
X0235820Y0026543D01*
X0235284Y0006895D02*
X0103537Y0006895D01*
X0101661Y0006109D02*
X0234869Y0006109D01*
X0234298Y0005323D02*
X0004710Y0005323D01*
X0004139Y0006109D02*
X0056126Y0006109D01*
X0061661Y0006109D02*
X0076126Y0006109D01*
X0077269Y0005636D02*
X0074266Y0006880D01*
X0071968Y0009178D01*
X0070724Y0012180D01*
X0070724Y0023107D01*
X0071968Y0026110D01*
X0074266Y0028408D01*
X0077269Y0029652D01*
X0080519Y0029652D01*
X0083521Y0028408D01*
X0085819Y0026110D01*
X0087063Y0023107D01*
X0087063Y0012180D01*
X0085819Y0009178D01*
X0083521Y0006880D01*
X0080519Y0005636D01*
X0077269Y0005636D01*
X0074251Y0006895D02*
X0063537Y0006895D01*
X0064323Y0007681D02*
X0073465Y0007681D01*
X0072679Y0008467D02*
X0065109Y0008467D01*
X0065850Y0009253D02*
X0071937Y0009253D01*
X0071611Y0010039D02*
X0066176Y0010039D01*
X0066502Y0010825D02*
X0071286Y0010825D01*
X0070960Y0011611D02*
X0066827Y0011611D01*
X0067063Y0012396D02*
X0070724Y0012396D01*
X0070724Y0013182D02*
X0067063Y0013182D01*
X0067063Y0013968D02*
X0070724Y0013968D01*
X0070724Y0014754D02*
X0067063Y0014754D01*
X0067063Y0015540D02*
X0070724Y0015540D01*
X0070724Y0016326D02*
X0067063Y0016326D01*
X0067063Y0017112D02*
X0070724Y0017112D01*
X0070724Y0017898D02*
X0067063Y0017898D01*
X0067063Y0018684D02*
X0070724Y0018684D01*
X0070724Y0019470D02*
X0067063Y0019470D01*
X0067063Y0020256D02*
X0070724Y0020256D01*
X0070724Y0021042D02*
X0067063Y0021042D01*
X0067063Y0021827D02*
X0070724Y0021827D01*
X0070724Y0022613D02*
X0067063Y0022613D01*
X0066942Y0023399D02*
X0070845Y0023399D01*
X0071171Y0024185D02*
X0066724Y0024185D01*
X0066724Y0024971D02*
X0071496Y0024971D01*
X0071822Y0025757D02*
X0066724Y0025757D01*
X0066724Y0026543D02*
X0072401Y0026543D01*
X0073187Y0027329D02*
X0066724Y0027329D01*
X0066724Y0028115D02*
X0073973Y0028115D01*
X0075456Y0028901D02*
X0066724Y0028901D01*
X0082332Y0028901D02*
X0095456Y0028901D01*
X0093973Y0028115D02*
X0083814Y0028115D01*
X0084600Y0027329D02*
X0093187Y0027329D01*
X0092401Y0026543D02*
X0085386Y0026543D01*
X0085965Y0025757D02*
X0091822Y0025757D01*
X0091496Y0024971D02*
X0086291Y0024971D01*
X0086616Y0024185D02*
X0091171Y0024185D01*
X0090845Y0023399D02*
X0086942Y0023399D01*
X0087063Y0022613D02*
X0090724Y0022613D01*
X0090724Y0021827D02*
X0087063Y0021827D01*
X0087063Y0021042D02*
X0090724Y0021042D01*
X0090724Y0020256D02*
X0087063Y0020256D01*
X0087063Y0019470D02*
X0090724Y0019470D01*
X0090724Y0018684D02*
X0087063Y0018684D01*
X0087063Y0017898D02*
X0090724Y0017898D01*
X0090724Y0017112D02*
X0087063Y0017112D01*
X0087063Y0016326D02*
X0090724Y0016326D01*
X0090724Y0015540D02*
X0087063Y0015540D01*
X0087063Y0014754D02*
X0090724Y0014754D01*
X0090724Y0013968D02*
X0087063Y0013968D01*
X0087063Y0013182D02*
X0090724Y0013182D01*
X0090724Y0012396D02*
X0087063Y0012396D01*
X0086827Y0011611D02*
X0090960Y0011611D01*
X0091286Y0010825D02*
X0086502Y0010825D01*
X0086176Y0010039D02*
X0091611Y0010039D01*
X0091937Y0009253D02*
X0085850Y0009253D01*
X0085109Y0008467D02*
X0092679Y0008467D01*
X0093465Y0007681D02*
X0084323Y0007681D01*
X0083537Y0006895D02*
X0094251Y0006895D01*
X0096126Y0006109D02*
X0081661Y0006109D01*
X0078897Y0060337D02*
X0235820Y0060337D01*
X0235820Y0061123D02*
X0080403Y0061123D01*
X0081188Y0061909D02*
X0235820Y0061909D01*
X0235820Y0062695D02*
X0081974Y0062695D01*
X0082563Y0063481D02*
X0235820Y0063481D01*
X0235820Y0064267D02*
X0082889Y0064267D01*
X0083214Y0065053D02*
X0089212Y0065053D01*
X0089482Y0064783D02*
X0090722Y0064269D01*
X0092065Y0064269D01*
X0093305Y0064783D01*
X0094255Y0065732D01*
X0094768Y0066972D01*
X0094768Y0068315D01*
X0094255Y0069555D01*
X0094187Y0069623D01*
X0094187Y0083165D01*
X0094255Y0083232D01*
X0094768Y0084472D01*
X0094768Y0085815D01*
X0094255Y0087055D01*
X0093305Y0088005D01*
X0092065Y0088518D01*
X0090722Y0088518D01*
X0089482Y0088005D01*
X0088533Y0087055D01*
X0088019Y0085815D01*
X0088019Y0084472D01*
X0088533Y0083232D01*
X0088600Y0083165D01*
X0088600Y0069623D01*
X0088533Y0069555D01*
X0088019Y0068315D01*
X0088019Y0066972D01*
X0088533Y0065732D01*
X0089482Y0064783D01*
X0088489Y0065839D02*
X0083540Y0065839D01*
X0083667Y0066624D02*
X0088163Y0066624D01*
X0088019Y0067410D02*
X0083667Y0067410D01*
X0083667Y0068196D02*
X0088019Y0068196D01*
X0088295Y0068982D02*
X0083667Y0068982D01*
X0083513Y0069768D02*
X0088600Y0069768D01*
X0088600Y0070554D02*
X0083188Y0070554D01*
X0082862Y0071340D02*
X0088600Y0071340D01*
X0088600Y0072126D02*
X0082537Y0072126D01*
X0081911Y0072912D02*
X0088600Y0072912D01*
X0088600Y0073698D02*
X0081125Y0073698D01*
X0080339Y0074484D02*
X0088600Y0074484D01*
X0088600Y0075270D02*
X0078744Y0075270D01*
X0069714Y0076841D02*
X0088600Y0076841D01*
X0088600Y0076055D02*
X0069389Y0076055D01*
X0069768Y0077627D02*
X0088600Y0077627D01*
X0088600Y0078413D02*
X0069728Y0078413D01*
X0069402Y0079199D02*
X0088600Y0079199D01*
X0088600Y0079985D02*
X0068825Y0079985D01*
X0067663Y0080771D02*
X0088600Y0080771D01*
X0088600Y0081557D02*
X0003187Y0081557D01*
X0003187Y0082343D02*
X0088600Y0082343D01*
X0088600Y0083129D02*
X0003187Y0083129D01*
X0003187Y0083915D02*
X0008624Y0083915D01*
X0007288Y0084468D02*
X0010290Y0083224D01*
X0021217Y0083224D01*
X0024220Y0084468D01*
X0026518Y0086766D01*
X0027762Y0089769D01*
X0027762Y0093019D01*
X0026518Y0096021D01*
X0024220Y0098319D01*
X0021217Y0099563D01*
X0010290Y0099563D01*
X0007288Y0098319D01*
X0004990Y0096021D01*
X0003746Y0093019D01*
X0003746Y0089769D01*
X0004990Y0086766D01*
X0007288Y0084468D01*
X0007055Y0084700D02*
X0003187Y0084700D01*
X0003187Y0085486D02*
X0006270Y0085486D01*
X0005484Y0086272D02*
X0003187Y0086272D01*
X0003187Y0087058D02*
X0004869Y0087058D01*
X0004543Y0087844D02*
X0003187Y0087844D01*
X0003187Y0088630D02*
X0004218Y0088630D01*
X0003892Y0089416D02*
X0003187Y0089416D01*
X0003187Y0090202D02*
X0003746Y0090202D01*
X0003746Y0090988D02*
X0003187Y0090988D01*
X0003187Y0091774D02*
X0003746Y0091774D01*
X0003746Y0092560D02*
X0003187Y0092560D01*
X0003187Y0093346D02*
X0003881Y0093346D01*
X0004207Y0094131D02*
X0003187Y0094131D01*
X0003187Y0094917D02*
X0004533Y0094917D01*
X0004858Y0095703D02*
X0003187Y0095703D01*
X0003187Y0096489D02*
X0005458Y0096489D01*
X0006244Y0097275D02*
X0003187Y0097275D01*
X0003187Y0098061D02*
X0007030Y0098061D01*
X0008562Y0098847D02*
X0003187Y0098847D01*
X0003187Y0099633D02*
X0159850Y0099633D01*
X0159850Y0100419D02*
X0003187Y0100419D01*
X0003187Y0101205D02*
X0159850Y0101205D01*
X0159850Y0101991D02*
X0003187Y0101991D01*
X0003187Y0102776D02*
X0159850Y0102776D01*
X0159850Y0103562D02*
X0003187Y0103562D01*
X0003187Y0104348D02*
X0159850Y0104348D01*
X0159850Y0105134D02*
X0003187Y0105134D01*
X0003187Y0105920D02*
X0159850Y0105920D01*
X0159850Y0106706D02*
X0003187Y0106706D01*
X0003187Y0107492D02*
X0064638Y0107492D01*
X0063193Y0108090D02*
X0066196Y0106846D01*
X0077123Y0106846D01*
X0080126Y0108090D01*
X0082424Y0110388D01*
X0083667Y0113391D01*
X0083667Y0116641D01*
X0082424Y0119643D01*
X0080126Y0121941D01*
X0077123Y0123185D01*
X0066196Y0123185D01*
X0063193Y0121941D01*
X0060895Y0119643D01*
X0059652Y0116641D01*
X0059652Y0113391D01*
X0060895Y0110388D01*
X0063193Y0108090D01*
X0063006Y0108278D02*
X0003187Y0108278D01*
X0003187Y0109064D02*
X0062220Y0109064D01*
X0061434Y0109850D02*
X0029190Y0109850D01*
X0028547Y0109583D02*
X0030544Y0110410D01*
X0032072Y0111939D01*
X0032899Y0113935D01*
X0032899Y0116096D01*
X0032072Y0118093D01*
X0030544Y0119621D01*
X0028547Y0120448D01*
X0018709Y0120448D01*
X0016712Y0119621D01*
X0015184Y0118093D01*
X0014357Y0116096D01*
X0014357Y0113935D01*
X0015184Y0111939D01*
X0016712Y0110410D01*
X0018709Y0109583D01*
X0028547Y0109583D01*
X0030769Y0110636D02*
X0060793Y0110636D01*
X0060467Y0111422D02*
X0031555Y0111422D01*
X0032183Y0112207D02*
X0060142Y0112207D01*
X0059816Y0112993D02*
X0032509Y0112993D01*
X0032834Y0113779D02*
X0059652Y0113779D01*
X0059652Y0114565D02*
X0032899Y0114565D01*
X0032899Y0115351D02*
X0059652Y0115351D01*
X0059652Y0116137D02*
X0032882Y0116137D01*
X0032556Y0116923D02*
X0059768Y0116923D01*
X0060094Y0117709D02*
X0032231Y0117709D01*
X0031670Y0118495D02*
X0060420Y0118495D01*
X0060745Y0119281D02*
X0030884Y0119281D01*
X0029468Y0120067D02*
X0061319Y0120067D01*
X0062104Y0120852D02*
X0003187Y0120852D01*
X0003187Y0120067D02*
X0017788Y0120067D01*
X0016372Y0119281D02*
X0003187Y0119281D01*
X0003187Y0118495D02*
X0015586Y0118495D01*
X0015025Y0117709D02*
X0003187Y0117709D01*
X0003187Y0116923D02*
X0014699Y0116923D01*
X0014374Y0116137D02*
X0003187Y0116137D01*
X0003187Y0115351D02*
X0014357Y0115351D01*
X0014357Y0114565D02*
X0003187Y0114565D01*
X0003187Y0113779D02*
X0014422Y0113779D01*
X0014747Y0112993D02*
X0003187Y0112993D01*
X0003187Y0112207D02*
X0015073Y0112207D01*
X0015701Y0111422D02*
X0003187Y0111422D01*
X0003187Y0110636D02*
X0016487Y0110636D01*
X0018066Y0109850D02*
X0003187Y0109850D01*
X0003187Y0121638D02*
X0062890Y0121638D01*
X0064359Y0122424D02*
X0003187Y0122424D01*
X0003187Y0123210D02*
X0141511Y0123210D01*
X0141972Y0123019D02*
X0143315Y0123019D01*
X0144555Y0123533D01*
X0144623Y0123600D01*
X0145077Y0123600D01*
X0144783Y0123305D01*
X0144269Y0122065D01*
X0144269Y0120722D01*
X0144783Y0119482D01*
X0145732Y0118533D01*
X0146972Y0118019D01*
X0148315Y0118019D01*
X0149555Y0118533D01*
X0149623Y0118600D01*
X0160077Y0118600D01*
X0159783Y0118305D01*
X0159269Y0117065D01*
X0159269Y0115722D01*
X0159783Y0114482D01*
X0159850Y0114415D01*
X0159850Y0097551D01*
X0159568Y0097268D01*
X0159472Y0097268D01*
X0158232Y0096755D01*
X0157283Y0095805D01*
X0156769Y0094565D01*
X0156769Y0093222D01*
X0157283Y0091982D01*
X0158232Y0091033D01*
X0159472Y0090519D01*
X0160815Y0090519D01*
X0162055Y0091033D01*
X0163005Y0091982D01*
X0163518Y0093222D01*
X0163518Y0093318D01*
X0164226Y0094025D01*
X0165012Y0094811D01*
X0165437Y0095838D01*
X0165437Y0114415D01*
X0165505Y0114482D01*
X0166018Y0115722D01*
X0166018Y0117065D01*
X0165505Y0118305D01*
X0165210Y0118600D01*
X0165665Y0118600D01*
X0165732Y0118533D01*
X0166972Y0118019D01*
X0168315Y0118019D01*
X0169555Y0118533D01*
X0170505Y0119482D01*
X0171018Y0120722D01*
X0171018Y0122065D01*
X0170505Y0123305D01*
X0169555Y0124255D01*
X0168315Y0124768D01*
X0166972Y0124768D01*
X0165732Y0124255D01*
X0165665Y0124187D01*
X0165210Y0124187D01*
X0165505Y0124482D01*
X0166018Y0125722D01*
X0166018Y0127065D01*
X0165505Y0128305D01*
X0164555Y0129255D01*
X0163315Y0129768D01*
X0161972Y0129768D01*
X0160732Y0129255D01*
X0160665Y0129187D01*
X0144623Y0129187D01*
X0144555Y0129255D01*
X0143315Y0129768D01*
X0141972Y0129768D01*
X0140732Y0129255D01*
X0139783Y0128305D01*
X0139269Y0127065D01*
X0139269Y0125722D01*
X0139783Y0124482D01*
X0140732Y0123533D01*
X0141972Y0123019D01*
X0143777Y0123210D02*
X0144743Y0123210D01*
X0144418Y0122424D02*
X0078960Y0122424D01*
X0080429Y0121638D02*
X0144269Y0121638D01*
X0144269Y0120852D02*
X0081214Y0120852D01*
X0082000Y0120067D02*
X0144541Y0120067D01*
X0144984Y0119281D02*
X0082574Y0119281D01*
X0082899Y0118495D02*
X0145824Y0118495D01*
X0149464Y0118495D02*
X0159972Y0118495D01*
X0159536Y0117709D02*
X0083225Y0117709D01*
X0083550Y0116923D02*
X0159269Y0116923D01*
X0159269Y0116137D02*
X0083667Y0116137D01*
X0083667Y0115351D02*
X0159423Y0115351D01*
X0159748Y0114565D02*
X0083667Y0114565D01*
X0083667Y0113779D02*
X0159850Y0113779D01*
X0159850Y0112993D02*
X0083503Y0112993D01*
X0083177Y0112207D02*
X0159850Y0112207D01*
X0159850Y0111422D02*
X0082852Y0111422D01*
X0082526Y0110636D02*
X0159850Y0110636D01*
X0159850Y0109850D02*
X0081885Y0109850D01*
X0081099Y0109064D02*
X0159850Y0109064D01*
X0159850Y0108278D02*
X0080313Y0108278D01*
X0078681Y0107492D02*
X0159850Y0107492D01*
X0165437Y0107492D02*
X0235820Y0107492D01*
X0235820Y0108278D02*
X0165437Y0108278D01*
X0165437Y0109064D02*
X0235820Y0109064D01*
X0235820Y0109850D02*
X0201188Y0109850D01*
X0200737Y0109663D02*
X0201832Y0110116D01*
X0202166Y0110450D01*
X0204802Y0110450D01*
X0211515Y0117163D01*
X0211987Y0117163D01*
X0213082Y0117616D01*
X0213921Y0118455D01*
X0214375Y0119551D01*
X0214375Y0120737D01*
X0213921Y0121832D01*
X0213082Y0122671D01*
X0211987Y0123125D01*
X0210801Y0123125D01*
X0209705Y0122671D01*
X0208866Y0121832D01*
X0208413Y0120737D01*
X0208413Y0120265D01*
X0202985Y0114837D01*
X0202166Y0114837D01*
X0201832Y0115171D01*
X0200737Y0115625D01*
X0199551Y0115625D01*
X0198455Y0115171D01*
X0197616Y0114332D01*
X0197163Y0113237D01*
X0197163Y0112051D01*
X0197616Y0110955D01*
X0198455Y0110116D01*
X0199551Y0109663D01*
X0200737Y0109663D01*
X0199099Y0109850D02*
X0165437Y0109850D01*
X0165437Y0110636D02*
X0197936Y0110636D01*
X0197423Y0111422D02*
X0165437Y0111422D01*
X0165437Y0112207D02*
X0197163Y0112207D01*
X0197163Y0112993D02*
X0165437Y0112993D01*
X0165437Y0113779D02*
X0197387Y0113779D01*
X0197849Y0114565D02*
X0165539Y0114565D01*
X0165865Y0115351D02*
X0198890Y0115351D01*
X0201398Y0115351D02*
X0203499Y0115351D01*
X0204285Y0116137D02*
X0166018Y0116137D01*
X0166018Y0116923D02*
X0205071Y0116923D01*
X0205856Y0117709D02*
X0165752Y0117709D01*
X0165824Y0118495D02*
X0165315Y0118495D01*
X0169464Y0118495D02*
X0206642Y0118495D01*
X0207428Y0119281D02*
X0170303Y0119281D01*
X0170747Y0120067D02*
X0208214Y0120067D01*
X0208461Y0120852D02*
X0171018Y0120852D01*
X0171018Y0121638D02*
X0208786Y0121638D01*
X0209458Y0122424D02*
X0170870Y0122424D01*
X0170544Y0123210D02*
X0235820Y0123210D01*
X0235820Y0122424D02*
X0213329Y0122424D01*
X0214001Y0121638D02*
X0235820Y0121638D01*
X0235820Y0120852D02*
X0214327Y0120852D01*
X0214375Y0120067D02*
X0235820Y0120067D01*
X0235820Y0119281D02*
X0214263Y0119281D01*
X0213937Y0118495D02*
X0235820Y0118495D01*
X0235820Y0117709D02*
X0213175Y0117709D01*
X0211275Y0116923D02*
X0235820Y0116923D01*
X0235820Y0116137D02*
X0210489Y0116137D01*
X0209703Y0115351D02*
X0235820Y0115351D01*
X0235820Y0114565D02*
X0208918Y0114565D01*
X0208132Y0113779D02*
X0235820Y0113779D01*
X0235820Y0112993D02*
X0207346Y0112993D01*
X0206560Y0112207D02*
X0235820Y0112207D01*
X0235820Y0111422D02*
X0205774Y0111422D01*
X0204988Y0110636D02*
X0235820Y0110636D01*
X0235820Y0106706D02*
X0165437Y0106706D01*
X0165437Y0105920D02*
X0235820Y0105920D01*
X0235820Y0105134D02*
X0165437Y0105134D01*
X0165437Y0104348D02*
X0235820Y0104348D01*
X0235820Y0103562D02*
X0165437Y0103562D01*
X0165437Y0102776D02*
X0235820Y0102776D01*
X0235820Y0101991D02*
X0165437Y0101991D01*
X0165437Y0101205D02*
X0183239Y0101205D01*
X0183455Y0101421D02*
X0182616Y0100582D01*
X0182163Y0099487D01*
X0182163Y0098301D01*
X0182616Y0097205D01*
X0183455Y0096366D01*
X0184551Y0095913D01*
X0185022Y0095913D01*
X0185450Y0095485D01*
X0185450Y0075916D01*
X0185116Y0075582D01*
X0184663Y0074487D01*
X0184663Y0073301D01*
X0185116Y0072205D01*
X0185955Y0071366D01*
X0187051Y0070913D01*
X0188237Y0070913D01*
X0189332Y0071366D01*
X0190171Y0072205D01*
X0190625Y0073301D01*
X0190625Y0074487D01*
X0190171Y0075582D01*
X0189837Y0075916D01*
X0189837Y0097302D01*
X0188552Y0098587D01*
X0188125Y0099015D01*
X0188125Y0099487D01*
X0187671Y0100582D01*
X0186832Y0101421D01*
X0185737Y0101875D01*
X0184551Y0101875D01*
X0183455Y0101421D01*
X0182549Y0100419D02*
X0165437Y0100419D01*
X0165437Y0099633D02*
X0182223Y0099633D01*
X0182163Y0098847D02*
X0165437Y0098847D01*
X0165437Y0098061D02*
X0182262Y0098061D01*
X0182587Y0097275D02*
X0165437Y0097275D01*
X0165437Y0096489D02*
X0183332Y0096489D01*
X0185232Y0095703D02*
X0165382Y0095703D01*
X0165056Y0094917D02*
X0185450Y0094917D01*
X0185450Y0094131D02*
X0164332Y0094131D01*
X0163546Y0093346D02*
X0185450Y0093346D01*
X0185450Y0092560D02*
X0163244Y0092560D01*
X0162796Y0091774D02*
X0185450Y0091774D01*
X0185450Y0090988D02*
X0161947Y0090988D01*
X0158340Y0090988D02*
X0027762Y0090988D01*
X0027762Y0091774D02*
X0157491Y0091774D01*
X0157043Y0092560D02*
X0027762Y0092560D01*
X0027626Y0093346D02*
X0156769Y0093346D01*
X0156769Y0094131D02*
X0027301Y0094131D01*
X0026975Y0094917D02*
X0156915Y0094917D01*
X0157240Y0095703D02*
X0026650Y0095703D01*
X0026050Y0096489D02*
X0157966Y0096489D01*
X0159574Y0097275D02*
X0025264Y0097275D01*
X0024478Y0098061D02*
X0159850Y0098061D01*
X0159850Y0098847D02*
X0022946Y0098847D01*
X0027762Y0090202D02*
X0173530Y0090202D01*
X0173455Y0090171D02*
X0172616Y0089332D01*
X0172163Y0088237D01*
X0172163Y0087051D01*
X0172616Y0085955D01*
X0172950Y0085621D01*
X0172950Y0082166D01*
X0172616Y0081832D01*
X0172163Y0080737D01*
X0172163Y0079551D01*
X0172616Y0078455D01*
X0173455Y0077616D01*
X0174551Y0077163D01*
X0175737Y0077163D01*
X0176832Y0077616D01*
X0177671Y0078455D01*
X0178125Y0079551D01*
X0178125Y0080737D01*
X0177671Y0081832D01*
X0177337Y0082166D01*
X0177337Y0085621D01*
X0177671Y0085955D01*
X0178125Y0087051D01*
X0178125Y0088237D01*
X0177671Y0089332D01*
X0176832Y0090171D01*
X0175737Y0090625D01*
X0174551Y0090625D01*
X0173455Y0090171D01*
X0172700Y0089416D02*
X0027616Y0089416D01*
X0027290Y0088630D02*
X0172326Y0088630D01*
X0172163Y0087844D02*
X0093466Y0087844D01*
X0094252Y0087058D02*
X0172163Y0087058D01*
X0172485Y0086272D02*
X0094579Y0086272D01*
X0094768Y0085486D02*
X0172950Y0085486D01*
X0172950Y0084700D02*
X0094768Y0084700D01*
X0094537Y0083915D02*
X0172950Y0083915D01*
X0172950Y0083129D02*
X0094187Y0083129D01*
X0094187Y0082343D02*
X0172950Y0082343D01*
X0172502Y0081557D02*
X0094187Y0081557D01*
X0094187Y0080771D02*
X0172177Y0080771D01*
X0172163Y0079985D02*
X0094187Y0079985D01*
X0094187Y0079199D02*
X0172308Y0079199D01*
X0172658Y0078413D02*
X0094187Y0078413D01*
X0094187Y0077627D02*
X0173444Y0077627D01*
X0176843Y0077627D02*
X0185450Y0077627D01*
X0185450Y0076841D02*
X0094187Y0076841D01*
X0094187Y0076055D02*
X0185450Y0076055D01*
X0184987Y0075270D02*
X0094187Y0075270D01*
X0094187Y0074484D02*
X0184663Y0074484D01*
X0184663Y0073698D02*
X0094187Y0073698D01*
X0094187Y0072912D02*
X0184824Y0072912D01*
X0185196Y0072126D02*
X0094187Y0072126D01*
X0094187Y0071340D02*
X0186019Y0071340D01*
X0189268Y0071340D02*
X0235820Y0071340D01*
X0235820Y0072126D02*
X0190092Y0072126D01*
X0190464Y0072912D02*
X0191910Y0072912D01*
X0192205Y0072616D02*
X0193301Y0072163D01*
X0194487Y0072163D01*
X0195582Y0072616D01*
X0196421Y0073455D01*
X0196875Y0074551D01*
X0196875Y0075737D01*
X0196421Y0076832D01*
X0196087Y0077166D01*
X0196087Y0080621D01*
X0196421Y0080955D01*
X0196875Y0082051D01*
X0196875Y0083237D01*
X0196421Y0084332D01*
X0195582Y0085171D01*
X0194487Y0085625D01*
X0193301Y0085625D01*
X0192205Y0085171D01*
X0191366Y0084332D01*
X0190913Y0083237D01*
X0190913Y0082051D01*
X0191366Y0080955D01*
X0191700Y0080621D01*
X0191700Y0077166D01*
X0191366Y0076832D01*
X0190913Y0075737D01*
X0190913Y0074551D01*
X0191366Y0073455D01*
X0192205Y0072616D01*
X0191266Y0073698D02*
X0190625Y0073698D01*
X0190625Y0074484D02*
X0190940Y0074484D01*
X0190913Y0075270D02*
X0190301Y0075270D01*
X0189837Y0076055D02*
X0191045Y0076055D01*
X0191375Y0076841D02*
X0189837Y0076841D01*
X0189837Y0077627D02*
X0191700Y0077627D01*
X0191700Y0078413D02*
X0189837Y0078413D01*
X0189837Y0079199D02*
X0191700Y0079199D01*
X0191700Y0079985D02*
X0189837Y0079985D01*
X0189837Y0080771D02*
X0191551Y0080771D01*
X0191117Y0081557D02*
X0189837Y0081557D01*
X0189837Y0082343D02*
X0190913Y0082343D01*
X0190913Y0083129D02*
X0189837Y0083129D01*
X0189837Y0083915D02*
X0191193Y0083915D01*
X0191735Y0084700D02*
X0189837Y0084700D01*
X0189837Y0085486D02*
X0192967Y0085486D01*
X0194821Y0085486D02*
X0235820Y0085486D01*
X0235820Y0084700D02*
X0196053Y0084700D01*
X0196594Y0083915D02*
X0235820Y0083915D01*
X0235820Y0083129D02*
X0196875Y0083129D01*
X0196875Y0082343D02*
X0235820Y0082343D01*
X0235820Y0081557D02*
X0196670Y0081557D01*
X0196237Y0080771D02*
X0235820Y0080771D01*
X0235820Y0079985D02*
X0196087Y0079985D01*
X0196087Y0079199D02*
X0235820Y0079199D01*
X0235820Y0078413D02*
X0196087Y0078413D01*
X0196087Y0077627D02*
X0235820Y0077627D01*
X0235820Y0076841D02*
X0196412Y0076841D01*
X0196743Y0076055D02*
X0235820Y0076055D01*
X0235820Y0075270D02*
X0196875Y0075270D01*
X0196847Y0074484D02*
X0235820Y0074484D01*
X0235820Y0073698D02*
X0196521Y0073698D01*
X0195878Y0072912D02*
X0235820Y0072912D01*
X0235820Y0070554D02*
X0094187Y0070554D01*
X0094187Y0069768D02*
X0235820Y0069768D01*
X0235820Y0068982D02*
X0094492Y0068982D01*
X0094768Y0068196D02*
X0235820Y0068196D01*
X0235820Y0067410D02*
X0094768Y0067410D01*
X0094624Y0066624D02*
X0235820Y0066624D01*
X0235820Y0065839D02*
X0094299Y0065839D01*
X0093575Y0065053D02*
X0235820Y0065053D01*
X0235820Y0086272D02*
X0189837Y0086272D01*
X0189837Y0087058D02*
X0235820Y0087058D01*
X0235820Y0087844D02*
X0189837Y0087844D01*
X0189837Y0088630D02*
X0235820Y0088630D01*
X0235820Y0089416D02*
X0189837Y0089416D01*
X0189837Y0090202D02*
X0235820Y0090202D01*
X0235820Y0090988D02*
X0189837Y0090988D01*
X0189837Y0091774D02*
X0235820Y0091774D01*
X0235820Y0092560D02*
X0189837Y0092560D01*
X0189837Y0093346D02*
X0235820Y0093346D01*
X0235820Y0094131D02*
X0189837Y0094131D01*
X0189837Y0094917D02*
X0235820Y0094917D01*
X0235820Y0095703D02*
X0189837Y0095703D01*
X0189837Y0096489D02*
X0235820Y0096489D01*
X0235820Y0097275D02*
X0189837Y0097275D01*
X0189079Y0098061D02*
X0235820Y0098061D01*
X0235820Y0098847D02*
X0188293Y0098847D01*
X0188064Y0099633D02*
X0235820Y0099633D01*
X0235820Y0100419D02*
X0187739Y0100419D01*
X0187049Y0101205D02*
X0235820Y0101205D01*
X0235820Y0123996D02*
X0169814Y0123996D01*
X0165955Y0125568D02*
X0235820Y0125568D01*
X0235820Y0126354D02*
X0166018Y0126354D01*
X0165988Y0127140D02*
X0235820Y0127140D01*
X0235820Y0127926D02*
X0213392Y0127926D01*
X0213082Y0127616D02*
X0213921Y0128455D01*
X0214375Y0129551D01*
X0214375Y0130737D01*
X0213921Y0131832D01*
X0213082Y0132671D01*
X0211987Y0133125D01*
X0210801Y0133125D01*
X0209705Y0132671D01*
X0208866Y0131832D01*
X0208413Y0130737D01*
X0208413Y0129551D01*
X0208866Y0128455D01*
X0209705Y0127616D01*
X0210801Y0127163D01*
X0211987Y0127163D01*
X0213082Y0127616D01*
X0214027Y0128712D02*
X0235820Y0128712D01*
X0235820Y0129498D02*
X0214353Y0129498D01*
X0214375Y0130283D02*
X0235820Y0130283D01*
X0235820Y0131069D02*
X0214237Y0131069D01*
X0213898Y0131855D02*
X0235820Y0131855D01*
X0235820Y0132641D02*
X0213112Y0132641D01*
X0209675Y0132641D02*
X0003187Y0132641D01*
X0003187Y0131855D02*
X0208889Y0131855D01*
X0208550Y0131069D02*
X0003187Y0131069D01*
X0003187Y0130283D02*
X0208413Y0130283D01*
X0208435Y0129498D02*
X0163969Y0129498D01*
X0165098Y0128712D02*
X0208760Y0128712D01*
X0209396Y0127926D02*
X0165662Y0127926D01*
X0165629Y0124782D02*
X0235820Y0124782D01*
X0235820Y0133427D02*
X0003187Y0133427D01*
X0003187Y0134213D02*
X0235820Y0134213D01*
X0235820Y0134999D02*
X0003187Y0134999D01*
X0003187Y0135785D02*
X0235820Y0135785D01*
X0235820Y0136571D02*
X0003187Y0136571D01*
X0003187Y0137357D02*
X0235820Y0137357D01*
X0235820Y0138143D02*
X0003187Y0138143D01*
X0003187Y0138928D02*
X0235820Y0138928D01*
X0235820Y0139714D02*
X0003187Y0139714D01*
X0003187Y0140500D02*
X0235820Y0140500D01*
X0235820Y0141286D02*
X0003187Y0141286D01*
X0003187Y0142072D02*
X0235820Y0142072D01*
X0235820Y0142858D02*
X0144574Y0142858D01*
X0144332Y0142616D02*
X0145171Y0143455D01*
X0145625Y0144551D01*
X0145625Y0145737D01*
X0145171Y0146832D01*
X0144837Y0147166D01*
X0144837Y0176871D01*
X0145171Y0177205D01*
X0145625Y0178301D01*
X0145625Y0179487D01*
X0145171Y0180582D01*
X0235820Y0180582D01*
X0235820Y0181368D02*
X0144386Y0181368D01*
X0144332Y0181421D02*
X0143237Y0181875D01*
X0142051Y0181875D01*
X0140955Y0181421D01*
X0140769Y0181235D01*
X0140582Y0181421D01*
X0139487Y0181875D01*
X0138301Y0181875D01*
X0137205Y0181421D01*
X0137019Y0181235D01*
X0136832Y0181421D01*
X0135737Y0181875D01*
X0134551Y0181875D01*
X0133455Y0181421D01*
X0132616Y0180582D01*
X0122671Y0180582D01*
X0121832Y0181421D01*
X0120737Y0181875D01*
X0119551Y0181875D01*
X0118455Y0181421D01*
X0117616Y0180582D01*
X0113587Y0180582D01*
X0113587Y0181368D02*
X0118402Y0181368D01*
X0117616Y0180582D02*
X0117163Y0179487D01*
X0117163Y0178301D01*
X0117616Y0177205D01*
X0117950Y0176871D01*
X0117950Y0147166D01*
X0117616Y0146832D01*
X0117163Y0145737D01*
X0117163Y0144551D01*
X0117616Y0143455D01*
X0118455Y0142616D01*
X0119551Y0142163D01*
X0120737Y0142163D01*
X0121832Y0142616D01*
X0122671Y0143455D01*
X0123125Y0144551D01*
X0123125Y0145737D01*
X0122671Y0146832D01*
X0122337Y0147166D01*
X0122337Y0176871D01*
X0122671Y0177205D01*
X0123125Y0178301D01*
X0123125Y0179487D01*
X0122671Y0180582D01*
X0122997Y0179796D02*
X0132291Y0179796D01*
X0132163Y0179487D02*
X0132163Y0179015D01*
X0126735Y0173587D01*
X0125450Y0172302D01*
X0125450Y0147166D01*
X0125116Y0146832D01*
X0124663Y0145737D01*
X0124663Y0144551D01*
X0125116Y0143455D01*
X0125955Y0142616D01*
X0127051Y0142163D01*
X0128237Y0142163D01*
X0129332Y0142616D01*
X0130171Y0143455D01*
X0130625Y0144551D01*
X0130625Y0145737D01*
X0130171Y0146832D01*
X0129837Y0147166D01*
X0129837Y0170485D01*
X0135265Y0175913D01*
X0135737Y0175913D01*
X0136700Y0176312D01*
X0136700Y0159802D01*
X0134235Y0157337D01*
X0132950Y0156052D01*
X0132950Y0147166D01*
X0132616Y0146832D01*
X0132163Y0145737D01*
X0132163Y0144551D01*
X0132616Y0143455D01*
X0133455Y0142616D01*
X0134551Y0142163D01*
X0135737Y0142163D01*
X0136832Y0142616D01*
X0137671Y0143455D01*
X0138125Y0144551D01*
X0138125Y0145737D01*
X0137671Y0146832D01*
X0137337Y0147166D01*
X0137337Y0154235D01*
X0140450Y0157348D01*
X0140450Y0147166D01*
X0140116Y0146832D01*
X0139663Y0145737D01*
X0139663Y0144551D01*
X0140116Y0143455D01*
X0140955Y0142616D01*
X0142051Y0142163D01*
X0143237Y0142163D01*
X0144332Y0142616D01*
X0145249Y0143644D02*
X0197976Y0143644D01*
X0197428Y0143871D02*
X0199605Y0142969D01*
X0201962Y0142969D01*
X0204139Y0143871D01*
X0205806Y0145538D01*
X0206708Y0147715D01*
X0206708Y0150072D01*
X0205806Y0152250D01*
X0204139Y0153916D01*
X0201962Y0154818D01*
X0199605Y0154818D01*
X0197428Y0153916D01*
X0195761Y0152250D01*
X0194859Y0150072D01*
X0194859Y0147715D01*
X0195761Y0145538D01*
X0197428Y0143871D01*
X0196869Y0144430D02*
X0145575Y0144430D01*
X0145625Y0145216D02*
X0196083Y0145216D01*
X0195569Y0146002D02*
X0145515Y0146002D01*
X0145190Y0146788D02*
X0195243Y0146788D01*
X0194918Y0147573D02*
X0144837Y0147573D01*
X0144837Y0148359D02*
X0194859Y0148359D01*
X0194859Y0149145D02*
X0144837Y0149145D01*
X0144837Y0149931D02*
X0194859Y0149931D01*
X0195126Y0150717D02*
X0144837Y0150717D01*
X0144837Y0151503D02*
X0195452Y0151503D01*
X0195800Y0152289D02*
X0144837Y0152289D01*
X0144837Y0153075D02*
X0196586Y0153075D01*
X0197372Y0153861D02*
X0144837Y0153861D01*
X0144837Y0154647D02*
X0199191Y0154647D01*
X0202376Y0154647D02*
X0235820Y0154647D01*
X0235820Y0155433D02*
X0144837Y0155433D01*
X0144837Y0156219D02*
X0235820Y0156219D01*
X0235820Y0157004D02*
X0144837Y0157004D01*
X0144837Y0157790D02*
X0235820Y0157790D01*
X0235820Y0158576D02*
X0144837Y0158576D01*
X0144837Y0159362D02*
X0235820Y0159362D01*
X0235820Y0160148D02*
X0144837Y0160148D01*
X0144837Y0160934D02*
X0235820Y0160934D01*
X0235820Y0161720D02*
X0144837Y0161720D01*
X0144837Y0162506D02*
X0235820Y0162506D01*
X0235820Y0163292D02*
X0144837Y0163292D01*
X0144837Y0164078D02*
X0235820Y0164078D01*
X0235820Y0164864D02*
X0144837Y0164864D01*
X0144837Y0165649D02*
X0235820Y0165649D01*
X0235820Y0166435D02*
X0144837Y0166435D01*
X0144837Y0167221D02*
X0235820Y0167221D01*
X0235820Y0168007D02*
X0144837Y0168007D01*
X0144837Y0168793D02*
X0235820Y0168793D01*
X0235820Y0169579D02*
X0144837Y0169579D01*
X0144837Y0170365D02*
X0235820Y0170365D01*
X0235820Y0171151D02*
X0144837Y0171151D01*
X0144837Y0171937D02*
X0235820Y0171937D01*
X0235820Y0172723D02*
X0144837Y0172723D01*
X0144837Y0173509D02*
X0235820Y0173509D01*
X0235820Y0174295D02*
X0144837Y0174295D01*
X0144837Y0175080D02*
X0235820Y0175080D01*
X0235820Y0175866D02*
X0144837Y0175866D01*
X0144837Y0176652D02*
X0235820Y0176652D01*
X0235820Y0177438D02*
X0145268Y0177438D01*
X0145593Y0178224D02*
X0235820Y0178224D01*
X0235820Y0179010D02*
X0145625Y0179010D01*
X0145497Y0179796D02*
X0235820Y0179796D01*
X0235820Y0182154D02*
X0113587Y0182154D01*
X0113587Y0182940D02*
X0235820Y0182940D01*
X0235820Y0183725D02*
X0113587Y0183725D01*
X0113587Y0184371D02*
X0113921Y0184705D01*
X0114375Y0185801D01*
X0114375Y0186987D01*
X0113921Y0188082D01*
X0113082Y0188921D01*
X0111987Y0189375D01*
X0110801Y0189375D01*
X0109705Y0188921D01*
X0108866Y0188082D01*
X0108413Y0186987D01*
X0108413Y0185801D01*
X0108866Y0184705D01*
X0109200Y0184371D01*
X0109200Y0162985D01*
X0110450Y0161735D01*
X0110450Y0147166D01*
X0110116Y0146832D01*
X0109663Y0145737D01*
X0109663Y0144551D01*
X0110116Y0143455D01*
X0110955Y0142616D01*
X0112051Y0142163D01*
X0113237Y0142163D01*
X0114332Y0142616D01*
X0115171Y0143455D01*
X0115625Y0144551D01*
X0115625Y0145737D01*
X0115171Y0146832D01*
X0114837Y0147166D01*
X0114837Y0163552D01*
X0113587Y0164802D01*
X0113587Y0184371D01*
X0113727Y0184511D02*
X0235820Y0184511D01*
X0235820Y0185297D02*
X0114166Y0185297D01*
X0114375Y0186083D02*
X0235820Y0186083D01*
X0235820Y0186869D02*
X0114375Y0186869D01*
X0114098Y0187655D02*
X0235820Y0187655D01*
X0235820Y0188441D02*
X0113562Y0188441D01*
X0112344Y0189227D02*
X0235820Y0189227D01*
X0235820Y0190013D02*
X0104627Y0190013D01*
X0103841Y0190799D02*
X0235820Y0190799D01*
X0235820Y0191585D02*
X0103125Y0191585D01*
X0103125Y0191515D02*
X0103125Y0191987D01*
X0102671Y0193082D01*
X0101832Y0193921D01*
X0100737Y0194375D01*
X0099551Y0194375D01*
X0098587Y0193976D01*
X0098587Y0194371D01*
X0098921Y0194705D01*
X0099375Y0195801D01*
X0099375Y0196987D01*
X0098921Y0198082D01*
X0098082Y0198921D01*
X0096987Y0199375D01*
X0095801Y0199375D01*
X0094705Y0198921D01*
X0093866Y0198082D01*
X0093413Y0196987D01*
X0093413Y0195801D01*
X0093866Y0194705D01*
X0094200Y0194371D01*
X0094200Y0193976D01*
X0093237Y0194375D01*
X0092051Y0194375D01*
X0090955Y0193921D01*
X0090116Y0193082D01*
X0089663Y0191987D01*
X0089663Y0190801D01*
X0090116Y0189705D01*
X0090450Y0189371D01*
X0090450Y0171087D01*
X0089235Y0171087D01*
X0087950Y0169802D01*
X0087950Y0147166D01*
X0087616Y0146832D01*
X0087163Y0145737D01*
X0087163Y0144551D01*
X0087616Y0143455D01*
X0088455Y0142616D01*
X0089551Y0142163D01*
X0090737Y0142163D01*
X0091832Y0142616D01*
X0092671Y0143455D01*
X0093125Y0144551D01*
X0093125Y0145737D01*
X0092671Y0146832D01*
X0092337Y0147166D01*
X0092337Y0166700D01*
X0093552Y0166700D01*
X0094837Y0167985D01*
X0094837Y0177348D01*
X0095450Y0176735D01*
X0095450Y0147166D01*
X0095116Y0146832D01*
X0094663Y0145737D01*
X0094663Y0144551D01*
X0095116Y0143455D01*
X0095955Y0142616D01*
X0097051Y0142163D01*
X0098237Y0142163D01*
X0099332Y0142616D01*
X0100171Y0143455D01*
X0100625Y0144551D01*
X0100625Y0145737D01*
X0100171Y0146832D01*
X0099837Y0147166D01*
X0099837Y0179802D01*
X0098587Y0181052D01*
X0098587Y0188812D01*
X0099551Y0188413D01*
X0100022Y0188413D01*
X0102950Y0185485D01*
X0102950Y0147166D01*
X0102616Y0146832D01*
X0102163Y0145737D01*
X0102163Y0144551D01*
X0102616Y0143455D01*
X0103455Y0142616D01*
X0104551Y0142163D01*
X0105737Y0142163D01*
X0106832Y0142616D01*
X0107671Y0143455D01*
X0108125Y0144551D01*
X0108125Y0145737D01*
X0107671Y0146832D01*
X0107337Y0147166D01*
X0107337Y0187302D01*
X0103125Y0191515D01*
X0102966Y0192371D02*
X0235820Y0192371D01*
X0235820Y0193156D02*
X0102597Y0193156D01*
X0101781Y0193942D02*
X0235820Y0193942D01*
X0235820Y0194728D02*
X0098931Y0194728D01*
X0099256Y0195514D02*
X0235820Y0195514D01*
X0235820Y0196300D02*
X0099375Y0196300D01*
X0099334Y0197086D02*
X0235820Y0197086D01*
X0235820Y0197872D02*
X0099008Y0197872D01*
X0098345Y0198658D02*
X0235820Y0198658D01*
X0235820Y0199444D02*
X0067487Y0199444D01*
X0067065Y0199269D02*
X0068305Y0199783D01*
X0069255Y0200732D01*
X0069768Y0201972D01*
X0069768Y0203315D01*
X0069255Y0204555D01*
X0068587Y0205223D01*
X0068587Y0231871D01*
X0068921Y0232205D01*
X0069375Y0233301D01*
X0069375Y0234487D01*
X0068921Y0235582D01*
X0068082Y0236421D01*
X0066987Y0236875D01*
X0065801Y0236875D01*
X0064705Y0236421D01*
X0063866Y0235582D01*
X0063413Y0234487D01*
X0063413Y0233301D01*
X0063866Y0232205D01*
X0064200Y0231871D01*
X0064200Y0205223D01*
X0063533Y0204555D01*
X0063019Y0203315D01*
X0063019Y0201972D01*
X0063533Y0200732D01*
X0064482Y0199783D01*
X0065722Y0199269D01*
X0067065Y0199269D01*
X0065300Y0199444D02*
X0052487Y0199444D01*
X0052065Y0199269D02*
X0053305Y0199783D01*
X0054255Y0200732D01*
X0054768Y0201972D01*
X0054768Y0203315D01*
X0054255Y0204555D01*
X0053587Y0205223D01*
X0053587Y0231871D01*
X0053921Y0232205D01*
X0054375Y0233301D01*
X0054375Y0234487D01*
X0053921Y0235582D01*
X0053082Y0236421D01*
X0051987Y0236875D01*
X0050801Y0236875D01*
X0049705Y0236421D01*
X0048866Y0235582D01*
X0048413Y0234487D01*
X0048413Y0233301D01*
X0048866Y0232205D01*
X0049200Y0231871D01*
X0049200Y0205223D01*
X0048533Y0204555D01*
X0048019Y0203315D01*
X0048019Y0201972D01*
X0048533Y0200732D01*
X0049482Y0199783D01*
X0050722Y0199269D01*
X0052065Y0199269D01*
X0050300Y0199444D02*
X0037487Y0199444D01*
X0037065Y0199269D02*
X0038305Y0199783D01*
X0039255Y0200732D01*
X0039768Y0201972D01*
X0039768Y0203315D01*
X0039255Y0204555D01*
X0038587Y0205223D01*
X0038587Y0231871D01*
X0038921Y0232205D01*
X0039375Y0233301D01*
X0039375Y0234487D01*
X0038921Y0235582D01*
X0038082Y0236421D01*
X0036987Y0236875D01*
X0035801Y0236875D01*
X0034705Y0236421D01*
X0033866Y0235582D01*
X0033413Y0234487D01*
X0033413Y0233301D01*
X0033866Y0232205D01*
X0034200Y0231871D01*
X0034200Y0205223D01*
X0033533Y0204555D01*
X0033019Y0203315D01*
X0033019Y0201972D01*
X0033533Y0200732D01*
X0034482Y0199783D01*
X0035722Y0199269D01*
X0037065Y0199269D01*
X0035300Y0199444D02*
X0003187Y0199444D01*
X0003187Y0200230D02*
X0034035Y0200230D01*
X0033415Y0201016D02*
X0003187Y0201016D01*
X0003187Y0201801D02*
X0033090Y0201801D01*
X0033019Y0202587D02*
X0003187Y0202587D01*
X0003187Y0203373D02*
X0033043Y0203373D01*
X0033369Y0204159D02*
X0003187Y0204159D01*
X0003187Y0204945D02*
X0033922Y0204945D01*
X0034200Y0205731D02*
X0003187Y0205731D01*
X0003187Y0206517D02*
X0034200Y0206517D01*
X0034200Y0207303D02*
X0003187Y0207303D01*
X0003187Y0208089D02*
X0034200Y0208089D01*
X0034200Y0208875D02*
X0003187Y0208875D01*
X0003187Y0209661D02*
X0034200Y0209661D01*
X0034200Y0210447D02*
X0003187Y0210447D01*
X0003187Y0211232D02*
X0034200Y0211232D01*
X0034200Y0212018D02*
X0003187Y0212018D01*
X0003187Y0212804D02*
X0034200Y0212804D01*
X0034200Y0213590D02*
X0003187Y0213590D01*
X0003187Y0214376D02*
X0034200Y0214376D01*
X0034200Y0215162D02*
X0003187Y0215162D01*
X0003187Y0215948D02*
X0034200Y0215948D01*
X0034200Y0216734D02*
X0003187Y0216734D01*
X0003187Y0217520D02*
X0034200Y0217520D01*
X0034200Y0218306D02*
X0003187Y0218306D01*
X0003187Y0219092D02*
X0034200Y0219092D01*
X0034200Y0219877D02*
X0003187Y0219877D01*
X0003187Y0220663D02*
X0034200Y0220663D01*
X0034200Y0221449D02*
X0003187Y0221449D01*
X0003187Y0222235D02*
X0034200Y0222235D01*
X0034200Y0223021D02*
X0003187Y0223021D01*
X0003187Y0223807D02*
X0034200Y0223807D01*
X0034200Y0224593D02*
X0003187Y0224593D01*
X0003187Y0225379D02*
X0034200Y0225379D01*
X0034200Y0226165D02*
X0003187Y0226165D01*
X0003187Y0226951D02*
X0034200Y0226951D01*
X0034200Y0227737D02*
X0003187Y0227737D01*
X0003187Y0228523D02*
X0034200Y0228523D01*
X0034200Y0229308D02*
X0003187Y0229308D01*
X0003187Y0230094D02*
X0034200Y0230094D01*
X0034200Y0230880D02*
X0003187Y0230880D01*
X0003187Y0231666D02*
X0034200Y0231666D01*
X0033764Y0232452D02*
X0003187Y0232452D01*
X0003187Y0233238D02*
X0033439Y0233238D01*
X0033413Y0234024D02*
X0003187Y0234024D01*
X0003187Y0234810D02*
X0033546Y0234810D01*
X0033880Y0235596D02*
X0003187Y0235596D01*
X0003187Y0236382D02*
X0034666Y0236382D01*
X0038122Y0236382D02*
X0049666Y0236382D01*
X0048880Y0235596D02*
X0038908Y0235596D01*
X0039241Y0234810D02*
X0048546Y0234810D01*
X0048413Y0234024D02*
X0039375Y0234024D01*
X0039349Y0233238D02*
X0048439Y0233238D01*
X0048764Y0232452D02*
X0039023Y0232452D01*
X0038587Y0231666D02*
X0049200Y0231666D01*
X0049200Y0230880D02*
X0038587Y0230880D01*
X0038587Y0230094D02*
X0049200Y0230094D01*
X0049200Y0229308D02*
X0038587Y0229308D01*
X0038587Y0228523D02*
X0049200Y0228523D01*
X0049200Y0227737D02*
X0038587Y0227737D01*
X0038587Y0226951D02*
X0049200Y0226951D01*
X0049200Y0226165D02*
X0038587Y0226165D01*
X0038587Y0225379D02*
X0049200Y0225379D01*
X0049200Y0224593D02*
X0038587Y0224593D01*
X0038587Y0223807D02*
X0049200Y0223807D01*
X0049200Y0223021D02*
X0038587Y0223021D01*
X0038587Y0222235D02*
X0049200Y0222235D01*
X0049200Y0221449D02*
X0038587Y0221449D01*
X0038587Y0220663D02*
X0049200Y0220663D01*
X0049200Y0219877D02*
X0038587Y0219877D01*
X0038587Y0219092D02*
X0049200Y0219092D01*
X0049200Y0218306D02*
X0038587Y0218306D01*
X0038587Y0217520D02*
X0049200Y0217520D01*
X0049200Y0216734D02*
X0038587Y0216734D01*
X0038587Y0215948D02*
X0049200Y0215948D01*
X0049200Y0215162D02*
X0038587Y0215162D01*
X0038587Y0214376D02*
X0049200Y0214376D01*
X0049200Y0213590D02*
X0038587Y0213590D01*
X0038587Y0212804D02*
X0049200Y0212804D01*
X0049200Y0212018D02*
X0038587Y0212018D01*
X0038587Y0211232D02*
X0049200Y0211232D01*
X0049200Y0210447D02*
X0038587Y0210447D01*
X0038587Y0209661D02*
X0049200Y0209661D01*
X0049200Y0208875D02*
X0038587Y0208875D01*
X0038587Y0208089D02*
X0049200Y0208089D01*
X0049200Y0207303D02*
X0038587Y0207303D01*
X0038587Y0206517D02*
X0049200Y0206517D01*
X0049200Y0205731D02*
X0038587Y0205731D01*
X0038865Y0204945D02*
X0048922Y0204945D01*
X0048369Y0204159D02*
X0039419Y0204159D01*
X0039744Y0203373D02*
X0048043Y0203373D01*
X0048019Y0202587D02*
X0039768Y0202587D01*
X0039698Y0201801D02*
X0048090Y0201801D01*
X0048415Y0201016D02*
X0039372Y0201016D01*
X0038752Y0200230D02*
X0049035Y0200230D01*
X0053752Y0200230D02*
X0064035Y0200230D01*
X0063415Y0201016D02*
X0054372Y0201016D01*
X0054698Y0201801D02*
X0063090Y0201801D01*
X0063019Y0202587D02*
X0054768Y0202587D01*
X0054744Y0203373D02*
X0063043Y0203373D01*
X0063369Y0204159D02*
X0054419Y0204159D01*
X0053865Y0204945D02*
X0063922Y0204945D01*
X0064200Y0205731D02*
X0053587Y0205731D01*
X0053587Y0206517D02*
X0064200Y0206517D01*
X0064200Y0207303D02*
X0053587Y0207303D01*
X0053587Y0208089D02*
X0064200Y0208089D01*
X0064200Y0208875D02*
X0053587Y0208875D01*
X0053587Y0209661D02*
X0064200Y0209661D01*
X0064200Y0210447D02*
X0053587Y0210447D01*
X0053587Y0211232D02*
X0064200Y0211232D01*
X0064200Y0212018D02*
X0053587Y0212018D01*
X0053587Y0212804D02*
X0064200Y0212804D01*
X0064200Y0213590D02*
X0053587Y0213590D01*
X0053587Y0214376D02*
X0064200Y0214376D01*
X0064200Y0215162D02*
X0053587Y0215162D01*
X0053587Y0215948D02*
X0064200Y0215948D01*
X0064200Y0216734D02*
X0053587Y0216734D01*
X0053587Y0217520D02*
X0064200Y0217520D01*
X0064200Y0218306D02*
X0053587Y0218306D01*
X0053587Y0219092D02*
X0064200Y0219092D01*
X0064200Y0219877D02*
X0053587Y0219877D01*
X0053587Y0220663D02*
X0064200Y0220663D01*
X0064200Y0221449D02*
X0053587Y0221449D01*
X0053587Y0222235D02*
X0064200Y0222235D01*
X0064200Y0223021D02*
X0053587Y0223021D01*
X0053587Y0223807D02*
X0064200Y0223807D01*
X0064200Y0224593D02*
X0053587Y0224593D01*
X0053587Y0225379D02*
X0064200Y0225379D01*
X0064200Y0226165D02*
X0053587Y0226165D01*
X0053587Y0226951D02*
X0064200Y0226951D01*
X0064200Y0227737D02*
X0053587Y0227737D01*
X0053587Y0228523D02*
X0064200Y0228523D01*
X0064200Y0229308D02*
X0053587Y0229308D01*
X0053587Y0230094D02*
X0064200Y0230094D01*
X0064200Y0230880D02*
X0053587Y0230880D01*
X0053587Y0231666D02*
X0064200Y0231666D01*
X0063764Y0232452D02*
X0054023Y0232452D01*
X0054349Y0233238D02*
X0063439Y0233238D01*
X0063413Y0234024D02*
X0054375Y0234024D01*
X0054241Y0234810D02*
X0063546Y0234810D01*
X0063880Y0235596D02*
X0053908Y0235596D01*
X0053122Y0236382D02*
X0064666Y0236382D01*
X0068122Y0236382D02*
X0235820Y0236382D01*
X0235820Y0237168D02*
X0003187Y0237168D01*
X0003187Y0237953D02*
X0235820Y0237953D01*
X0235820Y0238739D02*
X0003187Y0238739D01*
X0003187Y0239525D02*
X0235820Y0239525D01*
X0235820Y0240311D02*
X0003187Y0240311D01*
X0003187Y0241097D02*
X0235820Y0241097D01*
X0235820Y0241883D02*
X0003187Y0241883D01*
X0003187Y0242669D02*
X0235820Y0242669D01*
X0235820Y0243455D02*
X0003187Y0243455D01*
X0003187Y0244241D02*
X0235820Y0244241D01*
X0235820Y0245027D02*
X0003187Y0245027D01*
X0003187Y0245813D02*
X0235820Y0245813D01*
X0235820Y0246599D02*
X0003187Y0246599D01*
X0003187Y0247384D02*
X0184220Y0247384D01*
X0183648Y0247621D02*
X0185825Y0246719D01*
X0188182Y0246719D01*
X0190360Y0247621D01*
X0192026Y0249288D01*
X0192928Y0251465D01*
X0192928Y0253822D01*
X0192026Y0256000D01*
X0190360Y0257666D01*
X0188182Y0258568D01*
X0185825Y0258568D01*
X0183648Y0257666D01*
X0181981Y0256000D01*
X0181080Y0253822D01*
X0181080Y0251465D01*
X0181981Y0249288D01*
X0183648Y0247621D01*
X0183099Y0248170D02*
X0003187Y0248170D01*
X0003187Y0248956D02*
X0182313Y0248956D01*
X0181793Y0249742D02*
X0003187Y0249742D01*
X0003187Y0250528D02*
X0181468Y0250528D01*
X0181142Y0251314D02*
X0003187Y0251314D01*
X0003187Y0252100D02*
X0181080Y0252100D01*
X0181080Y0252886D02*
X0003187Y0252886D01*
X0003187Y0253672D02*
X0181080Y0253672D01*
X0181343Y0254458D02*
X0003187Y0254458D01*
X0003187Y0255244D02*
X0181668Y0255244D01*
X0182011Y0256029D02*
X0003187Y0256029D01*
X0003187Y0256815D02*
X0182797Y0256815D01*
X0183583Y0257601D02*
X0003187Y0257601D01*
X0003187Y0258387D02*
X0185389Y0258387D01*
X0188619Y0258387D02*
X0235820Y0258387D01*
X0235820Y0257601D02*
X0190425Y0257601D01*
X0191211Y0256815D02*
X0235820Y0256815D01*
X0235820Y0256029D02*
X0191997Y0256029D01*
X0192340Y0255244D02*
X0235820Y0255244D01*
X0235820Y0254458D02*
X0192665Y0254458D01*
X0192928Y0253672D02*
X0235820Y0253672D01*
X0235820Y0252886D02*
X0192928Y0252886D01*
X0192928Y0252100D02*
X0235820Y0252100D01*
X0235820Y0251314D02*
X0192866Y0251314D01*
X0192540Y0250528D02*
X0235820Y0250528D01*
X0235820Y0249742D02*
X0192215Y0249742D01*
X0191695Y0248956D02*
X0235820Y0248956D01*
X0235820Y0248170D02*
X0190909Y0248170D01*
X0189788Y0247384D02*
X0235820Y0247384D01*
X0235820Y0259173D02*
X0003187Y0259173D01*
X0003187Y0259959D02*
X0235820Y0259959D01*
X0235820Y0260745D02*
X0003187Y0260745D01*
X0003187Y0261531D02*
X0235820Y0261531D01*
X0235820Y0262317D02*
X0003187Y0262317D01*
X0003187Y0263103D02*
X0235820Y0263103D01*
X0235820Y0263889D02*
X0003187Y0263889D01*
X0003187Y0264675D02*
X0235820Y0264675D01*
X0235820Y0265460D02*
X0003187Y0265460D01*
X0003187Y0266246D02*
X0235820Y0266246D01*
X0235820Y0267032D02*
X0003187Y0267032D01*
X0003187Y0267818D02*
X0235820Y0267818D01*
X0235820Y0268604D02*
X0003187Y0268604D01*
X0003187Y0269390D02*
X0235820Y0269390D01*
X0235820Y0270176D02*
X0003187Y0270176D01*
X0003187Y0270962D02*
X0058848Y0270962D01*
X0059063Y0270873D02*
X0061224Y0270873D01*
X0063221Y0271700D01*
X0064749Y0273228D01*
X0065576Y0275225D01*
X0065576Y0285063D01*
X0064749Y0287059D01*
X0063221Y0288588D01*
X0061224Y0289415D01*
X0059063Y0289415D01*
X0057067Y0288588D01*
X0055538Y0287059D01*
X0054711Y0285063D01*
X0054711Y0275225D01*
X0055538Y0273228D01*
X0057067Y0271700D01*
X0059063Y0270873D01*
X0057019Y0271748D02*
X0003187Y0271748D01*
X0003187Y0272534D02*
X0056233Y0272534D01*
X0055500Y0273320D02*
X0003187Y0273320D01*
X0003187Y0274105D02*
X0055175Y0274105D01*
X0054849Y0274891D02*
X0003187Y0274891D01*
X0003187Y0275677D02*
X0054711Y0275677D01*
X0054711Y0276463D02*
X0003187Y0276463D01*
X0003187Y0277249D02*
X0054711Y0277249D01*
X0054711Y0278035D02*
X0003187Y0278035D01*
X0003187Y0278821D02*
X0054711Y0278821D01*
X0054711Y0279607D02*
X0003187Y0279607D01*
X0003187Y0280393D02*
X0054711Y0280393D01*
X0054711Y0281179D02*
X0003187Y0281179D01*
X0003187Y0281965D02*
X0054711Y0281965D01*
X0054711Y0282751D02*
X0003187Y0282751D01*
X0003187Y0283536D02*
X0054711Y0283536D01*
X0054711Y0284322D02*
X0003187Y0284322D01*
X0003187Y0285108D02*
X0054730Y0285108D01*
X0055056Y0285894D02*
X0003187Y0285894D01*
X0003187Y0286680D02*
X0055381Y0286680D01*
X0055945Y0287466D02*
X0003187Y0287466D01*
X0003187Y0288252D02*
X0056731Y0288252D01*
X0058154Y0289038D02*
X0003206Y0289038D01*
X0003287Y0289824D02*
X0235720Y0289824D01*
X0235801Y0289038D02*
X0142134Y0289038D01*
X0141224Y0289415D02*
X0139063Y0289415D01*
X0137067Y0288588D01*
X0135538Y0287059D01*
X0134711Y0285063D01*
X0134711Y0275225D01*
X0135538Y0273228D01*
X0137067Y0271700D01*
X0139063Y0270873D01*
X0141224Y0270873D01*
X0143221Y0271700D01*
X0144749Y0273228D01*
X0145576Y0275225D01*
X0145576Y0285063D01*
X0144749Y0287059D01*
X0143221Y0288588D01*
X0141224Y0289415D01*
X0143556Y0288252D02*
X0235820Y0288252D01*
X0235820Y0287466D02*
X0144342Y0287466D01*
X0144906Y0286680D02*
X0235820Y0286680D01*
X0235820Y0285894D02*
X0145232Y0285894D01*
X0145557Y0285108D02*
X0235820Y0285108D01*
X0235820Y0284322D02*
X0145576Y0284322D01*
X0145576Y0283536D02*
X0235820Y0283536D01*
X0235820Y0282751D02*
X0145576Y0282751D01*
X0145576Y0281965D02*
X0235820Y0281965D01*
X0235820Y0281179D02*
X0145576Y0281179D01*
X0145576Y0280393D02*
X0235820Y0280393D01*
X0235820Y0279607D02*
X0145576Y0279607D01*
X0145576Y0278821D02*
X0235820Y0278821D01*
X0235820Y0278035D02*
X0145576Y0278035D01*
X0145576Y0277249D02*
X0235820Y0277249D01*
X0235820Y0276463D02*
X0145576Y0276463D01*
X0145576Y0275677D02*
X0235820Y0275677D01*
X0235820Y0274891D02*
X0145438Y0274891D01*
X0145112Y0274105D02*
X0235820Y0274105D01*
X0235820Y0273320D02*
X0144787Y0273320D01*
X0144055Y0272534D02*
X0235820Y0272534D01*
X0235820Y0271748D02*
X0143269Y0271748D01*
X0141439Y0270962D02*
X0235820Y0270962D01*
X0235465Y0290610D02*
X0003543Y0290610D01*
X0003798Y0291396D02*
X0235210Y0291396D01*
X0234703Y0292181D02*
X0004305Y0292181D01*
X0004876Y0292967D02*
X0234132Y0292967D01*
X0233133Y0293753D02*
X0005875Y0293753D01*
X0007512Y0294539D02*
X0231496Y0294539D01*
X0235820Y0235596D02*
X0068908Y0235596D01*
X0069241Y0234810D02*
X0235820Y0234810D01*
X0235820Y0234024D02*
X0069375Y0234024D01*
X0069349Y0233238D02*
X0235820Y0233238D01*
X0235820Y0232452D02*
X0069023Y0232452D01*
X0068587Y0231666D02*
X0087797Y0231666D01*
X0088301Y0231875D02*
X0087205Y0231421D01*
X0086366Y0230582D01*
X0085913Y0229487D01*
X0085913Y0228301D01*
X0086366Y0227205D01*
X0086700Y0226871D01*
X0086700Y0218416D01*
X0086366Y0218082D01*
X0085913Y0216987D01*
X0085913Y0215801D01*
X0086366Y0214705D01*
X0087205Y0213866D01*
X0088301Y0213413D01*
X0089487Y0213413D01*
X0090582Y0213866D01*
X0091421Y0214705D01*
X0091700Y0215379D01*
X0091700Y0213416D01*
X0091366Y0213082D01*
X0090913Y0211987D01*
X0090913Y0210801D01*
X0091366Y0209705D01*
X0092205Y0208866D01*
X0093301Y0208413D01*
X0094487Y0208413D01*
X0095582Y0208866D01*
X0096421Y0209705D01*
X0096700Y0210379D01*
X0096700Y0208416D01*
X0096366Y0208082D01*
X0095913Y0206987D01*
X0095913Y0205801D01*
X0096366Y0204705D01*
X0097205Y0203866D01*
X0098301Y0203413D01*
X0099487Y0203413D01*
X0100582Y0203866D01*
X0101421Y0204705D01*
X0101875Y0205801D01*
X0101875Y0206987D01*
X0101421Y0208082D01*
X0101087Y0208416D01*
X0101087Y0226871D01*
X0101421Y0227205D01*
X0101875Y0228301D01*
X0101875Y0229487D01*
X0101421Y0230582D01*
X0100582Y0231421D01*
X0099487Y0231875D01*
X0098301Y0231875D01*
X0097205Y0231421D01*
X0096394Y0230610D01*
X0095582Y0231421D01*
X0094487Y0231875D01*
X0093301Y0231875D01*
X0092205Y0231421D01*
X0091394Y0230610D01*
X0090582Y0231421D01*
X0089487Y0231875D01*
X0088301Y0231875D01*
X0089990Y0231666D02*
X0092797Y0231666D01*
X0091664Y0230880D02*
X0091123Y0230880D01*
X0094990Y0231666D02*
X0097797Y0231666D01*
X0096664Y0230880D02*
X0096123Y0230880D01*
X0099990Y0231666D02*
X0235820Y0231666D01*
X0235820Y0230880D02*
X0101123Y0230880D01*
X0101623Y0230094D02*
X0235820Y0230094D01*
X0235820Y0229308D02*
X0101875Y0229308D01*
X0101875Y0228523D02*
X0235820Y0228523D01*
X0235820Y0227737D02*
X0141073Y0227737D01*
X0140805Y0228005D02*
X0139565Y0228518D01*
X0138222Y0228518D01*
X0136982Y0228005D01*
X0136915Y0227937D01*
X0119588Y0227937D01*
X0118561Y0227512D01*
X0114568Y0223518D01*
X0114472Y0223518D01*
X0113232Y0223005D01*
X0112283Y0222055D01*
X0111769Y0220815D01*
X0111769Y0219472D01*
X0112283Y0218232D01*
X0113232Y0217283D01*
X0114472Y0216769D01*
X0115815Y0216769D01*
X0117055Y0217283D01*
X0118005Y0218232D01*
X0118518Y0219472D01*
X0118518Y0219568D01*
X0121301Y0222350D01*
X0136915Y0222350D01*
X0136982Y0222283D01*
X0138222Y0221769D01*
X0139565Y0221769D01*
X0140805Y0222283D01*
X0141755Y0223232D01*
X0142268Y0224472D01*
X0142268Y0225815D01*
X0141755Y0227055D01*
X0140805Y0228005D01*
X0141798Y0226951D02*
X0235820Y0226951D01*
X0235820Y0226165D02*
X0142124Y0226165D01*
X0142268Y0225379D02*
X0235820Y0225379D01*
X0235820Y0224593D02*
X0142268Y0224593D01*
X0141993Y0223807D02*
X0235820Y0223807D01*
X0235820Y0223021D02*
X0141544Y0223021D01*
X0140691Y0222235D02*
X0235820Y0222235D01*
X0235820Y0221449D02*
X0120400Y0221449D01*
X0119614Y0220663D02*
X0235820Y0220663D01*
X0235820Y0219877D02*
X0118828Y0219877D01*
X0118361Y0219092D02*
X0235820Y0219092D01*
X0235820Y0218306D02*
X0118035Y0218306D01*
X0117292Y0217520D02*
X0235820Y0217520D01*
X0235820Y0216734D02*
X0101087Y0216734D01*
X0101087Y0217520D02*
X0112995Y0217520D01*
X0112252Y0218306D02*
X0101087Y0218306D01*
X0101087Y0219092D02*
X0111927Y0219092D01*
X0111769Y0219877D02*
X0101087Y0219877D01*
X0101087Y0220663D02*
X0111769Y0220663D01*
X0112032Y0221449D02*
X0101087Y0221449D01*
X0101087Y0222235D02*
X0112463Y0222235D01*
X0113272Y0223021D02*
X0101087Y0223021D01*
X0101087Y0223807D02*
X0114856Y0223807D01*
X0115642Y0224593D02*
X0101087Y0224593D01*
X0101087Y0225379D02*
X0116428Y0225379D01*
X0117214Y0226165D02*
X0101087Y0226165D01*
X0101167Y0226951D02*
X0118000Y0226951D01*
X0119103Y0227737D02*
X0101641Y0227737D01*
X0101087Y0215948D02*
X0235820Y0215948D01*
X0235820Y0215162D02*
X0101087Y0215162D01*
X0101087Y0214376D02*
X0235820Y0214376D01*
X0235820Y0213590D02*
X0101087Y0213590D01*
X0101087Y0212804D02*
X0235820Y0212804D01*
X0235820Y0212018D02*
X0101087Y0212018D01*
X0101087Y0211232D02*
X0235820Y0211232D01*
X0235820Y0210447D02*
X0101087Y0210447D01*
X0101087Y0209661D02*
X0235820Y0209661D01*
X0235820Y0208875D02*
X0101087Y0208875D01*
X0101415Y0208089D02*
X0235820Y0208089D01*
X0235820Y0207303D02*
X0101744Y0207303D01*
X0101875Y0206517D02*
X0235820Y0206517D01*
X0235820Y0205731D02*
X0101846Y0205731D01*
X0101520Y0204945D02*
X0235820Y0204945D01*
X0235820Y0204159D02*
X0100875Y0204159D01*
X0096912Y0204159D02*
X0069419Y0204159D01*
X0069744Y0203373D02*
X0235820Y0203373D01*
X0235820Y0202587D02*
X0069768Y0202587D01*
X0069698Y0201801D02*
X0235820Y0201801D01*
X0235820Y0201016D02*
X0069372Y0201016D01*
X0068752Y0200230D02*
X0235820Y0200230D01*
X0235820Y0153861D02*
X0204195Y0153861D01*
X0204981Y0153075D02*
X0235820Y0153075D01*
X0235820Y0152289D02*
X0205767Y0152289D01*
X0206115Y0151503D02*
X0235820Y0151503D01*
X0235820Y0150717D02*
X0206441Y0150717D01*
X0206708Y0149931D02*
X0235820Y0149931D01*
X0235820Y0149145D02*
X0206708Y0149145D01*
X0206708Y0148359D02*
X0235820Y0148359D01*
X0235820Y0147573D02*
X0206649Y0147573D01*
X0206324Y0146788D02*
X0235820Y0146788D01*
X0235820Y0146002D02*
X0205998Y0146002D01*
X0205484Y0145216D02*
X0235820Y0145216D01*
X0235820Y0144430D02*
X0204698Y0144430D01*
X0203591Y0143644D02*
X0235820Y0143644D01*
X0185450Y0090202D02*
X0176758Y0090202D01*
X0177587Y0089416D02*
X0185450Y0089416D01*
X0185450Y0088630D02*
X0177962Y0088630D01*
X0178125Y0087844D02*
X0185450Y0087844D01*
X0185450Y0087058D02*
X0178125Y0087058D01*
X0177802Y0086272D02*
X0185450Y0086272D01*
X0185450Y0085486D02*
X0177337Y0085486D01*
X0177337Y0084700D02*
X0185450Y0084700D01*
X0185450Y0083915D02*
X0177337Y0083915D01*
X0177337Y0083129D02*
X0185450Y0083129D01*
X0185450Y0082343D02*
X0177337Y0082343D01*
X0177785Y0081557D02*
X0185450Y0081557D01*
X0185450Y0080771D02*
X0178111Y0080771D01*
X0178125Y0079985D02*
X0185450Y0079985D01*
X0185450Y0079199D02*
X0177979Y0079199D01*
X0177629Y0078413D02*
X0185450Y0078413D01*
X0176916Y0026543D02*
X0160871Y0026543D01*
X0159974Y0026915D02*
X0157813Y0026915D01*
X0155817Y0026088D01*
X0154288Y0024559D01*
X0153461Y0022563D01*
X0153461Y0012725D01*
X0154288Y0010728D01*
X0155817Y0009200D01*
X0157813Y0008373D01*
X0159974Y0008373D01*
X0161971Y0009200D01*
X0163499Y0010728D01*
X0164326Y0012725D01*
X0164326Y0022563D01*
X0163499Y0024559D01*
X0161971Y0026088D01*
X0159974Y0026915D01*
X0162301Y0025757D02*
X0175486Y0025757D01*
X0174700Y0024971D02*
X0163087Y0024971D01*
X0163654Y0024185D02*
X0174133Y0024185D01*
X0173808Y0023399D02*
X0163980Y0023399D01*
X0164305Y0022613D02*
X0173482Y0022613D01*
X0173461Y0021827D02*
X0164326Y0021827D01*
X0164326Y0021042D02*
X0173461Y0021042D01*
X0173461Y0020256D02*
X0164326Y0020256D01*
X0164326Y0019470D02*
X0173461Y0019470D01*
X0173461Y0018684D02*
X0164326Y0018684D01*
X0164326Y0017898D02*
X0173461Y0017898D01*
X0173461Y0017112D02*
X0164326Y0017112D01*
X0164326Y0016326D02*
X0173461Y0016326D01*
X0173461Y0015540D02*
X0164326Y0015540D01*
X0164326Y0014754D02*
X0173461Y0014754D01*
X0173461Y0013968D02*
X0164326Y0013968D01*
X0164326Y0013182D02*
X0173461Y0013182D01*
X0173597Y0012396D02*
X0164190Y0012396D01*
X0163865Y0011611D02*
X0173923Y0011611D01*
X0174248Y0010825D02*
X0163539Y0010825D01*
X0162810Y0010039D02*
X0174978Y0010039D01*
X0175764Y0009253D02*
X0162024Y0009253D01*
X0160201Y0008467D02*
X0177586Y0008467D01*
X0157586Y0008467D02*
X0140201Y0008467D01*
X0142024Y0009253D02*
X0155764Y0009253D01*
X0154978Y0010039D02*
X0142810Y0010039D01*
X0143539Y0010825D02*
X0154248Y0010825D01*
X0153923Y0011611D02*
X0143865Y0011611D01*
X0144190Y0012396D02*
X0153597Y0012396D01*
X0153461Y0013182D02*
X0144326Y0013182D01*
X0144326Y0013968D02*
X0153461Y0013968D01*
X0153461Y0014754D02*
X0144326Y0014754D01*
X0144326Y0015540D02*
X0153461Y0015540D01*
X0153461Y0016326D02*
X0144326Y0016326D01*
X0144326Y0017112D02*
X0153461Y0017112D01*
X0153461Y0017898D02*
X0144326Y0017898D01*
X0144326Y0018684D02*
X0153461Y0018684D01*
X0153461Y0019470D02*
X0144326Y0019470D01*
X0144326Y0020256D02*
X0153461Y0020256D01*
X0153461Y0021042D02*
X0144326Y0021042D01*
X0144326Y0021827D02*
X0153461Y0021827D01*
X0153482Y0022613D02*
X0144305Y0022613D01*
X0143980Y0023399D02*
X0153808Y0023399D01*
X0154133Y0024185D02*
X0143654Y0024185D01*
X0143087Y0024971D02*
X0154700Y0024971D01*
X0155486Y0025757D02*
X0142301Y0025757D01*
X0140871Y0026543D02*
X0156916Y0026543D01*
X0088250Y0083915D02*
X0022884Y0083915D01*
X0024452Y0084700D02*
X0088019Y0084700D01*
X0088019Y0085486D02*
X0025238Y0085486D01*
X0026024Y0086272D02*
X0088208Y0086272D01*
X0088536Y0087058D02*
X0026639Y0087058D01*
X0026965Y0087844D02*
X0089321Y0087844D01*
X0065125Y0080771D02*
X0003187Y0080771D01*
X0003187Y0072126D02*
X0016461Y0072126D01*
X0015675Y0071340D02*
X0003187Y0071340D01*
X0003187Y0070554D02*
X0015062Y0070554D01*
X0014736Y0069768D02*
X0003187Y0069768D01*
X0003187Y0068982D02*
X0014411Y0068982D01*
X0014357Y0068196D02*
X0003187Y0068196D01*
X0003187Y0067410D02*
X0014357Y0067410D01*
X0014385Y0066624D02*
X0003187Y0066624D01*
X0003187Y0065839D02*
X0014710Y0065839D01*
X0015036Y0065053D02*
X0003187Y0065053D01*
X0003187Y0064267D02*
X0015612Y0064267D01*
X0016398Y0063481D02*
X0003187Y0063481D01*
X0003187Y0062695D02*
X0017850Y0062695D01*
X0005561Y0004537D02*
X0233446Y0004537D01*
X0232197Y0003751D02*
X0006811Y0003751D01*
X0003187Y0123996D02*
X0140269Y0123996D01*
X0139658Y0124782D02*
X0003187Y0124782D01*
X0003187Y0125568D02*
X0139333Y0125568D01*
X0139269Y0126354D02*
X0003187Y0126354D01*
X0003187Y0127140D02*
X0139300Y0127140D01*
X0139625Y0127926D02*
X0003187Y0127926D01*
X0003187Y0128712D02*
X0140189Y0128712D01*
X0141318Y0129498D02*
X0003187Y0129498D01*
X0003187Y0142858D02*
X0088213Y0142858D01*
X0087538Y0143644D02*
X0071295Y0143644D01*
X0071832Y0143866D02*
X0072671Y0144705D01*
X0073125Y0145801D01*
X0073125Y0146987D01*
X0072896Y0147539D01*
X0073082Y0147616D01*
X0073921Y0148455D01*
X0074375Y0149551D01*
X0074375Y0150737D01*
X0074250Y0151037D01*
X0074551Y0150913D01*
X0075737Y0150913D01*
X0076832Y0151366D01*
X0077671Y0152205D01*
X0078125Y0153301D01*
X0078125Y0153772D01*
X0086087Y0161735D01*
X0086087Y0175621D01*
X0086421Y0175955D01*
X0086875Y0177051D01*
X0086875Y0178237D01*
X0086421Y0179332D01*
X0085582Y0180171D01*
X0084487Y0180625D01*
X0083301Y0180625D01*
X0082748Y0180396D01*
X0082671Y0180582D01*
X0083197Y0180582D01*
X0082671Y0180582D02*
X0081832Y0181421D01*
X0080737Y0181875D01*
X0079551Y0181875D01*
X0078455Y0181421D01*
X0077644Y0180610D01*
X0076832Y0181421D01*
X0075737Y0181875D01*
X0074551Y0181875D01*
X0073455Y0181421D01*
X0072616Y0180582D01*
X0003187Y0180582D01*
X0003187Y0181368D02*
X0073402Y0181368D01*
X0072616Y0180582D02*
X0072163Y0179487D01*
X0072163Y0178301D01*
X0072616Y0177205D01*
X0072950Y0176871D01*
X0072950Y0164802D01*
X0066735Y0158587D01*
X0065450Y0157302D01*
X0065450Y0147985D01*
X0067163Y0146272D01*
X0067163Y0145801D01*
X0067616Y0144705D01*
X0068455Y0143866D01*
X0069551Y0143413D01*
X0070737Y0143413D01*
X0071832Y0143866D01*
X0072396Y0144430D02*
X0087213Y0144430D01*
X0087163Y0145216D02*
X0072882Y0145216D01*
X0073125Y0146002D02*
X0087272Y0146002D01*
X0087598Y0146788D02*
X0073125Y0146788D01*
X0072979Y0147573D02*
X0087950Y0147573D01*
X0087950Y0148359D02*
X0073825Y0148359D01*
X0074207Y0149145D02*
X0087950Y0149145D01*
X0087950Y0149931D02*
X0074375Y0149931D01*
X0074375Y0150717D02*
X0087950Y0150717D01*
X0087950Y0151503D02*
X0076969Y0151503D01*
X0077706Y0152289D02*
X0087950Y0152289D01*
X0087950Y0153075D02*
X0078031Y0153075D01*
X0078213Y0153861D02*
X0087950Y0153861D01*
X0087950Y0154647D02*
X0078999Y0154647D01*
X0079785Y0155433D02*
X0087950Y0155433D01*
X0087950Y0156219D02*
X0080571Y0156219D01*
X0081357Y0157004D02*
X0087950Y0157004D01*
X0087950Y0157790D02*
X0082143Y0157790D01*
X0082929Y0158576D02*
X0087950Y0158576D01*
X0087950Y0159362D02*
X0083715Y0159362D01*
X0084500Y0160148D02*
X0087950Y0160148D01*
X0087950Y0160934D02*
X0085286Y0160934D01*
X0086072Y0161720D02*
X0087950Y0161720D01*
X0087950Y0162506D02*
X0086087Y0162506D01*
X0086087Y0163292D02*
X0087950Y0163292D01*
X0087950Y0164078D02*
X0086087Y0164078D01*
X0086087Y0164864D02*
X0087950Y0164864D01*
X0087950Y0165649D02*
X0086087Y0165649D01*
X0086087Y0166435D02*
X0087950Y0166435D01*
X0087950Y0167221D02*
X0086087Y0167221D01*
X0086087Y0168007D02*
X0087950Y0168007D01*
X0087950Y0168793D02*
X0086087Y0168793D01*
X0086087Y0169579D02*
X0087950Y0169579D01*
X0088513Y0170365D02*
X0086087Y0170365D01*
X0086087Y0171151D02*
X0090450Y0171151D01*
X0090450Y0171937D02*
X0086087Y0171937D01*
X0086087Y0172723D02*
X0090450Y0172723D01*
X0090450Y0173509D02*
X0086087Y0173509D01*
X0086087Y0174295D02*
X0090450Y0174295D01*
X0090450Y0175080D02*
X0086087Y0175080D01*
X0086332Y0175866D02*
X0090450Y0175866D01*
X0090450Y0176652D02*
X0086710Y0176652D01*
X0086875Y0177438D02*
X0090450Y0177438D01*
X0090450Y0178224D02*
X0086875Y0178224D01*
X0086554Y0179010D02*
X0090450Y0179010D01*
X0090450Y0179796D02*
X0085957Y0179796D01*
X0084590Y0180582D02*
X0090450Y0180582D01*
X0090450Y0181368D02*
X0081886Y0181368D01*
X0078402Y0181368D02*
X0076886Y0181368D01*
X0072291Y0179796D02*
X0003187Y0179796D01*
X0003187Y0179010D02*
X0072163Y0179010D01*
X0072194Y0178224D02*
X0003187Y0178224D01*
X0003187Y0177438D02*
X0072520Y0177438D01*
X0072950Y0176652D02*
X0003187Y0176652D01*
X0003187Y0175866D02*
X0072950Y0175866D01*
X0072950Y0175080D02*
X0003187Y0175080D01*
X0003187Y0174295D02*
X0072950Y0174295D01*
X0072950Y0173509D02*
X0003187Y0173509D01*
X0003187Y0172723D02*
X0072950Y0172723D01*
X0072950Y0171937D02*
X0003187Y0171937D01*
X0003187Y0171151D02*
X0072950Y0171151D01*
X0072950Y0170365D02*
X0003187Y0170365D01*
X0003187Y0169579D02*
X0072950Y0169579D01*
X0072950Y0168793D02*
X0003187Y0168793D01*
X0003187Y0168007D02*
X0072950Y0168007D01*
X0072950Y0167221D02*
X0003187Y0167221D01*
X0003187Y0166435D02*
X0072950Y0166435D01*
X0072950Y0165649D02*
X0003187Y0165649D01*
X0003187Y0164864D02*
X0072950Y0164864D01*
X0072225Y0164078D02*
X0003187Y0164078D01*
X0003187Y0163292D02*
X0071439Y0163292D01*
X0070653Y0162506D02*
X0003187Y0162506D01*
X0003187Y0161720D02*
X0069868Y0161720D01*
X0069082Y0160934D02*
X0003187Y0160934D01*
X0003187Y0160148D02*
X0068296Y0160148D01*
X0067510Y0159362D02*
X0003187Y0159362D01*
X0003187Y0158576D02*
X0066724Y0158576D01*
X0066735Y0158587D02*
X0066735Y0158587D01*
X0065938Y0157790D02*
X0003187Y0157790D01*
X0003187Y0157004D02*
X0065450Y0157004D01*
X0065450Y0156219D02*
X0003187Y0156219D01*
X0003187Y0155433D02*
X0065450Y0155433D01*
X0065450Y0154647D02*
X0003187Y0154647D01*
X0003187Y0153861D02*
X0065450Y0153861D01*
X0065450Y0153075D02*
X0003187Y0153075D01*
X0003187Y0152289D02*
X0065450Y0152289D01*
X0065450Y0151503D02*
X0003187Y0151503D01*
X0003187Y0150717D02*
X0065450Y0150717D01*
X0065450Y0149931D02*
X0003187Y0149931D01*
X0003187Y0149145D02*
X0065450Y0149145D01*
X0065450Y0148359D02*
X0003187Y0148359D01*
X0003187Y0147573D02*
X0065862Y0147573D01*
X0066647Y0146788D02*
X0003187Y0146788D01*
X0003187Y0146002D02*
X0067163Y0146002D01*
X0067405Y0145216D02*
X0003187Y0145216D01*
X0003187Y0144430D02*
X0067892Y0144430D01*
X0068992Y0143644D02*
X0003187Y0143644D01*
X0003187Y0182154D02*
X0090450Y0182154D01*
X0090450Y0182940D02*
X0003187Y0182940D01*
X0003187Y0183725D02*
X0090450Y0183725D01*
X0090450Y0184511D02*
X0003187Y0184511D01*
X0003187Y0185297D02*
X0090450Y0185297D01*
X0090450Y0186083D02*
X0003187Y0186083D01*
X0003187Y0186869D02*
X0090450Y0186869D01*
X0090450Y0187655D02*
X0003187Y0187655D01*
X0003187Y0188441D02*
X0090450Y0188441D01*
X0090450Y0189227D02*
X0003187Y0189227D01*
X0003187Y0190013D02*
X0089989Y0190013D01*
X0089663Y0190799D02*
X0003187Y0190799D01*
X0003187Y0191585D02*
X0089663Y0191585D01*
X0089822Y0192371D02*
X0003187Y0192371D01*
X0003187Y0193156D02*
X0090191Y0193156D01*
X0091007Y0193942D02*
X0003187Y0193942D01*
X0003187Y0194728D02*
X0093857Y0194728D01*
X0093531Y0195514D02*
X0003187Y0195514D01*
X0003187Y0196300D02*
X0093413Y0196300D01*
X0093454Y0197086D02*
X0003187Y0197086D01*
X0003187Y0197872D02*
X0093779Y0197872D01*
X0094442Y0198658D02*
X0003187Y0198658D01*
X0068587Y0205731D02*
X0095941Y0205731D01*
X0095913Y0206517D02*
X0068587Y0206517D01*
X0068587Y0207303D02*
X0096044Y0207303D01*
X0096373Y0208089D02*
X0068587Y0208089D01*
X0068587Y0208875D02*
X0092197Y0208875D01*
X0091411Y0209661D02*
X0068587Y0209661D01*
X0068587Y0210447D02*
X0091059Y0210447D01*
X0090913Y0211232D02*
X0068587Y0211232D01*
X0068587Y0212018D02*
X0090926Y0212018D01*
X0091251Y0212804D02*
X0068587Y0212804D01*
X0068587Y0213590D02*
X0087872Y0213590D01*
X0086695Y0214376D02*
X0068587Y0214376D01*
X0068587Y0215162D02*
X0086177Y0215162D01*
X0085913Y0215948D02*
X0068587Y0215948D01*
X0068587Y0216734D02*
X0085913Y0216734D01*
X0086133Y0217520D02*
X0068587Y0217520D01*
X0068587Y0218306D02*
X0086590Y0218306D01*
X0086700Y0219092D02*
X0068587Y0219092D01*
X0068587Y0219877D02*
X0086700Y0219877D01*
X0086700Y0220663D02*
X0068587Y0220663D01*
X0068587Y0221449D02*
X0086700Y0221449D01*
X0086700Y0222235D02*
X0068587Y0222235D01*
X0068587Y0223021D02*
X0086700Y0223021D01*
X0086700Y0223807D02*
X0068587Y0223807D01*
X0068587Y0224593D02*
X0086700Y0224593D01*
X0086700Y0225379D02*
X0068587Y0225379D01*
X0068587Y0226165D02*
X0086700Y0226165D01*
X0086621Y0226951D02*
X0068587Y0226951D01*
X0068587Y0227737D02*
X0086146Y0227737D01*
X0085913Y0228523D02*
X0068587Y0228523D01*
X0068587Y0229308D02*
X0085913Y0229308D01*
X0086164Y0230094D02*
X0068587Y0230094D01*
X0068587Y0230880D02*
X0086664Y0230880D01*
X0091610Y0215162D02*
X0091700Y0215162D01*
X0091700Y0214376D02*
X0091092Y0214376D01*
X0091700Y0213590D02*
X0089915Y0213590D01*
X0095591Y0208875D02*
X0096700Y0208875D01*
X0096700Y0209661D02*
X0096377Y0209661D01*
X0096267Y0204945D02*
X0068865Y0204945D01*
X0094837Y0176652D02*
X0095450Y0176652D01*
X0095450Y0175866D02*
X0094837Y0175866D01*
X0094837Y0175080D02*
X0095450Y0175080D01*
X0095450Y0174295D02*
X0094837Y0174295D01*
X0094837Y0173509D02*
X0095450Y0173509D01*
X0095450Y0172723D02*
X0094837Y0172723D01*
X0094837Y0171937D02*
X0095450Y0171937D01*
X0095450Y0171151D02*
X0094837Y0171151D01*
X0094837Y0170365D02*
X0095450Y0170365D01*
X0095450Y0169579D02*
X0094837Y0169579D01*
X0094837Y0168793D02*
X0095450Y0168793D01*
X0095450Y0168007D02*
X0094837Y0168007D01*
X0095450Y0167221D02*
X0094074Y0167221D01*
X0095450Y0166435D02*
X0092337Y0166435D01*
X0092337Y0165649D02*
X0095450Y0165649D01*
X0095450Y0164864D02*
X0092337Y0164864D01*
X0092337Y0164078D02*
X0095450Y0164078D01*
X0095450Y0163292D02*
X0092337Y0163292D01*
X0092337Y0162506D02*
X0095450Y0162506D01*
X0095450Y0161720D02*
X0092337Y0161720D01*
X0092337Y0160934D02*
X0095450Y0160934D01*
X0095450Y0160148D02*
X0092337Y0160148D01*
X0092337Y0159362D02*
X0095450Y0159362D01*
X0095450Y0158576D02*
X0092337Y0158576D01*
X0092337Y0157790D02*
X0095450Y0157790D01*
X0095450Y0157004D02*
X0092337Y0157004D01*
X0092337Y0156219D02*
X0095450Y0156219D01*
X0095450Y0155433D02*
X0092337Y0155433D01*
X0092337Y0154647D02*
X0095450Y0154647D01*
X0095450Y0153861D02*
X0092337Y0153861D01*
X0092337Y0153075D02*
X0095450Y0153075D01*
X0095450Y0152289D02*
X0092337Y0152289D01*
X0092337Y0151503D02*
X0095450Y0151503D01*
X0095450Y0150717D02*
X0092337Y0150717D01*
X0092337Y0149931D02*
X0095450Y0149931D01*
X0095450Y0149145D02*
X0092337Y0149145D01*
X0092337Y0148359D02*
X0095450Y0148359D01*
X0095450Y0147573D02*
X0092337Y0147573D01*
X0092690Y0146788D02*
X0095098Y0146788D01*
X0094772Y0146002D02*
X0093015Y0146002D01*
X0093125Y0145216D02*
X0094663Y0145216D01*
X0094713Y0144430D02*
X0093075Y0144430D01*
X0092749Y0143644D02*
X0095038Y0143644D01*
X0095713Y0142858D02*
X0092074Y0142858D01*
X0099574Y0142858D02*
X0103213Y0142858D01*
X0102538Y0143644D02*
X0100249Y0143644D01*
X0100575Y0144430D02*
X0102213Y0144430D01*
X0102163Y0145216D02*
X0100625Y0145216D01*
X0100515Y0146002D02*
X0102272Y0146002D01*
X0102598Y0146788D02*
X0100190Y0146788D01*
X0099837Y0147573D02*
X0102950Y0147573D01*
X0102950Y0148359D02*
X0099837Y0148359D01*
X0099837Y0149145D02*
X0102950Y0149145D01*
X0102950Y0149931D02*
X0099837Y0149931D01*
X0099837Y0150717D02*
X0102950Y0150717D01*
X0102950Y0151503D02*
X0099837Y0151503D01*
X0099837Y0152289D02*
X0102950Y0152289D01*
X0102950Y0153075D02*
X0099837Y0153075D01*
X0099837Y0153861D02*
X0102950Y0153861D01*
X0102950Y0154647D02*
X0099837Y0154647D01*
X0099837Y0155433D02*
X0102950Y0155433D01*
X0102950Y0156219D02*
X0099837Y0156219D01*
X0099837Y0157004D02*
X0102950Y0157004D01*
X0102950Y0157790D02*
X0099837Y0157790D01*
X0099837Y0158576D02*
X0102950Y0158576D01*
X0102950Y0159362D02*
X0099837Y0159362D01*
X0099837Y0160148D02*
X0102950Y0160148D01*
X0102950Y0160934D02*
X0099837Y0160934D01*
X0099837Y0161720D02*
X0102950Y0161720D01*
X0102950Y0162506D02*
X0099837Y0162506D01*
X0099837Y0163292D02*
X0102950Y0163292D01*
X0102950Y0164078D02*
X0099837Y0164078D01*
X0099837Y0164864D02*
X0102950Y0164864D01*
X0102950Y0165649D02*
X0099837Y0165649D01*
X0099837Y0166435D02*
X0102950Y0166435D01*
X0102950Y0167221D02*
X0099837Y0167221D01*
X0099837Y0168007D02*
X0102950Y0168007D01*
X0102950Y0168793D02*
X0099837Y0168793D01*
X0099837Y0169579D02*
X0102950Y0169579D01*
X0102950Y0170365D02*
X0099837Y0170365D01*
X0099837Y0171151D02*
X0102950Y0171151D01*
X0102950Y0171937D02*
X0099837Y0171937D01*
X0099837Y0172723D02*
X0102950Y0172723D01*
X0102950Y0173509D02*
X0099837Y0173509D01*
X0099837Y0174295D02*
X0102950Y0174295D01*
X0102950Y0175080D02*
X0099837Y0175080D01*
X0099837Y0175866D02*
X0102950Y0175866D01*
X0102950Y0176652D02*
X0099837Y0176652D01*
X0099837Y0177438D02*
X0102950Y0177438D01*
X0102950Y0178224D02*
X0099837Y0178224D01*
X0099837Y0179010D02*
X0102950Y0179010D01*
X0102950Y0179796D02*
X0099837Y0179796D01*
X0099058Y0180582D02*
X0102950Y0180582D01*
X0102950Y0181368D02*
X0098587Y0181368D01*
X0098587Y0182154D02*
X0102950Y0182154D01*
X0102950Y0182940D02*
X0098587Y0182940D01*
X0098587Y0183725D02*
X0102950Y0183725D01*
X0102950Y0184511D02*
X0098587Y0184511D01*
X0098587Y0185297D02*
X0102950Y0185297D01*
X0102352Y0186083D02*
X0098587Y0186083D01*
X0098587Y0186869D02*
X0101566Y0186869D01*
X0100780Y0187655D02*
X0098587Y0187655D01*
X0098587Y0188441D02*
X0099482Y0188441D01*
X0105413Y0189227D02*
X0110444Y0189227D01*
X0109225Y0188441D02*
X0106199Y0188441D01*
X0106985Y0187655D02*
X0108689Y0187655D01*
X0108413Y0186869D02*
X0107337Y0186869D01*
X0107337Y0186083D02*
X0108413Y0186083D01*
X0108621Y0185297D02*
X0107337Y0185297D01*
X0107337Y0184511D02*
X0109060Y0184511D01*
X0109200Y0183725D02*
X0107337Y0183725D01*
X0107337Y0182940D02*
X0109200Y0182940D01*
X0109200Y0182154D02*
X0107337Y0182154D01*
X0107337Y0181368D02*
X0109200Y0181368D01*
X0109200Y0180582D02*
X0107337Y0180582D01*
X0107337Y0179796D02*
X0109200Y0179796D01*
X0109200Y0179010D02*
X0107337Y0179010D01*
X0107337Y0178224D02*
X0109200Y0178224D01*
X0109200Y0177438D02*
X0107337Y0177438D01*
X0107337Y0176652D02*
X0109200Y0176652D01*
X0109200Y0175866D02*
X0107337Y0175866D01*
X0107337Y0175080D02*
X0109200Y0175080D01*
X0109200Y0174295D02*
X0107337Y0174295D01*
X0107337Y0173509D02*
X0109200Y0173509D01*
X0109200Y0172723D02*
X0107337Y0172723D01*
X0107337Y0171937D02*
X0109200Y0171937D01*
X0109200Y0171151D02*
X0107337Y0171151D01*
X0107337Y0170365D02*
X0109200Y0170365D01*
X0109200Y0169579D02*
X0107337Y0169579D01*
X0107337Y0168793D02*
X0109200Y0168793D01*
X0109200Y0168007D02*
X0107337Y0168007D01*
X0107337Y0167221D02*
X0109200Y0167221D01*
X0109200Y0166435D02*
X0107337Y0166435D01*
X0107337Y0165649D02*
X0109200Y0165649D01*
X0109200Y0164864D02*
X0107337Y0164864D01*
X0107337Y0164078D02*
X0109200Y0164078D01*
X0109200Y0163292D02*
X0107337Y0163292D01*
X0107337Y0162506D02*
X0109679Y0162506D01*
X0110450Y0161720D02*
X0107337Y0161720D01*
X0107337Y0160934D02*
X0110450Y0160934D01*
X0110450Y0160148D02*
X0107337Y0160148D01*
X0107337Y0159362D02*
X0110450Y0159362D01*
X0110450Y0158576D02*
X0107337Y0158576D01*
X0107337Y0157790D02*
X0110450Y0157790D01*
X0110450Y0157004D02*
X0107337Y0157004D01*
X0107337Y0156219D02*
X0110450Y0156219D01*
X0110450Y0155433D02*
X0107337Y0155433D01*
X0107337Y0154647D02*
X0110450Y0154647D01*
X0110450Y0153861D02*
X0107337Y0153861D01*
X0107337Y0153075D02*
X0110450Y0153075D01*
X0110450Y0152289D02*
X0107337Y0152289D01*
X0107337Y0151503D02*
X0110450Y0151503D01*
X0110450Y0150717D02*
X0107337Y0150717D01*
X0107337Y0149931D02*
X0110450Y0149931D01*
X0110450Y0149145D02*
X0107337Y0149145D01*
X0107337Y0148359D02*
X0110450Y0148359D01*
X0110450Y0147573D02*
X0107337Y0147573D01*
X0107690Y0146788D02*
X0110098Y0146788D01*
X0109772Y0146002D02*
X0108015Y0146002D01*
X0108125Y0145216D02*
X0109663Y0145216D01*
X0109713Y0144430D02*
X0108075Y0144430D01*
X0107749Y0143644D02*
X0110038Y0143644D01*
X0110713Y0142858D02*
X0107074Y0142858D01*
X0114574Y0142858D02*
X0118213Y0142858D01*
X0117538Y0143644D02*
X0115249Y0143644D01*
X0115575Y0144430D02*
X0117213Y0144430D01*
X0117163Y0145216D02*
X0115625Y0145216D01*
X0115515Y0146002D02*
X0117272Y0146002D01*
X0117598Y0146788D02*
X0115190Y0146788D01*
X0114837Y0147573D02*
X0117950Y0147573D01*
X0117950Y0148359D02*
X0114837Y0148359D01*
X0114837Y0149145D02*
X0117950Y0149145D01*
X0117950Y0149931D02*
X0114837Y0149931D01*
X0114837Y0150717D02*
X0117950Y0150717D01*
X0117950Y0151503D02*
X0114837Y0151503D01*
X0114837Y0152289D02*
X0117950Y0152289D01*
X0117950Y0153075D02*
X0114837Y0153075D01*
X0114837Y0153861D02*
X0117950Y0153861D01*
X0117950Y0154647D02*
X0114837Y0154647D01*
X0114837Y0155433D02*
X0117950Y0155433D01*
X0117950Y0156219D02*
X0114837Y0156219D01*
X0114837Y0157004D02*
X0117950Y0157004D01*
X0117950Y0157790D02*
X0114837Y0157790D01*
X0114837Y0158576D02*
X0117950Y0158576D01*
X0117950Y0159362D02*
X0114837Y0159362D01*
X0114837Y0160148D02*
X0117950Y0160148D01*
X0117950Y0160934D02*
X0114837Y0160934D01*
X0114837Y0161720D02*
X0117950Y0161720D01*
X0117950Y0162506D02*
X0114837Y0162506D01*
X0114837Y0163292D02*
X0117950Y0163292D01*
X0117950Y0164078D02*
X0114312Y0164078D01*
X0113587Y0164864D02*
X0117950Y0164864D01*
X0117950Y0165649D02*
X0113587Y0165649D01*
X0113587Y0166435D02*
X0117950Y0166435D01*
X0117950Y0167221D02*
X0113587Y0167221D01*
X0113587Y0168007D02*
X0117950Y0168007D01*
X0117950Y0168793D02*
X0113587Y0168793D01*
X0113587Y0169579D02*
X0117950Y0169579D01*
X0117950Y0170365D02*
X0113587Y0170365D01*
X0113587Y0171151D02*
X0117950Y0171151D01*
X0117950Y0171937D02*
X0113587Y0171937D01*
X0113587Y0172723D02*
X0117950Y0172723D01*
X0117950Y0173509D02*
X0113587Y0173509D01*
X0113587Y0174295D02*
X0117950Y0174295D01*
X0117950Y0175080D02*
X0113587Y0175080D01*
X0113587Y0175866D02*
X0117950Y0175866D01*
X0117950Y0176652D02*
X0113587Y0176652D01*
X0113587Y0177438D02*
X0117520Y0177438D01*
X0117194Y0178224D02*
X0113587Y0178224D01*
X0113587Y0179010D02*
X0117163Y0179010D01*
X0117291Y0179796D02*
X0113587Y0179796D01*
X0121886Y0181368D02*
X0133402Y0181368D01*
X0132616Y0180582D02*
X0132163Y0179487D01*
X0132158Y0179010D02*
X0123125Y0179010D01*
X0123093Y0178224D02*
X0131372Y0178224D01*
X0130586Y0177438D02*
X0122768Y0177438D01*
X0122337Y0176652D02*
X0129800Y0176652D01*
X0129014Y0175866D02*
X0122337Y0175866D01*
X0122337Y0175080D02*
X0128228Y0175080D01*
X0127442Y0174295D02*
X0122337Y0174295D01*
X0122337Y0173509D02*
X0126656Y0173509D01*
X0125870Y0172723D02*
X0122337Y0172723D01*
X0122337Y0171937D02*
X0125450Y0171937D01*
X0125450Y0171151D02*
X0122337Y0171151D01*
X0122337Y0170365D02*
X0125450Y0170365D01*
X0125450Y0169579D02*
X0122337Y0169579D01*
X0122337Y0168793D02*
X0125450Y0168793D01*
X0125450Y0168007D02*
X0122337Y0168007D01*
X0122337Y0167221D02*
X0125450Y0167221D01*
X0125450Y0166435D02*
X0122337Y0166435D01*
X0122337Y0165649D02*
X0125450Y0165649D01*
X0125450Y0164864D02*
X0122337Y0164864D01*
X0122337Y0164078D02*
X0125450Y0164078D01*
X0125450Y0163292D02*
X0122337Y0163292D01*
X0122337Y0162506D02*
X0125450Y0162506D01*
X0125450Y0161720D02*
X0122337Y0161720D01*
X0122337Y0160934D02*
X0125450Y0160934D01*
X0125450Y0160148D02*
X0122337Y0160148D01*
X0122337Y0159362D02*
X0125450Y0159362D01*
X0125450Y0158576D02*
X0122337Y0158576D01*
X0122337Y0157790D02*
X0125450Y0157790D01*
X0125450Y0157004D02*
X0122337Y0157004D01*
X0122337Y0156219D02*
X0125450Y0156219D01*
X0125450Y0155433D02*
X0122337Y0155433D01*
X0122337Y0154647D02*
X0125450Y0154647D01*
X0125450Y0153861D02*
X0122337Y0153861D01*
X0122337Y0153075D02*
X0125450Y0153075D01*
X0125450Y0152289D02*
X0122337Y0152289D01*
X0122337Y0151503D02*
X0125450Y0151503D01*
X0125450Y0150717D02*
X0122337Y0150717D01*
X0122337Y0149931D02*
X0125450Y0149931D01*
X0125450Y0149145D02*
X0122337Y0149145D01*
X0122337Y0148359D02*
X0125450Y0148359D01*
X0125450Y0147573D02*
X0122337Y0147573D01*
X0122690Y0146788D02*
X0125098Y0146788D01*
X0124772Y0146002D02*
X0123015Y0146002D01*
X0123125Y0145216D02*
X0124663Y0145216D01*
X0124713Y0144430D02*
X0123075Y0144430D01*
X0122749Y0143644D02*
X0125038Y0143644D01*
X0125713Y0142858D02*
X0122074Y0142858D01*
X0129574Y0142858D02*
X0133213Y0142858D01*
X0132538Y0143644D02*
X0130249Y0143644D01*
X0130575Y0144430D02*
X0132213Y0144430D01*
X0132163Y0145216D02*
X0130625Y0145216D01*
X0130515Y0146002D02*
X0132272Y0146002D01*
X0132598Y0146788D02*
X0130190Y0146788D01*
X0129837Y0147573D02*
X0132950Y0147573D01*
X0132950Y0148359D02*
X0129837Y0148359D01*
X0129837Y0149145D02*
X0132950Y0149145D01*
X0132950Y0149931D02*
X0129837Y0149931D01*
X0129837Y0150717D02*
X0132950Y0150717D01*
X0132950Y0151503D02*
X0129837Y0151503D01*
X0129837Y0152289D02*
X0132950Y0152289D01*
X0132950Y0153075D02*
X0129837Y0153075D01*
X0129837Y0153861D02*
X0132950Y0153861D01*
X0132950Y0154647D02*
X0129837Y0154647D01*
X0129837Y0155433D02*
X0132950Y0155433D01*
X0133116Y0156219D02*
X0129837Y0156219D01*
X0129837Y0157004D02*
X0133902Y0157004D01*
X0134688Y0157790D02*
X0129837Y0157790D01*
X0129837Y0158576D02*
X0135474Y0158576D01*
X0136260Y0159362D02*
X0129837Y0159362D01*
X0129837Y0160148D02*
X0136700Y0160148D01*
X0136700Y0160934D02*
X0129837Y0160934D01*
X0129837Y0161720D02*
X0136700Y0161720D01*
X0136700Y0162506D02*
X0129837Y0162506D01*
X0129837Y0163292D02*
X0136700Y0163292D01*
X0136700Y0164078D02*
X0129837Y0164078D01*
X0129837Y0164864D02*
X0136700Y0164864D01*
X0136700Y0165649D02*
X0129837Y0165649D01*
X0129837Y0166435D02*
X0136700Y0166435D01*
X0136700Y0167221D02*
X0129837Y0167221D01*
X0129837Y0168007D02*
X0136700Y0168007D01*
X0136700Y0168793D02*
X0129837Y0168793D01*
X0129837Y0169579D02*
X0136700Y0169579D01*
X0136700Y0170365D02*
X0129837Y0170365D01*
X0130503Y0171151D02*
X0136700Y0171151D01*
X0136700Y0171937D02*
X0131289Y0171937D01*
X0132075Y0172723D02*
X0136700Y0172723D01*
X0136700Y0173509D02*
X0132861Y0173509D01*
X0133647Y0174295D02*
X0136700Y0174295D01*
X0136700Y0175080D02*
X0134433Y0175080D01*
X0135219Y0175866D02*
X0136700Y0175866D01*
X0136886Y0181368D02*
X0137152Y0181368D01*
X0140636Y0181368D02*
X0140902Y0181368D01*
X0144332Y0181421D02*
X0145171Y0180582D01*
X0140450Y0157004D02*
X0140107Y0157004D01*
X0140450Y0156219D02*
X0139321Y0156219D01*
X0138535Y0155433D02*
X0140450Y0155433D01*
X0140450Y0154647D02*
X0137749Y0154647D01*
X0137337Y0153861D02*
X0140450Y0153861D01*
X0140450Y0153075D02*
X0137337Y0153075D01*
X0137337Y0152289D02*
X0140450Y0152289D01*
X0140450Y0151503D02*
X0137337Y0151503D01*
X0137337Y0150717D02*
X0140450Y0150717D01*
X0140450Y0149931D02*
X0137337Y0149931D01*
X0137337Y0149145D02*
X0140450Y0149145D01*
X0140450Y0148359D02*
X0137337Y0148359D01*
X0137337Y0147573D02*
X0140450Y0147573D01*
X0140098Y0146788D02*
X0137690Y0146788D01*
X0138015Y0146002D02*
X0139772Y0146002D01*
X0139663Y0145216D02*
X0138125Y0145216D01*
X0138075Y0144430D02*
X0139713Y0144430D01*
X0140038Y0143644D02*
X0137749Y0143644D01*
X0137074Y0142858D02*
X0140713Y0142858D01*
X0143969Y0129498D02*
X0161318Y0129498D01*
X0137097Y0222235D02*
X0121186Y0222235D01*
X0121224Y0270873D02*
X0119063Y0270873D01*
X0117067Y0271700D01*
X0115538Y0273228D01*
X0114711Y0275225D01*
X0114711Y0285063D01*
X0115538Y0287059D01*
X0117067Y0288588D01*
X0119063Y0289415D01*
X0121224Y0289415D01*
X0123221Y0288588D01*
X0124749Y0287059D01*
X0125576Y0285063D01*
X0125576Y0275225D01*
X0124749Y0273228D01*
X0123221Y0271700D01*
X0121224Y0270873D01*
X0121439Y0270962D02*
X0138848Y0270962D01*
X0137019Y0271748D02*
X0123269Y0271748D01*
X0124055Y0272534D02*
X0136233Y0272534D01*
X0135500Y0273320D02*
X0124787Y0273320D01*
X0125112Y0274105D02*
X0135175Y0274105D01*
X0134849Y0274891D02*
X0125438Y0274891D01*
X0125576Y0275677D02*
X0134711Y0275677D01*
X0134711Y0276463D02*
X0125576Y0276463D01*
X0125576Y0277249D02*
X0134711Y0277249D01*
X0134711Y0278035D02*
X0125576Y0278035D01*
X0125576Y0278821D02*
X0134711Y0278821D01*
X0134711Y0279607D02*
X0125576Y0279607D01*
X0125576Y0280393D02*
X0134711Y0280393D01*
X0134711Y0281179D02*
X0125576Y0281179D01*
X0125576Y0281965D02*
X0134711Y0281965D01*
X0134711Y0282751D02*
X0125576Y0282751D01*
X0125576Y0283536D02*
X0134711Y0283536D01*
X0134711Y0284322D02*
X0125576Y0284322D01*
X0125557Y0285108D02*
X0134730Y0285108D01*
X0135056Y0285894D02*
X0125232Y0285894D01*
X0124906Y0286680D02*
X0135381Y0286680D01*
X0135945Y0287466D02*
X0124342Y0287466D01*
X0123556Y0288252D02*
X0136731Y0288252D01*
X0138154Y0289038D02*
X0122134Y0289038D01*
X0118154Y0289038D02*
X0102134Y0289038D01*
X0101224Y0289415D02*
X0099063Y0289415D01*
X0097067Y0288588D01*
X0095538Y0287059D01*
X0094711Y0285063D01*
X0094711Y0275225D01*
X0095538Y0273228D01*
X0097067Y0271700D01*
X0099063Y0270873D01*
X0101224Y0270873D01*
X0103221Y0271700D01*
X0104749Y0273228D01*
X0105576Y0275225D01*
X0105576Y0285063D01*
X0104749Y0287059D01*
X0103221Y0288588D01*
X0101224Y0289415D01*
X0103556Y0288252D02*
X0116731Y0288252D01*
X0115945Y0287466D02*
X0104342Y0287466D01*
X0104906Y0286680D02*
X0115381Y0286680D01*
X0115056Y0285894D02*
X0105232Y0285894D01*
X0105557Y0285108D02*
X0114730Y0285108D01*
X0114711Y0284322D02*
X0105576Y0284322D01*
X0105576Y0283536D02*
X0114711Y0283536D01*
X0114711Y0282751D02*
X0105576Y0282751D01*
X0105576Y0281965D02*
X0114711Y0281965D01*
X0114711Y0281179D02*
X0105576Y0281179D01*
X0105576Y0280393D02*
X0114711Y0280393D01*
X0114711Y0279607D02*
X0105576Y0279607D01*
X0105576Y0278821D02*
X0114711Y0278821D01*
X0114711Y0278035D02*
X0105576Y0278035D01*
X0105576Y0277249D02*
X0114711Y0277249D01*
X0114711Y0276463D02*
X0105576Y0276463D01*
X0105576Y0275677D02*
X0114711Y0275677D01*
X0114849Y0274891D02*
X0105438Y0274891D01*
X0105112Y0274105D02*
X0115175Y0274105D01*
X0115500Y0273320D02*
X0104787Y0273320D01*
X0104055Y0272534D02*
X0116233Y0272534D01*
X0117019Y0271748D02*
X0103269Y0271748D01*
X0101439Y0270962D02*
X0118848Y0270962D01*
X0098848Y0270962D02*
X0081439Y0270962D01*
X0081224Y0270873D02*
X0083221Y0271700D01*
X0084749Y0273228D01*
X0085576Y0275225D01*
X0085576Y0285063D01*
X0084749Y0287059D01*
X0083221Y0288588D01*
X0081224Y0289415D01*
X0079063Y0289415D01*
X0077067Y0288588D01*
X0075538Y0287059D01*
X0074711Y0285063D01*
X0074711Y0275225D01*
X0075538Y0273228D01*
X0077067Y0271700D01*
X0079063Y0270873D01*
X0081224Y0270873D01*
X0083269Y0271748D02*
X0097019Y0271748D01*
X0096233Y0272534D02*
X0084055Y0272534D01*
X0084787Y0273320D02*
X0095500Y0273320D01*
X0095175Y0274105D02*
X0085112Y0274105D01*
X0085438Y0274891D02*
X0094849Y0274891D01*
X0094711Y0275677D02*
X0085576Y0275677D01*
X0085576Y0276463D02*
X0094711Y0276463D01*
X0094711Y0277249D02*
X0085576Y0277249D01*
X0085576Y0278035D02*
X0094711Y0278035D01*
X0094711Y0278821D02*
X0085576Y0278821D01*
X0085576Y0279607D02*
X0094711Y0279607D01*
X0094711Y0280393D02*
X0085576Y0280393D01*
X0085576Y0281179D02*
X0094711Y0281179D01*
X0094711Y0281965D02*
X0085576Y0281965D01*
X0085576Y0282751D02*
X0094711Y0282751D01*
X0094711Y0283536D02*
X0085576Y0283536D01*
X0085576Y0284322D02*
X0094711Y0284322D01*
X0094730Y0285108D02*
X0085557Y0285108D01*
X0085232Y0285894D02*
X0095056Y0285894D01*
X0095381Y0286680D02*
X0084906Y0286680D01*
X0084342Y0287466D02*
X0095945Y0287466D01*
X0096731Y0288252D02*
X0083556Y0288252D01*
X0082134Y0289038D02*
X0098154Y0289038D01*
X0078154Y0289038D02*
X0062134Y0289038D01*
X0063556Y0288252D02*
X0076731Y0288252D01*
X0075945Y0287466D02*
X0064342Y0287466D01*
X0064906Y0286680D02*
X0075381Y0286680D01*
X0075056Y0285894D02*
X0065232Y0285894D01*
X0065557Y0285108D02*
X0074730Y0285108D01*
X0074711Y0284322D02*
X0065576Y0284322D01*
X0065576Y0283536D02*
X0074711Y0283536D01*
X0074711Y0282751D02*
X0065576Y0282751D01*
X0065576Y0281965D02*
X0074711Y0281965D01*
X0074711Y0281179D02*
X0065576Y0281179D01*
X0065576Y0280393D02*
X0074711Y0280393D01*
X0074711Y0279607D02*
X0065576Y0279607D01*
X0065576Y0278821D02*
X0074711Y0278821D01*
X0074711Y0278035D02*
X0065576Y0278035D01*
X0065576Y0277249D02*
X0074711Y0277249D01*
X0074711Y0276463D02*
X0065576Y0276463D01*
X0065576Y0275677D02*
X0074711Y0275677D01*
X0074849Y0274891D02*
X0065438Y0274891D01*
X0065112Y0274105D02*
X0075175Y0274105D01*
X0075500Y0273320D02*
X0064787Y0273320D01*
X0064055Y0272534D02*
X0076233Y0272534D01*
X0077019Y0271748D02*
X0063269Y0271748D01*
X0061439Y0270962D02*
X0078848Y0270962D01*
D15*
X0017142Y0280921D03*
X0221866Y0280921D03*
X0221866Y0017142D03*
X0017142Y0017142D03*
D16*
X0066394Y0077644D03*
X0091394Y0085144D03*
X0095144Y0088894D03*
X0095144Y0093894D03*
X0100144Y0093894D03*
X0100144Y0088894D03*
X0100144Y0108894D03*
X0100144Y0113894D03*
X0095144Y0113894D03*
X0095144Y0108894D03*
X0072644Y0132644D03*
X0068894Y0170144D03*
X0063894Y0170144D03*
X0088894Y0177644D03*
X0088894Y0187644D03*
X0066394Y0202644D03*
X0058894Y0202644D03*
X0051394Y0202644D03*
X0043894Y0202644D03*
X0036394Y0202644D03*
X0028894Y0202644D03*
X0023894Y0180144D03*
X0023894Y0173894D03*
X0028894Y0173894D03*
X0115144Y0220144D03*
X0120144Y0216394D03*
X0120144Y0211394D03*
X0133894Y0211394D03*
X0133894Y0216394D03*
X0138894Y0225144D03*
X0133894Y0230144D03*
X0175144Y0190144D03*
X0180144Y0190144D03*
X0185144Y0190144D03*
X0195144Y0205144D03*
X0198894Y0208894D03*
X0202644Y0205144D03*
X0218894Y0186394D03*
X0218894Y0158894D03*
X0167644Y0121394D03*
X0162644Y0126394D03*
X0162644Y0116394D03*
X0147644Y0121394D03*
X0142644Y0126394D03*
X0160144Y0093894D03*
X0138894Y0070144D03*
X0133894Y0070144D03*
X0166394Y0065144D03*
X0166394Y0060144D03*
X0177644Y0058894D03*
X0177644Y0063894D03*
X0185144Y0058894D03*
X0213894Y0095144D03*
X0218894Y0095144D03*
X0091394Y0067644D03*
D17*
X0090144Y0145144D03*
X0097644Y0145144D03*
X0105144Y0145144D03*
X0112644Y0145144D03*
X0120144Y0145144D03*
X0127644Y0145144D03*
X0135144Y0145144D03*
X0142644Y0145144D03*
X0142644Y0178894D03*
X0138894Y0178894D03*
X0135144Y0178894D03*
X0120144Y0178894D03*
X0111394Y0186394D03*
X0100144Y0191394D03*
X0096394Y0196394D03*
X0092644Y0191394D03*
X0083894Y0177644D03*
X0080144Y0178894D03*
X0075144Y0178894D03*
X0075144Y0153894D03*
X0071394Y0150144D03*
X0070144Y0146394D03*
X0098894Y0206394D03*
X0093894Y0211394D03*
X0088894Y0216394D03*
X0083894Y0221394D03*
X0080144Y0221394D03*
X0088894Y0228894D03*
X0093894Y0228894D03*
X0098894Y0228894D03*
X0066394Y0233894D03*
X0062019Y0221394D03*
X0055769Y0221394D03*
X0047019Y0221394D03*
X0040769Y0221394D03*
X0036394Y0233894D03*
X0051394Y0233894D03*
X0175144Y0087644D03*
X0175144Y0080144D03*
X0187644Y0073894D03*
X0193894Y0075144D03*
X0193894Y0082644D03*
X0185144Y0098894D03*
X0200144Y0112644D03*
X0211394Y0120144D03*
X0211394Y0130144D03*
D18*
X0167644Y0121394D02*
X0147644Y0121394D01*
X0142644Y0126394D02*
X0162644Y0126394D01*
X0162644Y0116394D02*
X0162644Y0096394D01*
X0160144Y0093894D01*
X0091394Y0085144D02*
X0091394Y0067644D01*
X0066394Y0077644D02*
X0047644Y0077644D01*
X0037644Y0067644D01*
X0023756Y0067644D01*
X0023628Y0067772D01*
X0115144Y0220144D02*
X0120144Y0225144D01*
X0138894Y0225144D01*
D19*
X0111394Y0186394D02*
X0111394Y0163894D01*
X0112644Y0162644D01*
X0112644Y0145144D01*
X0120144Y0145144D02*
X0120144Y0178894D01*
X0127644Y0171394D02*
X0127644Y0145144D01*
X0135144Y0145144D02*
X0135144Y0155144D01*
X0138894Y0158894D01*
X0138894Y0178894D01*
X0142644Y0178894D02*
X0142644Y0145144D01*
X0127644Y0171394D02*
X0135144Y0178894D01*
X0105144Y0186394D02*
X0105144Y0145144D01*
X0097644Y0145144D02*
X0097644Y0178894D01*
X0096394Y0178894D01*
X0096394Y0196394D01*
X0100144Y0191394D02*
X0105144Y0186394D01*
X0092644Y0191394D02*
X0092644Y0168894D01*
X0090144Y0168894D01*
X0090144Y0145144D01*
X0075144Y0153894D02*
X0083894Y0162644D01*
X0083894Y0177644D01*
X0080144Y0178894D02*
X0080144Y0165144D01*
X0071394Y0156394D01*
X0071394Y0150144D01*
X0067644Y0148894D02*
X0070144Y0146394D01*
X0067644Y0148894D02*
X0067644Y0156394D01*
X0075144Y0163894D01*
X0075144Y0178894D01*
X0066394Y0202644D02*
X0066394Y0233894D01*
X0051394Y0233894D02*
X0051394Y0202644D01*
X0036394Y0202644D02*
X0036394Y0233894D01*
X0088894Y0228894D02*
X0088894Y0216394D01*
X0093894Y0211394D02*
X0093894Y0228894D01*
X0098894Y0228894D02*
X0098894Y0206394D01*
X0185144Y0098894D02*
X0187644Y0096394D01*
X0187644Y0073894D01*
X0193894Y0075144D02*
X0193894Y0082644D01*
X0175144Y0080144D02*
X0175144Y0087644D01*
X0200144Y0112644D02*
X0203894Y0112644D01*
X0211394Y0120144D01*
D20*
X0071659Y0067772D02*
X0064022Y0067772D01*
X0058894Y0062644D01*
X0058894Y0017644D01*
M02*
