G75*
%MOIN*%
%OFA0B0*%
%FSLAX25Y25*%
%IPPOS*%
%LPD*%
%AMOC8*
5,1,8,0,0,1.08239X$1,22.5*
%
%ADD10C,0.00400*%
%ADD11R,0.04331X0.05118*%
%ADD12R,0.01772X0.06496*%
%ADD13R,0.06299X0.16535*%
%ADD14R,0.05118X0.04331*%
%ADD15R,0.07087X0.06299*%
%ADD16R,0.04331X0.04331*%
%ADD17R,0.02756X0.06890*%
%ADD18R,0.02362X0.03150*%
%ADD19R,0.03150X0.03937*%
%ADD20R,0.06890X0.02756*%
D10*
X0001394Y0009268D02*
X0001394Y0288795D01*
X0001396Y0288985D01*
X0001403Y0289175D01*
X0001415Y0289365D01*
X0001431Y0289555D01*
X0001451Y0289744D01*
X0001477Y0289933D01*
X0001506Y0290121D01*
X0001541Y0290308D01*
X0001580Y0290494D01*
X0001623Y0290679D01*
X0001671Y0290864D01*
X0001723Y0291047D01*
X0001779Y0291228D01*
X0001840Y0291408D01*
X0001906Y0291587D01*
X0001975Y0291764D01*
X0002049Y0291940D01*
X0002127Y0292113D01*
X0002210Y0292285D01*
X0002296Y0292454D01*
X0002386Y0292622D01*
X0002481Y0292787D01*
X0002579Y0292950D01*
X0002682Y0293110D01*
X0002788Y0293268D01*
X0002898Y0293423D01*
X0003011Y0293576D01*
X0003129Y0293726D01*
X0003250Y0293872D01*
X0003374Y0294016D01*
X0003502Y0294157D01*
X0003633Y0294295D01*
X0003768Y0294430D01*
X0003906Y0294561D01*
X0004047Y0294689D01*
X0004191Y0294813D01*
X0004337Y0294934D01*
X0004487Y0295052D01*
X0004640Y0295165D01*
X0004795Y0295275D01*
X0004953Y0295381D01*
X0005113Y0295484D01*
X0005276Y0295582D01*
X0005441Y0295677D01*
X0005609Y0295767D01*
X0005778Y0295853D01*
X0005950Y0295936D01*
X0006123Y0296014D01*
X0006299Y0296088D01*
X0006476Y0296157D01*
X0006655Y0296223D01*
X0006835Y0296284D01*
X0007016Y0296340D01*
X0007199Y0296392D01*
X0007384Y0296440D01*
X0007569Y0296483D01*
X0007755Y0296522D01*
X0007942Y0296557D01*
X0008130Y0296586D01*
X0008319Y0296612D01*
X0008508Y0296632D01*
X0008698Y0296648D01*
X0008888Y0296660D01*
X0009078Y0296667D01*
X0009268Y0296669D01*
X0229740Y0296669D01*
X0229930Y0296667D01*
X0230120Y0296660D01*
X0230310Y0296648D01*
X0230500Y0296632D01*
X0230689Y0296612D01*
X0230878Y0296586D01*
X0231066Y0296557D01*
X0231253Y0296522D01*
X0231439Y0296483D01*
X0231624Y0296440D01*
X0231809Y0296392D01*
X0231992Y0296340D01*
X0232173Y0296284D01*
X0232353Y0296223D01*
X0232532Y0296157D01*
X0232709Y0296088D01*
X0232885Y0296014D01*
X0233058Y0295936D01*
X0233230Y0295853D01*
X0233399Y0295767D01*
X0233567Y0295677D01*
X0233732Y0295582D01*
X0233895Y0295484D01*
X0234055Y0295381D01*
X0234213Y0295275D01*
X0234368Y0295165D01*
X0234521Y0295052D01*
X0234671Y0294934D01*
X0234817Y0294813D01*
X0234961Y0294689D01*
X0235102Y0294561D01*
X0235240Y0294430D01*
X0235375Y0294295D01*
X0235506Y0294157D01*
X0235634Y0294016D01*
X0235758Y0293872D01*
X0235879Y0293726D01*
X0235997Y0293576D01*
X0236110Y0293423D01*
X0236220Y0293268D01*
X0236326Y0293110D01*
X0236429Y0292950D01*
X0236527Y0292787D01*
X0236622Y0292622D01*
X0236712Y0292454D01*
X0236798Y0292285D01*
X0236881Y0292113D01*
X0236959Y0291940D01*
X0237033Y0291764D01*
X0237102Y0291587D01*
X0237168Y0291408D01*
X0237229Y0291228D01*
X0237285Y0291047D01*
X0237337Y0290864D01*
X0237385Y0290679D01*
X0237428Y0290494D01*
X0237467Y0290308D01*
X0237502Y0290121D01*
X0237531Y0289933D01*
X0237557Y0289744D01*
X0237577Y0289555D01*
X0237593Y0289365D01*
X0237605Y0289175D01*
X0237612Y0288985D01*
X0237614Y0288795D01*
X0237614Y0009268D01*
X0237612Y0009078D01*
X0237605Y0008888D01*
X0237593Y0008698D01*
X0237577Y0008508D01*
X0237557Y0008319D01*
X0237531Y0008130D01*
X0237502Y0007942D01*
X0237467Y0007755D01*
X0237428Y0007569D01*
X0237385Y0007384D01*
X0237337Y0007199D01*
X0237285Y0007016D01*
X0237229Y0006835D01*
X0237168Y0006655D01*
X0237102Y0006476D01*
X0237033Y0006299D01*
X0236959Y0006123D01*
X0236881Y0005950D01*
X0236798Y0005778D01*
X0236712Y0005609D01*
X0236622Y0005441D01*
X0236527Y0005276D01*
X0236429Y0005113D01*
X0236326Y0004953D01*
X0236220Y0004795D01*
X0236110Y0004640D01*
X0235997Y0004487D01*
X0235879Y0004337D01*
X0235758Y0004191D01*
X0235634Y0004047D01*
X0235506Y0003906D01*
X0235375Y0003768D01*
X0235240Y0003633D01*
X0235102Y0003502D01*
X0234961Y0003374D01*
X0234817Y0003250D01*
X0234671Y0003129D01*
X0234521Y0003011D01*
X0234368Y0002898D01*
X0234213Y0002788D01*
X0234055Y0002682D01*
X0233895Y0002579D01*
X0233732Y0002481D01*
X0233567Y0002386D01*
X0233399Y0002296D01*
X0233230Y0002210D01*
X0233058Y0002127D01*
X0232885Y0002049D01*
X0232709Y0001975D01*
X0232532Y0001906D01*
X0232353Y0001840D01*
X0232173Y0001779D01*
X0231992Y0001723D01*
X0231809Y0001671D01*
X0231624Y0001623D01*
X0231439Y0001580D01*
X0231253Y0001541D01*
X0231066Y0001506D01*
X0230878Y0001477D01*
X0230689Y0001451D01*
X0230500Y0001431D01*
X0230310Y0001415D01*
X0230120Y0001403D01*
X0229930Y0001396D01*
X0229740Y0001394D01*
X0009268Y0001394D01*
X0009078Y0001396D01*
X0008888Y0001403D01*
X0008698Y0001415D01*
X0008508Y0001431D01*
X0008319Y0001451D01*
X0008130Y0001477D01*
X0007942Y0001506D01*
X0007755Y0001541D01*
X0007569Y0001580D01*
X0007384Y0001623D01*
X0007199Y0001671D01*
X0007016Y0001723D01*
X0006835Y0001779D01*
X0006655Y0001840D01*
X0006476Y0001906D01*
X0006299Y0001975D01*
X0006123Y0002049D01*
X0005950Y0002127D01*
X0005778Y0002210D01*
X0005609Y0002296D01*
X0005441Y0002386D01*
X0005276Y0002481D01*
X0005113Y0002579D01*
X0004953Y0002682D01*
X0004795Y0002788D01*
X0004640Y0002898D01*
X0004487Y0003011D01*
X0004337Y0003129D01*
X0004191Y0003250D01*
X0004047Y0003374D01*
X0003906Y0003502D01*
X0003768Y0003633D01*
X0003633Y0003768D01*
X0003502Y0003906D01*
X0003374Y0004047D01*
X0003250Y0004191D01*
X0003129Y0004337D01*
X0003011Y0004487D01*
X0002898Y0004640D01*
X0002788Y0004795D01*
X0002682Y0004953D01*
X0002579Y0005113D01*
X0002481Y0005276D01*
X0002386Y0005441D01*
X0002296Y0005609D01*
X0002210Y0005778D01*
X0002127Y0005950D01*
X0002049Y0006123D01*
X0001975Y0006299D01*
X0001906Y0006476D01*
X0001840Y0006655D01*
X0001779Y0006835D01*
X0001723Y0007016D01*
X0001671Y0007199D01*
X0001623Y0007384D01*
X0001580Y0007569D01*
X0001541Y0007755D01*
X0001506Y0007942D01*
X0001477Y0008130D01*
X0001451Y0008319D01*
X0001431Y0008508D01*
X0001415Y0008698D01*
X0001403Y0008888D01*
X0001396Y0009078D01*
X0001394Y0009268D01*
D11*
X0115744Y0048894D03*
X0122043Y0048894D03*
X0134494Y0062644D03*
X0140793Y0062644D03*
X0144494Y0080144D03*
X0150793Y0080144D03*
X0205626Y0101364D03*
X0211925Y0101364D03*
X0212043Y0108894D03*
X0205744Y0108894D03*
X0205744Y0116394D03*
X0212043Y0116394D03*
X0219494Y0116394D03*
X0225793Y0116394D03*
X0225793Y0101394D03*
X0219494Y0101394D03*
X0219494Y0085144D03*
X0220793Y0077644D03*
X0214494Y0077644D03*
X0225793Y0085144D03*
X0212043Y0123894D03*
X0205744Y0123894D03*
X0211994Y0165144D03*
X0218293Y0165144D03*
X0218293Y0172644D03*
X0211994Y0172644D03*
X0211994Y0180144D03*
X0218293Y0180144D03*
X0215764Y0192240D03*
X0209465Y0192240D03*
X0209465Y0199740D03*
X0215764Y0199740D03*
X0215764Y0207240D03*
X0209465Y0207240D03*
X0202014Y0190990D03*
X0195715Y0190990D03*
X0163293Y0241394D03*
X0156994Y0241394D03*
X0143293Y0241394D03*
X0136994Y0241394D03*
X0136994Y0251394D03*
X0143293Y0251394D03*
X0123293Y0251394D03*
X0116994Y0251394D03*
X0116994Y0241394D03*
X0123293Y0241394D03*
X0103293Y0241394D03*
X0096994Y0241394D03*
X0097211Y0251551D03*
X0103510Y0251551D03*
X0083421Y0251551D03*
X0077122Y0251551D03*
X0076994Y0241394D03*
X0083293Y0241394D03*
X0063293Y0241394D03*
X0056994Y0241394D03*
X0057033Y0251551D03*
X0063333Y0251551D03*
X0090744Y0182644D03*
X0097043Y0182644D03*
D12*
X0195114Y0198579D03*
X0197614Y0198579D03*
X0200114Y0198579D03*
X0202614Y0198579D03*
X0202614Y0215902D03*
X0200114Y0215902D03*
X0197614Y0215902D03*
X0195114Y0215902D03*
D13*
X0191709Y0175990D03*
X0203520Y0175990D03*
D14*
X0170173Y0199898D03*
X0170173Y0206197D03*
X0195114Y0224091D03*
X0195114Y0230390D03*
X0202614Y0230390D03*
X0202614Y0224091D03*
X0142644Y0155793D03*
X0142644Y0149494D03*
X0135144Y0149494D03*
X0135144Y0155793D03*
X0127644Y0155793D03*
X0127644Y0149494D03*
X0127644Y0140793D03*
X0127644Y0134494D03*
X0135144Y0134494D03*
X0135144Y0140793D03*
X0142644Y0140793D03*
X0142644Y0134494D03*
X0130144Y0117043D03*
X0130144Y0110744D03*
X0122644Y0110744D03*
X0122644Y0117043D03*
X0120144Y0134494D03*
X0120144Y0140793D03*
X0112644Y0140793D03*
X0112644Y0134494D03*
X0105144Y0134494D03*
X0105144Y0140793D03*
X0097644Y0140793D03*
X0097644Y0134494D03*
X0090144Y0134494D03*
X0090144Y0140793D03*
X0090144Y0149494D03*
X0090144Y0155793D03*
X0097644Y0155793D03*
X0097644Y0149494D03*
X0105144Y0149494D03*
X0105144Y0155793D03*
X0112644Y0155793D03*
X0112644Y0149494D03*
X0120144Y0149494D03*
X0120144Y0155793D03*
X0073894Y0209494D03*
X0073894Y0215793D03*
X0066394Y0215793D03*
X0066394Y0209494D03*
X0058894Y0209494D03*
X0058894Y0215793D03*
X0051394Y0215793D03*
X0051394Y0209494D03*
X0043894Y0209494D03*
X0043894Y0215793D03*
X0036394Y0215793D03*
X0036394Y0209494D03*
X0036394Y0195793D03*
X0036394Y0189494D03*
X0043894Y0189494D03*
X0043894Y0195793D03*
X0051394Y0195793D03*
X0051394Y0189494D03*
X0058894Y0189494D03*
X0058894Y0195793D03*
X0066394Y0195793D03*
X0066394Y0189494D03*
X0066394Y0164543D03*
X0066394Y0158244D03*
X0058894Y0149543D03*
X0058894Y0143244D03*
X0051394Y0143244D03*
X0051394Y0149543D03*
X0043894Y0149543D03*
X0043894Y0143244D03*
X0036394Y0143244D03*
X0036394Y0149543D03*
X0028894Y0149543D03*
X0028894Y0143244D03*
X0021394Y0143244D03*
X0021394Y0149543D03*
X0028894Y0189494D03*
X0028894Y0195793D03*
X0105193Y0225862D03*
X0105193Y0232161D03*
X0112644Y0232043D03*
X0112644Y0225744D03*
X0120144Y0225744D03*
X0120144Y0232043D03*
X0127644Y0232043D03*
X0127644Y0225744D03*
X0145144Y0095793D03*
X0145144Y0089494D03*
X0152644Y0089494D03*
X0152644Y0095793D03*
X0108894Y0065793D03*
X0108894Y0059494D03*
D15*
X0177614Y0196728D03*
X0186364Y0196728D03*
X0186364Y0207752D03*
X0177614Y0207752D03*
D16*
X0178490Y0274248D03*
X0178490Y0285665D03*
X0160852Y0070144D03*
X0160852Y0062644D03*
X0149435Y0062644D03*
X0149435Y0070144D03*
D17*
X0130144Y0079022D03*
X0125144Y0079022D03*
X0120144Y0079022D03*
X0115144Y0079022D03*
X0110144Y0079022D03*
X0105144Y0079022D03*
X0100144Y0079022D03*
X0095144Y0079022D03*
X0095144Y0101266D03*
X0100144Y0101266D03*
X0105144Y0101266D03*
X0110144Y0101266D03*
X0115144Y0101266D03*
X0120144Y0101266D03*
X0125144Y0101266D03*
X0130144Y0101266D03*
X0058894Y0159022D03*
X0053894Y0159022D03*
X0048894Y0159022D03*
X0043894Y0159022D03*
X0038894Y0159022D03*
X0033894Y0159022D03*
X0028894Y0159022D03*
X0028894Y0181266D03*
X0033894Y0181266D03*
X0038894Y0181266D03*
X0043894Y0181266D03*
X0048894Y0181266D03*
X0053894Y0181266D03*
X0058894Y0181266D03*
D18*
X0187614Y0216069D03*
X0187614Y0225911D03*
D19*
X0167634Y0089081D03*
X0163894Y0081207D03*
X0160154Y0089081D03*
D20*
X0184022Y0088894D03*
X0184022Y0083894D03*
X0184022Y0078894D03*
X0184022Y0073894D03*
X0184022Y0068894D03*
X0184022Y0063894D03*
X0206266Y0063894D03*
X0206266Y0068894D03*
X0206266Y0073894D03*
X0206266Y0078894D03*
X0206266Y0083894D03*
X0206266Y0088894D03*
X0206266Y0093894D03*
X0184022Y0093894D03*
X0127516Y0181394D03*
X0127516Y0186394D03*
X0127516Y0191394D03*
X0127516Y0196394D03*
X0127516Y0201394D03*
X0127516Y0206394D03*
X0127516Y0211394D03*
X0127516Y0216394D03*
X0105272Y0216394D03*
X0105272Y0211394D03*
X0105272Y0206394D03*
X0105272Y0201394D03*
X0105272Y0196394D03*
X0105272Y0191394D03*
X0105272Y0186394D03*
X0105272Y0181394D03*
M02*
