G75*
%MOIN*%
%OFA0B0*%
%FSLAX25Y25*%
%IPPOS*%
%LPD*%
%AMOC8*
5,1,8,0,0,1.08239X$1,22.5*
%
%ADD10C,0.00400*%
D10*
X0001394Y0009268D02*
X0001394Y0288795D01*
X0001396Y0288985D01*
X0001403Y0289175D01*
X0001415Y0289365D01*
X0001431Y0289555D01*
X0001451Y0289744D01*
X0001477Y0289933D01*
X0001506Y0290121D01*
X0001541Y0290308D01*
X0001580Y0290494D01*
X0001623Y0290679D01*
X0001671Y0290864D01*
X0001723Y0291047D01*
X0001779Y0291228D01*
X0001840Y0291408D01*
X0001906Y0291587D01*
X0001975Y0291764D01*
X0002049Y0291940D01*
X0002127Y0292113D01*
X0002210Y0292285D01*
X0002296Y0292454D01*
X0002386Y0292622D01*
X0002481Y0292787D01*
X0002579Y0292950D01*
X0002682Y0293110D01*
X0002788Y0293268D01*
X0002898Y0293423D01*
X0003011Y0293576D01*
X0003129Y0293726D01*
X0003250Y0293872D01*
X0003374Y0294016D01*
X0003502Y0294157D01*
X0003633Y0294295D01*
X0003768Y0294430D01*
X0003906Y0294561D01*
X0004047Y0294689D01*
X0004191Y0294813D01*
X0004337Y0294934D01*
X0004487Y0295052D01*
X0004640Y0295165D01*
X0004795Y0295275D01*
X0004953Y0295381D01*
X0005113Y0295484D01*
X0005276Y0295582D01*
X0005441Y0295677D01*
X0005609Y0295767D01*
X0005778Y0295853D01*
X0005950Y0295936D01*
X0006123Y0296014D01*
X0006299Y0296088D01*
X0006476Y0296157D01*
X0006655Y0296223D01*
X0006835Y0296284D01*
X0007016Y0296340D01*
X0007199Y0296392D01*
X0007384Y0296440D01*
X0007569Y0296483D01*
X0007755Y0296522D01*
X0007942Y0296557D01*
X0008130Y0296586D01*
X0008319Y0296612D01*
X0008508Y0296632D01*
X0008698Y0296648D01*
X0008888Y0296660D01*
X0009078Y0296667D01*
X0009268Y0296669D01*
X0229740Y0296669D01*
X0229930Y0296667D01*
X0230120Y0296660D01*
X0230310Y0296648D01*
X0230500Y0296632D01*
X0230689Y0296612D01*
X0230878Y0296586D01*
X0231066Y0296557D01*
X0231253Y0296522D01*
X0231439Y0296483D01*
X0231624Y0296440D01*
X0231809Y0296392D01*
X0231992Y0296340D01*
X0232173Y0296284D01*
X0232353Y0296223D01*
X0232532Y0296157D01*
X0232709Y0296088D01*
X0232885Y0296014D01*
X0233058Y0295936D01*
X0233230Y0295853D01*
X0233399Y0295767D01*
X0233567Y0295677D01*
X0233732Y0295582D01*
X0233895Y0295484D01*
X0234055Y0295381D01*
X0234213Y0295275D01*
X0234368Y0295165D01*
X0234521Y0295052D01*
X0234671Y0294934D01*
X0234817Y0294813D01*
X0234961Y0294689D01*
X0235102Y0294561D01*
X0235240Y0294430D01*
X0235375Y0294295D01*
X0235506Y0294157D01*
X0235634Y0294016D01*
X0235758Y0293872D01*
X0235879Y0293726D01*
X0235997Y0293576D01*
X0236110Y0293423D01*
X0236220Y0293268D01*
X0236326Y0293110D01*
X0236429Y0292950D01*
X0236527Y0292787D01*
X0236622Y0292622D01*
X0236712Y0292454D01*
X0236798Y0292285D01*
X0236881Y0292113D01*
X0236959Y0291940D01*
X0237033Y0291764D01*
X0237102Y0291587D01*
X0237168Y0291408D01*
X0237229Y0291228D01*
X0237285Y0291047D01*
X0237337Y0290864D01*
X0237385Y0290679D01*
X0237428Y0290494D01*
X0237467Y0290308D01*
X0237502Y0290121D01*
X0237531Y0289933D01*
X0237557Y0289744D01*
X0237577Y0289555D01*
X0237593Y0289365D01*
X0237605Y0289175D01*
X0237612Y0288985D01*
X0237614Y0288795D01*
X0237614Y0009268D01*
X0237612Y0009078D01*
X0237605Y0008888D01*
X0237593Y0008698D01*
X0237577Y0008508D01*
X0237557Y0008319D01*
X0237531Y0008130D01*
X0237502Y0007942D01*
X0237467Y0007755D01*
X0237428Y0007569D01*
X0237385Y0007384D01*
X0237337Y0007199D01*
X0237285Y0007016D01*
X0237229Y0006835D01*
X0237168Y0006655D01*
X0237102Y0006476D01*
X0237033Y0006299D01*
X0236959Y0006123D01*
X0236881Y0005950D01*
X0236798Y0005778D01*
X0236712Y0005609D01*
X0236622Y0005441D01*
X0236527Y0005276D01*
X0236429Y0005113D01*
X0236326Y0004953D01*
X0236220Y0004795D01*
X0236110Y0004640D01*
X0235997Y0004487D01*
X0235879Y0004337D01*
X0235758Y0004191D01*
X0235634Y0004047D01*
X0235506Y0003906D01*
X0235375Y0003768D01*
X0235240Y0003633D01*
X0235102Y0003502D01*
X0234961Y0003374D01*
X0234817Y0003250D01*
X0234671Y0003129D01*
X0234521Y0003011D01*
X0234368Y0002898D01*
X0234213Y0002788D01*
X0234055Y0002682D01*
X0233895Y0002579D01*
X0233732Y0002481D01*
X0233567Y0002386D01*
X0233399Y0002296D01*
X0233230Y0002210D01*
X0233058Y0002127D01*
X0232885Y0002049D01*
X0232709Y0001975D01*
X0232532Y0001906D01*
X0232353Y0001840D01*
X0232173Y0001779D01*
X0231992Y0001723D01*
X0231809Y0001671D01*
X0231624Y0001623D01*
X0231439Y0001580D01*
X0231253Y0001541D01*
X0231066Y0001506D01*
X0230878Y0001477D01*
X0230689Y0001451D01*
X0230500Y0001431D01*
X0230310Y0001415D01*
X0230120Y0001403D01*
X0229930Y0001396D01*
X0229740Y0001394D01*
X0009268Y0001394D01*
X0009078Y0001396D01*
X0008888Y0001403D01*
X0008698Y0001415D01*
X0008508Y0001431D01*
X0008319Y0001451D01*
X0008130Y0001477D01*
X0007942Y0001506D01*
X0007755Y0001541D01*
X0007569Y0001580D01*
X0007384Y0001623D01*
X0007199Y0001671D01*
X0007016Y0001723D01*
X0006835Y0001779D01*
X0006655Y0001840D01*
X0006476Y0001906D01*
X0006299Y0001975D01*
X0006123Y0002049D01*
X0005950Y0002127D01*
X0005778Y0002210D01*
X0005609Y0002296D01*
X0005441Y0002386D01*
X0005276Y0002481D01*
X0005113Y0002579D01*
X0004953Y0002682D01*
X0004795Y0002788D01*
X0004640Y0002898D01*
X0004487Y0003011D01*
X0004337Y0003129D01*
X0004191Y0003250D01*
X0004047Y0003374D01*
X0003906Y0003502D01*
X0003768Y0003633D01*
X0003633Y0003768D01*
X0003502Y0003906D01*
X0003374Y0004047D01*
X0003250Y0004191D01*
X0003129Y0004337D01*
X0003011Y0004487D01*
X0002898Y0004640D01*
X0002788Y0004795D01*
X0002682Y0004953D01*
X0002579Y0005113D01*
X0002481Y0005276D01*
X0002386Y0005441D01*
X0002296Y0005609D01*
X0002210Y0005778D01*
X0002127Y0005950D01*
X0002049Y0006123D01*
X0001975Y0006299D01*
X0001906Y0006476D01*
X0001840Y0006655D01*
X0001779Y0006835D01*
X0001723Y0007016D01*
X0001671Y0007199D01*
X0001623Y0007384D01*
X0001580Y0007569D01*
X0001541Y0007755D01*
X0001506Y0007942D01*
X0001477Y0008130D01*
X0001451Y0008319D01*
X0001431Y0008508D01*
X0001415Y0008698D01*
X0001403Y0008888D01*
X0001396Y0009078D01*
X0001394Y0009268D01*
M02*
