%
M48
M72
T01C0.0157
T02C0.0236
T03C0.0315
T04C0.0512
T05C0.1693
%
T01
X7014Y14639
X7139Y15014
X7514Y15389
X9014Y14514
X9764Y14514
X10514Y14514
X11264Y14514
X12014Y14514
X12764Y14514
X13514Y14514
X14264Y14514
X14264Y17889
X13889Y17889
X13514Y17889
X12014Y17889
X11139Y18639
X10014Y19139
X9639Y19639
X9264Y19139
X8389Y17764
X8014Y17889
X7514Y17889
X9889Y20639
X9389Y21139
X8889Y21639
X8389Y22139
X8014Y22139
X8889Y22889
X9389Y22889
X9889Y22889
X6639Y23389
X6202Y22139
X5577Y22139
X4702Y22139
X4077Y22139
X3639Y23389
X5139Y23389
X17514Y8764
X17514Y8014
X18764Y7389
X19389Y7514
X19389Y8264
X18514Y9889
X20014Y11264
X21139Y12014
X21139Y13014
T02
X6639Y7764
X9139Y8514
X9514Y8889
X9514Y9389
X10014Y9389
X10014Y8889
X10014Y10889
X9514Y10889
X9514Y11389
X10014Y11389
X7264Y13264
X6889Y17014
X6389Y17014
X8889Y17764
X8889Y18764
X6639Y20264
X5889Y20264
X5139Y20264
X4389Y20264
X3639Y20264
X2889Y20264
X2389Y18014
X2389Y17389
X2889Y17389
X11514Y22014
X12014Y21639
X12014Y21139
X13389Y21139
X13389Y21639
X13889Y22514
X13389Y23014
X17514Y19014
X18014Y19014
X18514Y19014
X19514Y20514
X19889Y20889
X20264Y20514
X21889Y18639
X21889Y15889
X16764Y12139
X16264Y11639
X16264Y12639
X14764Y12139
X14264Y12639
X16014Y9389
X13889Y7014
X13389Y7014
X16639Y6514
X16639Y6014
X17764Y5889
X17764Y6389
X18514Y5889
X21389Y9514
X21889Y9514
X9139Y6764
T03
X18700Y14889
X20078Y14889
X20078Y25264
X18700Y25264
T04
X2363Y6777
X1575Y9139
X2363Y11502
X7166Y11502
X7166Y6777
X7889Y1764
X5889Y1764
X9889Y1764
X11889Y1764
X13889Y1764
X15889Y1764
X17889Y1764
X16014Y28014
X14014Y28014
X12014Y28014
X10014Y28014
X8014Y28014
X6014Y28014
T05
X1714Y1714
X22187Y1714
X22187Y28092
X1714Y28092
M30
