G75*
%MOIN*%
%OFA0B0*%
%FSLAX25Y25*%
%IPPOS*%
%LPD*%
%AMOC8*
5,1,8,0,0,1.08239X$1,22.5*
%
%ADD10C,0.00900*%
D10*
X0010283Y0140712D02*
X0016388Y0140712D01*
X0016388Y0143764D01*
X0015370Y0144782D01*
X0013335Y0144782D01*
X0012318Y0143764D01*
X0012318Y0140712D01*
X0012318Y0142747D02*
X0010283Y0144782D01*
X0011300Y0147157D02*
X0013335Y0147157D01*
X0014353Y0148175D01*
X0014353Y0150210D01*
X0013335Y0151227D01*
X0012318Y0151227D01*
X0012318Y0147157D01*
X0011300Y0147157D02*
X0010283Y0148175D01*
X0010283Y0150210D01*
X0014353Y0153603D02*
X0010283Y0155638D01*
X0014353Y0157673D01*
X0014353Y0166494D02*
X0010283Y0166494D01*
X0013335Y0166494D02*
X0013335Y0170564D01*
X0014353Y0170564D02*
X0010283Y0170564D01*
X0014353Y0170564D02*
X0016388Y0168529D01*
X0014353Y0166494D01*
X0022783Y0167398D02*
X0022783Y0165363D01*
X0023800Y0164345D01*
X0025835Y0164345D01*
X0026853Y0165363D01*
X0026853Y0167398D01*
X0025835Y0168415D01*
X0024818Y0168415D01*
X0024818Y0164345D01*
X0026853Y0161970D02*
X0026853Y0158917D01*
X0025835Y0157900D01*
X0023800Y0157900D01*
X0022783Y0158917D01*
X0022783Y0161970D01*
X0028888Y0161970D01*
X0028888Y0154620D02*
X0022783Y0154620D01*
X0022783Y0153603D02*
X0022783Y0155638D01*
X0023800Y0151227D02*
X0025835Y0151227D01*
X0026853Y0150210D01*
X0026853Y0148175D01*
X0025835Y0147157D01*
X0023800Y0147157D01*
X0022783Y0148175D01*
X0022783Y0150210D01*
X0023800Y0151227D01*
X0028888Y0153603D02*
X0028888Y0154620D01*
X0035283Y0153603D02*
X0041388Y0153603D01*
X0039353Y0151227D02*
X0035283Y0151227D01*
X0035283Y0148175D01*
X0036300Y0147157D01*
X0039353Y0147157D01*
X0035283Y0144782D02*
X0035283Y0140712D01*
X0041388Y0140712D01*
X0047783Y0141729D02*
X0047783Y0143764D01*
X0048800Y0144782D01*
X0053888Y0144782D01*
X0051853Y0147157D02*
X0051853Y0150210D01*
X0050835Y0151227D01*
X0047783Y0151227D01*
X0047783Y0153603D02*
X0047783Y0155638D01*
X0047783Y0154620D02*
X0051853Y0154620D01*
X0051853Y0153603D01*
X0053888Y0154620D02*
X0054905Y0154620D01*
X0051853Y0157900D02*
X0047783Y0159935D01*
X0051853Y0161970D01*
X0050835Y0164345D02*
X0051853Y0165363D01*
X0051853Y0167398D01*
X0050835Y0168415D01*
X0049818Y0168415D01*
X0049818Y0164345D01*
X0050835Y0164345D02*
X0048800Y0164345D01*
X0047783Y0165363D01*
X0047783Y0167398D01*
X0047783Y0170791D02*
X0051853Y0170791D01*
X0051853Y0172826D02*
X0051853Y0173843D01*
X0051853Y0172826D02*
X0049818Y0170791D01*
X0050835Y0176162D02*
X0049818Y0177180D01*
X0049818Y0179215D01*
X0048800Y0180232D01*
X0047783Y0179215D01*
X0047783Y0176162D01*
X0050835Y0176162D02*
X0051853Y0177180D01*
X0051853Y0180232D01*
X0051853Y0183625D02*
X0051853Y0185660D01*
X0050835Y0186678D01*
X0047783Y0186678D01*
X0047783Y0183625D01*
X0048800Y0182608D01*
X0049818Y0183625D01*
X0049818Y0186678D01*
X0047783Y0189053D02*
X0047783Y0191088D01*
X0047783Y0190071D02*
X0053888Y0190071D01*
X0053888Y0189053D01*
X0053888Y0199796D02*
X0053888Y0201831D01*
X0053888Y0200813D02*
X0047783Y0200813D01*
X0047783Y0199796D02*
X0047783Y0201831D01*
X0047783Y0204093D02*
X0051853Y0204093D01*
X0051853Y0207145D01*
X0050835Y0208163D01*
X0047783Y0208163D01*
X0048800Y0211556D02*
X0047783Y0212573D01*
X0048800Y0211556D02*
X0052870Y0211556D01*
X0051853Y0210538D02*
X0051853Y0212573D01*
X0050835Y0214835D02*
X0051853Y0215853D01*
X0051853Y0217888D01*
X0050835Y0218905D01*
X0049818Y0218905D01*
X0049818Y0214835D01*
X0050835Y0214835D02*
X0048800Y0214835D01*
X0047783Y0215853D01*
X0047783Y0217888D01*
X0047783Y0221281D02*
X0051853Y0221281D01*
X0051853Y0223316D02*
X0051853Y0224333D01*
X0051853Y0223316D02*
X0049818Y0221281D01*
X0050835Y0226652D02*
X0050835Y0228687D01*
X0052870Y0227669D02*
X0047783Y0227669D01*
X0048800Y0230949D02*
X0049818Y0231966D01*
X0049818Y0235019D01*
X0050835Y0235019D02*
X0047783Y0235019D01*
X0047783Y0231966D01*
X0048800Y0230949D01*
X0051853Y0231966D02*
X0051853Y0234001D01*
X0050835Y0235019D01*
X0050835Y0237394D02*
X0048800Y0237394D01*
X0047783Y0238412D01*
X0047783Y0241464D01*
X0048800Y0243840D02*
X0050835Y0243840D01*
X0051853Y0244857D01*
X0051853Y0246892D01*
X0050835Y0247910D01*
X0049818Y0247910D01*
X0049818Y0243840D01*
X0048800Y0243840D02*
X0047783Y0244857D01*
X0047783Y0246892D01*
X0051853Y0241464D02*
X0051853Y0238412D01*
X0050835Y0237394D01*
X0053888Y0228687D02*
X0052870Y0227669D01*
X0039353Y0217888D02*
X0039353Y0216870D01*
X0037318Y0214835D01*
X0035283Y0214835D02*
X0039353Y0214835D01*
X0038335Y0212460D02*
X0037318Y0212460D01*
X0037318Y0208390D01*
X0038335Y0208390D02*
X0036300Y0208390D01*
X0035283Y0209407D01*
X0035283Y0211442D01*
X0038335Y0212460D02*
X0039353Y0211442D01*
X0039353Y0209407D01*
X0038335Y0208390D01*
X0035283Y0206128D02*
X0035283Y0204093D01*
X0035283Y0205110D02*
X0041388Y0205110D01*
X0041388Y0204093D01*
X0039353Y0201717D02*
X0039353Y0198665D01*
X0038335Y0197647D01*
X0037318Y0198665D01*
X0037318Y0200700D01*
X0036300Y0201717D01*
X0035283Y0200700D01*
X0035283Y0197647D01*
X0036300Y0195272D02*
X0037318Y0194254D01*
X0037318Y0192219D01*
X0038335Y0191202D01*
X0039353Y0192219D01*
X0039353Y0195272D01*
X0036300Y0195272D02*
X0035283Y0194254D01*
X0035283Y0191202D01*
X0035283Y0188826D02*
X0035283Y0185774D01*
X0036300Y0184756D01*
X0037318Y0185774D01*
X0037318Y0188826D01*
X0038335Y0188826D02*
X0035283Y0188826D01*
X0038335Y0188826D02*
X0039353Y0187809D01*
X0039353Y0185774D01*
X0041388Y0185774D02*
X0042405Y0185774D01*
X0042405Y0187809D02*
X0041388Y0187809D01*
X0041388Y0182381D02*
X0041388Y0178311D01*
X0035283Y0178311D01*
X0038335Y0178311D02*
X0038335Y0180346D01*
X0039353Y0169490D02*
X0039353Y0166437D01*
X0038335Y0165420D01*
X0037318Y0166437D01*
X0037318Y0168472D01*
X0036300Y0169490D01*
X0035283Y0168472D01*
X0035283Y0165420D01*
X0035283Y0163044D02*
X0035283Y0159992D01*
X0036300Y0158974D01*
X0037318Y0159992D01*
X0037318Y0163044D01*
X0038335Y0163044D02*
X0035283Y0163044D01*
X0038335Y0163044D02*
X0039353Y0162027D01*
X0039353Y0159992D01*
X0039353Y0156655D02*
X0037318Y0153603D01*
X0035283Y0156655D01*
X0026853Y0144782D02*
X0026853Y0141729D01*
X0025835Y0140712D01*
X0024818Y0141729D01*
X0024818Y0143764D01*
X0023800Y0144782D01*
X0022783Y0143764D01*
X0022783Y0140712D01*
X0022783Y0170791D02*
X0026853Y0170791D01*
X0026853Y0172826D02*
X0026853Y0173843D01*
X0026853Y0172826D02*
X0024818Y0170791D01*
X0022783Y0176162D02*
X0026853Y0176162D01*
X0026853Y0179215D01*
X0025835Y0180232D01*
X0022783Y0180232D01*
X0023800Y0182608D02*
X0022783Y0183625D01*
X0022783Y0185660D01*
X0024818Y0186678D02*
X0024818Y0182608D01*
X0025835Y0182608D02*
X0026853Y0183625D01*
X0026853Y0185660D01*
X0025835Y0186678D01*
X0024818Y0186678D01*
X0024818Y0189053D02*
X0026853Y0191088D01*
X0026853Y0192106D01*
X0025835Y0194424D02*
X0026853Y0195442D01*
X0026853Y0198494D01*
X0028888Y0198494D02*
X0022783Y0198494D01*
X0022783Y0195442D01*
X0023800Y0194424D01*
X0025835Y0194424D01*
X0026853Y0189053D02*
X0022783Y0189053D01*
X0023800Y0182608D02*
X0025835Y0182608D01*
X0015370Y0192276D02*
X0016388Y0193293D01*
X0016388Y0195328D01*
X0015370Y0196346D01*
X0014353Y0196346D01*
X0010283Y0192276D01*
X0010283Y0196346D01*
X0011300Y0198721D02*
X0015370Y0202791D01*
X0011300Y0202791D01*
X0010283Y0201774D01*
X0010283Y0199739D01*
X0011300Y0198721D01*
X0015370Y0198721D01*
X0016388Y0199739D01*
X0016388Y0201774D01*
X0015370Y0202791D01*
X0014353Y0205167D02*
X0016388Y0207202D01*
X0010283Y0207202D01*
X0010283Y0205167D02*
X0010283Y0209237D01*
X0011300Y0211612D02*
X0010283Y0212630D01*
X0010283Y0214665D01*
X0011300Y0215682D01*
X0015370Y0215682D01*
X0016388Y0214665D01*
X0016388Y0212630D01*
X0015370Y0211612D01*
X0014353Y0211612D01*
X0013335Y0212630D01*
X0013335Y0215682D01*
X0022783Y0216984D02*
X0026853Y0216984D01*
X0026853Y0218001D01*
X0025835Y0219019D01*
X0026853Y0220036D01*
X0025835Y0221054D01*
X0022783Y0221054D01*
X0022783Y0219019D02*
X0025835Y0219019D01*
X0025835Y0214608D02*
X0026853Y0213591D01*
X0026853Y0211556D01*
X0025835Y0210538D01*
X0023800Y0210538D01*
X0022783Y0211556D01*
X0022783Y0213591D01*
X0023800Y0214608D01*
X0025835Y0214608D01*
X0026853Y0208163D02*
X0026853Y0205110D01*
X0025835Y0204093D01*
X0023800Y0204093D01*
X0022783Y0205110D01*
X0022783Y0208163D01*
X0022783Y0201887D02*
X0022783Y0200870D01*
X0023800Y0200870D01*
X0023800Y0201887D01*
X0022783Y0201887D01*
X0013335Y0183455D02*
X0013335Y0179385D01*
X0047783Y0147157D02*
X0051853Y0147157D01*
X0053888Y0140712D02*
X0048800Y0140712D01*
X0047783Y0141729D01*
M02*
